<?xml version="1.0" encoding="UTF-8" standalone="no"?>
<!-- Created with matplotlib (https://matplotlib.org/) -->

<svg
   height="320.579187pt"
   version="1.1"
   viewBox="0 0 432.287187 320.579187"
   width="432.287187pt"
   id="svg1292"
   sodipodi:docname="CompleteVariance.svg"
   inkscape:version="1.2.2 (732a01da63, 2022-12-09, custom)"
   xmlns:inkscape="http://www.inkscape.org/namespaces/inkscape"
   xmlns:sodipodi="http://sodipodi.sourceforge.net/DTD/sodipodi-0.dtd"
   xmlns:xlink="http://www.w3.org/1999/xlink"
   xmlns="http://www.w3.org/2000/svg"
   xmlns:svg="http://www.w3.org/2000/svg"
   xmlns:rdf="http://www.w3.org/1999/02/22-rdf-syntax-ns#"
   xmlns:cc="http://creativecommons.org/ns#"
   xmlns:dc="http://purl.org/dc/elements/1.1/">
  <sodipodi:namedview
     id="namedview1294"
     pagecolor="#505050"
     bordercolor="#eeeeee"
     borderopacity="1"
     inkscape:showpageshadow="0"
     inkscape:pageopacity="0"
     inkscape:pagecheckerboard="0"
     inkscape:deskcolor="#505050"
     inkscape:document-units="pt"
     showgrid="false"
     inkscape:zoom="1.9979463"
     inkscape:cx="288.04579"
     inkscape:cy="213.71946"
     inkscape:window-width="1853"
     inkscape:window-height="1025"
     inkscape:window-x="67"
     inkscape:window-y="27"
     inkscape:window-maximized="1"
     inkscape:current-layer="svg1292" />
  <metadata
     id="metadata686">
    <rdf:RDF>
      <cc:Work>
        <dc:type
           rdf:resource="http://purl.org/dc/dcmitype/StillImage" />
        <dc:date>2023-02-28T10:02:35.185093</dc:date>
        <dc:format>image/svg+xml</dc:format>
        <dc:creator>
          <cc:Agent>
            <dc:title>Matplotlib v3.3.4, https://matplotlib.org/</dc:title>
          </cc:Agent>
        </dc:creator>
      </cc:Work>
    </rdf:RDF>
  </metadata>
  <defs
     id="defs690">
    <style
       type="text/css"
       id="style688">*{stroke-linecap:butt;stroke-linejoin:round;}</style>
  </defs>
  <path
     d="M 0,320.57919 H 432.28719 V 0 H 0 Z"
     style="fill:#ffffff"
     id="path692" />
  <g
     id="patch_2">
    <path
       d="M 67.967187,273.312 H 425.08719 V 7.2 H 67.967187 Z"
       style="fill:#ffffff"
       id="path695" />
  </g>
  <g
     id="matplotlib.axis_1">
    <g
       id="xtick_1">
      <g
         id="line2d_1">
        <defs
           id="defs699">
          <path
             d="M 0,0 V 3.5"
             id="mb98410eb0e"
             style="stroke:#000000;stroke-width:0.8" />
        </defs>
        <g
           id="g703">
          <use
             style="stroke:#000000;stroke-width:0.8"
             x="101.81503"
             xlink:href="#mb98410eb0e"
             y="273.31201"
             id="use701" />
        </g>
      </g>
      <g
         id="text_1">
        <!-- $\mathdefault{10^{0}}$ -->
        <g
           transform="matrix(0.15,0,0,-0.15,88.615029,291.70966)"
           id="g716">
          <defs
             id="defs708">
            <path
               d="m 12.40625,8.296875 h 16.109375 v 55.625 L 10.984375,60.40625 v 8.984375 l 17.4375,3.515625 H 38.28125 V 8.296875 H 54.390625 V 0 H 12.40625 Z"
               id="DejaVuSans-49" />
            <path
               d="m 31.78125,66.40625 q -7.609375,0 -11.453125,-7.5 Q 16.5,51.421875 16.5,36.375 q 0,-14.984375 3.828125,-22.484375 3.84375,-7.5 11.453125,-7.5 7.671875,0 11.5,7.5 3.84375,7.5 3.84375,22.484375 0,15.046875 -3.84375,22.53125 -3.828125,7.5 -11.5,7.5 z m 0,7.8125 q 12.265625,0 18.734375,-9.703125 6.46875,-9.6875 6.46875,-28.140625 0,-18.40625 -6.46875,-28.109375 -6.46875,-9.6875 -18.734375,-9.6875 -12.25,0 -18.71875,9.6875 Q 6.59375,17.96875 6.59375,36.375 q 0,18.453125 6.46875,28.140625 6.46875,9.703125 18.71875,9.703125 z"
               id="DejaVuSans-48" />
          </defs>
          <use
             transform="translate(0,0.765625)"
             xlink:href="#DejaVuSans-49"
             id="use710" />
          <use
             transform="translate(63.623047,0.765625)"
             xlink:href="#DejaVuSans-48"
             id="use712" />
          <use
             transform="matrix(0.7,0,0,0.7,128.20312,39.046875)"
             xlink:href="#DejaVuSans-48"
             id="use714" />
        </g>
      </g>
    </g>
    <g
       id="xtick_2">
      <g
         id="line2d_2">
        <g
           id="g722">
          <use
             style="stroke:#000000;stroke-width:0.8"
             x="214.25513"
             xlink:href="#mb98410eb0e"
             y="273.31201"
             id="use720" />
        </g>
      </g>
      <g
         id="text_2">
        <!-- $\mathdefault{10^{1}}$ -->
        <g
           transform="matrix(0.15,0,0,-0.15,201.05512,291.70966)"
           id="g731">
          <use
             transform="translate(0,0.684375)"
             xlink:href="#DejaVuSans-49"
             id="use725" />
          <use
             transform="translate(63.623047,0.684375)"
             xlink:href="#DejaVuSans-48"
             id="use727" />
          <use
             transform="matrix(0.7,0,0,0.7,128.20312,38.965625)"
             xlink:href="#DejaVuSans-49"
             id="use729" />
        </g>
      </g>
    </g>
    <g
       id="xtick_3">
      <g
         id="line2d_3">
        <g
           id="g737">
          <use
             style="stroke:#000000;stroke-width:0.8"
             x="326.69522"
             xlink:href="#mb98410eb0e"
             y="273.31201"
             id="use735" />
        </g>
      </g>
      <g
         id="text_3">
        <!-- $\mathdefault{10^{2}}$ -->
        <g
           transform="matrix(0.15,0,0,-0.15,313.49522,291.70966)"
           id="g749">
          <defs
             id="defs741">
            <path
               d="M 19.1875,8.296875 H 53.609375 V 0 H 7.328125 v 8.296875 q 5.609375,5.8125 15.296875,15.59375 9.703125,9.796875 12.1875,12.640625 4.734375,5.3125 6.609375,9 1.890625,3.6875 1.890625,7.25 0,5.8125 -4.078125,9.46875 -4.078125,3.671875 -10.625,3.671875 -4.640625,0 -9.796875,-1.609375 -5.140625,-1.609375 -11,-4.890625 v 9.96875 Q 13.765625,71.78125 18.9375,73 q 5.1875,1.21875 9.484375,1.21875 11.328125,0 18.0625,-5.671875 6.734375,-5.65625 6.734375,-15.125 0,-4.5 -1.6875,-8.53125 Q 49.859375,40.875 45.40625,35.40625 44.1875,33.984375 37.640625,27.21875 31.109375,20.453125 19.1875,8.296875 Z"
               id="DejaVuSans-50" />
          </defs>
          <use
             transform="translate(0,0.765625)"
             xlink:href="#DejaVuSans-49"
             id="use743" />
          <use
             transform="translate(63.623047,0.765625)"
             xlink:href="#DejaVuSans-48"
             id="use745" />
          <use
             transform="matrix(0.7,0,0,0.7,128.20312,39.046875)"
             xlink:href="#DejaVuSans-50"
             id="use747" />
        </g>
      </g>
    </g>
    <g
       id="xtick_4">
      <g
         id="line2d_4">
        <defs
           id="defs754">
          <path
             d="M 0,0 V 2"
             id="md5feb42a2d"
             style="stroke:#000000;stroke-width:0.6" />
        </defs>
        <g
           id="g758">
          <use
             style="stroke:#000000;stroke-width:0.6"
             x="67.967186"
             xlink:href="#md5feb42a2d"
             y="273.31201"
             id="use756" />
        </g>
      </g>
    </g>
    <g
       id="xtick_5">
      <g
         id="line2d_5">
        <g
           id="g764">
          <use
             style="stroke:#000000;stroke-width:0.6"
             x="76.870331"
             xlink:href="#md5feb42a2d"
             y="273.31201"
             id="use762" />
        </g>
      </g>
    </g>
    <g
       id="xtick_6">
      <g
         id="line2d_6">
        <g
           id="g770">
          <use
             style="stroke:#000000;stroke-width:0.6"
             x="84.397835"
             xlink:href="#md5feb42a2d"
             y="273.31201"
             id="use768" />
        </g>
      </g>
    </g>
    <g
       id="xtick_7">
      <g
         id="line2d_7">
        <g
           id="g776">
          <use
             style="stroke:#000000;stroke-width:0.6"
             x="90.918457"
             xlink:href="#md5feb42a2d"
             y="273.31201"
             id="use774" />
        </g>
      </g>
    </g>
    <g
       id="xtick_8">
      <g
         id="line2d_8">
        <g
           id="g782">
          <use
             style="stroke:#000000;stroke-width:0.6"
             x="96.670052"
             xlink:href="#md5feb42a2d"
             y="273.31201"
             id="use780" />
        </g>
      </g>
    </g>
    <g
       id="xtick_9">
      <g
         id="line2d_9">
        <g
           id="g788">
          <use
             style="stroke:#000000;stroke-width:0.6"
             x="135.66287"
             xlink:href="#md5feb42a2d"
             y="273.31201"
             id="use786" />
        </g>
      </g>
    </g>
    <g
       id="xtick_10">
      <g
         id="line2d_10">
        <g
           id="g794">
          <use
             style="stroke:#000000;stroke-width:0.6"
             x="155.46259"
             xlink:href="#md5feb42a2d"
             y="273.31201"
             id="use792" />
        </g>
      </g>
    </g>
    <g
       id="xtick_11">
      <g
         id="line2d_11">
        <g
           id="g800">
          <use
             style="stroke:#000000;stroke-width:0.6"
             x="169.51071"
             xlink:href="#md5feb42a2d"
             y="273.31201"
             id="use798" />
        </g>
      </g>
    </g>
    <g
       id="xtick_12">
      <g
         id="line2d_12">
        <g
           id="g806">
          <use
             style="stroke:#000000;stroke-width:0.6"
             x="180.40729"
             xlink:href="#md5feb42a2d"
             y="273.31201"
             id="use804" />
        </g>
      </g>
    </g>
    <g
       id="xtick_13">
      <g
         id="line2d_13">
        <g
           id="g812">
          <use
             style="stroke:#000000;stroke-width:0.6"
             x="189.31042"
             xlink:href="#md5feb42a2d"
             y="273.31201"
             id="use810" />
        </g>
      </g>
    </g>
    <g
       id="xtick_14">
      <g
         id="line2d_14">
        <g
           id="g818">
          <use
             style="stroke:#000000;stroke-width:0.6"
             x="196.83794"
             xlink:href="#md5feb42a2d"
             y="273.31201"
             id="use816" />
        </g>
      </g>
    </g>
    <g
       id="xtick_15">
      <g
         id="line2d_15">
        <g
           id="g824">
          <use
             style="stroke:#000000;stroke-width:0.6"
             x="203.35855"
             xlink:href="#md5feb42a2d"
             y="273.31201"
             id="use822" />
        </g>
      </g>
    </g>
    <g
       id="xtick_16">
      <g
         id="line2d_16">
        <g
           id="g830">
          <use
             style="stroke:#000000;stroke-width:0.6"
             x="209.11015"
             xlink:href="#md5feb42a2d"
             y="273.31201"
             id="use828" />
        </g>
      </g>
    </g>
    <g
       id="xtick_17">
      <g
         id="line2d_17">
        <g
           id="g836">
          <use
             style="stroke:#000000;stroke-width:0.6"
             x="248.10297"
             xlink:href="#md5feb42a2d"
             y="273.31201"
             id="use834" />
        </g>
      </g>
    </g>
    <g
       id="xtick_18">
      <g
         id="line2d_18">
        <g
           id="g842">
          <use
             style="stroke:#000000;stroke-width:0.6"
             x="267.90268"
             xlink:href="#md5feb42a2d"
             y="273.31201"
             id="use840" />
        </g>
      </g>
    </g>
    <g
       id="xtick_19">
      <g
         id="line2d_19">
        <g
           id="g848">
          <use
             style="stroke:#000000;stroke-width:0.6"
             x="281.95081"
             xlink:href="#md5feb42a2d"
             y="273.31201"
             id="use846" />
        </g>
      </g>
    </g>
    <g
       id="xtick_20">
      <g
         id="line2d_20">
        <g
           id="g854">
          <use
             style="stroke:#000000;stroke-width:0.6"
             x="292.84738"
             xlink:href="#md5feb42a2d"
             y="273.31201"
             id="use852" />
        </g>
      </g>
    </g>
    <g
       id="xtick_21">
      <g
         id="line2d_21">
        <g
           id="g860">
          <use
             style="stroke:#000000;stroke-width:0.6"
             x="301.75052"
             xlink:href="#md5feb42a2d"
             y="273.31201"
             id="use858" />
        </g>
      </g>
    </g>
    <g
       id="xtick_22">
      <g
         id="line2d_22">
        <g
           id="g866">
          <use
             style="stroke:#000000;stroke-width:0.6"
             x="309.27802"
             xlink:href="#md5feb42a2d"
             y="273.31201"
             id="use864" />
        </g>
      </g>
    </g>
    <g
       id="xtick_23">
      <g
         id="line2d_23">
        <g
           id="g872">
          <use
             style="stroke:#000000;stroke-width:0.6"
             x="315.79865"
             xlink:href="#md5feb42a2d"
             y="273.31201"
             id="use870" />
        </g>
      </g>
    </g>
    <g
       id="xtick_24">
      <g
         id="line2d_24">
        <g
           id="g878">
          <use
             style="stroke:#000000;stroke-width:0.6"
             x="321.55023"
             xlink:href="#md5feb42a2d"
             y="273.31201"
             id="use876" />
        </g>
      </g>
    </g>
    <g
       id="xtick_25">
      <g
         id="line2d_25">
        <g
           id="g884">
          <use
             style="stroke:#000000;stroke-width:0.6"
             x="360.54306"
             xlink:href="#md5feb42a2d"
             y="273.31201"
             id="use882" />
        </g>
      </g>
    </g>
    <g
       id="xtick_26">
      <g
         id="line2d_26">
        <g
           id="g890">
          <use
             style="stroke:#000000;stroke-width:0.6"
             x="380.34277"
             xlink:href="#md5feb42a2d"
             y="273.31201"
             id="use888" />
        </g>
      </g>
    </g>
    <g
       id="xtick_27">
      <g
         id="line2d_27">
        <g
           id="g896">
          <use
             style="stroke:#000000;stroke-width:0.6"
             x="394.3909"
             xlink:href="#md5feb42a2d"
             y="273.31201"
             id="use894" />
        </g>
      </g>
    </g>
    <g
       id="xtick_28">
      <g
         id="line2d_28">
        <g
           id="g902">
          <use
             style="stroke:#000000;stroke-width:0.6"
             x="405.28748"
             xlink:href="#md5feb42a2d"
             y="273.31201"
             id="use900" />
        </g>
      </g>
    </g>
    <g
       id="xtick_29">
      <g
         id="line2d_29">
        <g
           id="g908">
          <use
             style="stroke:#000000;stroke-width:0.6"
             x="414.19061"
             xlink:href="#md5feb42a2d"
             y="273.31201"
             id="use906" />
        </g>
      </g>
    </g>
    <g
       id="xtick_30">
      <g
         id="line2d_30">
        <g
           id="g914">
          <use
             style="stroke:#000000;stroke-width:0.6"
             x="421.71811"
             xlink:href="#md5feb42a2d"
             y="273.31201"
             id="use912" />
        </g>
      </g>
    </g>
    <g
       id="text_4">
      <!-- $L / \log(N)$ -->
      <g
         transform="matrix(0.15,0,0,-0.15,216.90219,310.22919)"
         id="g944">
        <defs
           id="defs926">
          <path
             d="m 16.796875,72.90625 h 9.90625 l -12.5,-64.703125 h 35.5 L 48.09375,0 H 2.6875 Z"
             id="DejaVuSans-Oblique-76" />
          <path
             d="M 25.390625,72.90625 H 33.6875 L 8.296875,-9.28125 H 0 Z"
             id="DejaVuSans-47" />
          <path
             d="M 9.421875,75.984375 H 18.40625 V 0 H 9.421875 Z"
             id="DejaVuSans-108" />
          <path
             d="m 30.609375,48.390625 q -7.21875,0 -11.421875,-5.640625 -4.203125,-5.640625 -4.203125,-15.453125 0,-9.8125 4.171875,-15.453125 4.1875,-5.640625 11.453125,-5.640625 7.1875,0 11.375,5.65625 4.203125,5.671875 4.203125,15.4375 0,9.71875 -4.203125,15.40625 -4.1875,5.6875 -11.375,5.6875 z m 0,7.609375 q 11.71875,0 18.40625,-7.625 6.703125,-7.609375 6.703125,-21.078125 0,-13.421875 -6.703125,-21.078125 -6.6875,-7.640625 -18.40625,-7.640625 -11.765625,0 -18.4375,7.640625 -6.65625,7.65625 -6.65625,21.078125 0,13.46875 6.65625,21.078125 Q 18.84375,56 30.609375,56 Z"
             id="DejaVuSans-111" />
          <path
             d="m 45.40625,27.984375 q 0,9.765625 -4.03125,15.125 -4.015625,5.375 -11.296875,5.375 -7.21875,0 -11.25,-5.375 -4.03125,-5.359375 -4.03125,-15.125 0,-9.71875 4.03125,-15.09375 4.03125,-5.375 11.25,-5.375 7.28125,0 11.296875,5.375 4.03125,5.375 4.03125,15.09375 z M 54.390625,6.78125 q 0,-13.953125 -6.203125,-20.765625 -6.1875,-6.8125 -18.984375,-6.8125 -4.734375,0 -8.9375,0.703125 -4.203125,0.703125 -8.15625,2.171875 V -9.1875 q 3.953125,-2.140625 7.8125,-3.15625 3.859375,-1.03125 7.859375,-1.03125 8.84375,0 13.234375,4.609375 4.390625,4.609375 4.390625,13.9375 V 9.625 Q 42.625,4.78125 38.28125,2.390625 33.9375,0 27.875,0 17.828125,0 11.671875,7.65625 q -6.15625,7.671875 -6.15625,20.328125 0,12.6875 6.15625,20.34375 Q 17.828125,56 27.875,56 q 6.0625,0 10.40625,-2.390625 4.34375,-2.390625 7.125,-7.21875 V 54.6875 h 8.984375 z"
             id="DejaVuSans-103" />
          <path
             d="M 31,75.875 Q 24.46875,64.65625 21.28125,53.65625 18.109375,42.671875 18.109375,31.390625 18.109375,20.125 21.3125,9.0625 24.515625,-2 31,-13.1875 H 23.1875 Q 15.875,-1.703125 12.234375,9.375 8.59375,20.453125 8.59375,31.390625 q 0,10.890625 3.609375,21.921875 3.625,11.046875 10.984375,22.5625 z"
             id="DejaVuSans-40" />
          <path
             d="m 16.890625,72.90625 h 13.28125 l 20.125,-62.5 12.203125,62.5 h 9.625 L 57.90625,0 H 44.578125 L 24.515625,62.890625 12.3125,0 h -9.625 z"
             id="DejaVuSans-Oblique-78" />
          <path
             d="m 8.015625,75.875 h 7.8125 q 7.3125,-11.515625 10.953125,-22.5625 3.640625,-11.03125 3.640625,-21.921875 0,-10.9375 -3.640625,-22.015625 -3.640625,-11.078125 -10.953125,-22.5625 h -7.8125 Q 14.5,-2 17.703125,9.0625 20.90625,20.125 20.90625,31.390625 q 0,11.28125 -3.203125,22.265625 -3.203125,11 -9.6875,22.21875 z"
             id="DejaVuSans-41" />
        </defs>
        <use
           transform="translate(0,0.015625)"
           xlink:href="#DejaVuSans-Oblique-76"
           id="use928" />
        <use
           transform="translate(55.712891,0.015625)"
           xlink:href="#DejaVuSans-47"
           id="use930" />
        <use
           transform="translate(89.404297,0.015625)"
           xlink:href="#DejaVuSans-108"
           id="use932" />
        <use
           transform="translate(117.1875,0.015625)"
           xlink:href="#DejaVuSans-111"
           id="use934" />
        <use
           transform="translate(178.36914,0.015625)"
           xlink:href="#DejaVuSans-103"
           id="use936" />
        <use
           transform="translate(241.8457,0.015625)"
           xlink:href="#DejaVuSans-40"
           id="use938" />
        <use
           transform="translate(280.85937,0.015625)"
           xlink:href="#DejaVuSans-Oblique-78"
           id="use940" />
        <use
           transform="translate(355.66406,0.015625)"
           xlink:href="#DejaVuSans-41"
           id="use942" />
      </g>
    </g>
  </g>
  <g
     id="matplotlib.axis_2">
    <g
       id="ytick_1">
      <g
         id="line2d_31">
        <defs
           id="defs949">
          <path
             d="M 0,0 H -3.5"
             id="m2b468245ff"
             style="stroke:#000000;stroke-width:0.8" />
        </defs>
        <g
           id="g953">
          <use
             style="stroke:#000000;stroke-width:0.8"
             x="67.967186"
             xlink:href="#m2b468245ff"
             y="273.31201"
             id="use951" />
        </g>
      </g>
      <g
         id="text_5">
        <!-- $\mathdefault{10^{-3}}$ -->
        <g
           transform="matrix(0.15,0,0,-0.15,25.717187,279.01083)"
           id="g968">
          <defs
             id="defs958">
            <path
               d="M 10.59375,35.5 H 73.1875 V 27.203125 H 10.59375 Z"
               id="DejaVuSans-8722" />
            <path
               d="M 40.578125,39.3125 Q 47.65625,37.796875 51.625,33 q 3.984375,-4.78125 3.984375,-11.8125 0,-10.78125 -7.421875,-16.703125 -7.421875,-5.90625 -21.09375,-5.90625 -4.578125,0 -9.4375,0.90625 -4.859375,0.90625 -10.03125,2.71875 v 9.515625 q 4.09375,-2.390625 8.96875,-3.609375 4.890625,-1.21875 10.21875,-1.21875 9.265625,0 14.125,3.65625 4.859375,3.65625 4.859375,10.640625 0,6.453125 -4.515625,10.078125 -4.515625,3.640625 -12.5625,3.640625 h -8.5 v 8.109375 h 8.890625 q 7.265625,0 11.125,2.90625 3.859375,2.90625 3.859375,8.375 0,5.609375 -3.984375,8.609375 -3.96875,3.015625 -11.390625,3.015625 -4.0625,0 -8.703125,-0.890625 Q 15.375,64.15625 9.8125,62.3125 v 8.78125 q 5.625,1.5625 10.53125,2.34375 4.90625,0.78125 9.25,0.78125 11.234375,0 17.765625,-5.109375 6.546875,-5.09375 6.546875,-13.78125 0,-6.0625 -3.46875,-10.234375 -3.46875,-4.171875 -9.859375,-5.78125 z"
               id="DejaVuSans-51" />
          </defs>
          <use
             transform="translate(0,0.765625)"
             xlink:href="#DejaVuSans-49"
             id="use960" />
          <use
             transform="translate(63.623047,0.765625)"
             xlink:href="#DejaVuSans-48"
             id="use962" />
          <use
             transform="matrix(0.7,0,0,0.7,128.20312,39.046875)"
             xlink:href="#DejaVuSans-8722"
             id="use964" />
          <use
             transform="matrix(0.7,0,0,0.7,186.85547,39.046875)"
             xlink:href="#DejaVuSans-51"
             id="use966" />
        </g>
      </g>
    </g>
    <g
       id="ytick_2">
      <g
         id="line2d_32">
        <g
           id="g974">
          <use
             style="stroke:#000000;stroke-width:0.8"
             x="67.967186"
             xlink:href="#m2b468245ff"
             y="237.8304"
             id="use972" />
        </g>
      </g>
      <g
         id="text_6">
        <!-- $\mathdefault{10^{-1}}$ -->
        <g
           transform="matrix(0.15,0,0,-0.15,25.717187,243.52923)"
           id="g985">
          <use
             transform="translate(0,0.684375)"
             xlink:href="#DejaVuSans-49"
             id="use977" />
          <use
             transform="translate(63.623047,0.684375)"
             xlink:href="#DejaVuSans-48"
             id="use979" />
          <use
             transform="matrix(0.7,0,0,0.7,128.20312,38.965625)"
             xlink:href="#DejaVuSans-8722"
             id="use981" />
          <use
             transform="matrix(0.7,0,0,0.7,186.85547,38.965625)"
             xlink:href="#DejaVuSans-49"
             id="use983" />
        </g>
      </g>
    </g>
    <g
       id="ytick_3">
      <g
         id="line2d_33">
        <g
           id="g991">
          <use
             style="stroke:#000000;stroke-width:0.8"
             x="67.967186"
             xlink:href="#m2b468245ff"
             y="202.3488"
             id="use989" />
        </g>
      </g>
      <g
         id="text_7">
        <!-- $\mathdefault{10^{1}}$ -->
        <g
           transform="matrix(0.15,0,0,-0.15,34.567187,208.04763)"
           id="g1000">
          <use
             transform="translate(0,0.684375)"
             xlink:href="#DejaVuSans-49"
             id="use994" />
          <use
             transform="translate(63.623047,0.684375)"
             xlink:href="#DejaVuSans-48"
             id="use996" />
          <use
             transform="matrix(0.7,0,0,0.7,128.20312,38.965625)"
             xlink:href="#DejaVuSans-49"
             id="use998" />
        </g>
      </g>
    </g>
    <g
       id="ytick_4">
      <g
         id="line2d_34">
        <g
           id="g1006">
          <use
             style="stroke:#000000;stroke-width:0.8"
             x="67.967186"
             xlink:href="#m2b468245ff"
             y="166.8672"
             id="use1004" />
        </g>
      </g>
      <g
         id="text_8">
        <!-- $\mathdefault{10^{3}}$ -->
        <g
           transform="matrix(0.15,0,0,-0.15,34.567187,172.56603)"
           id="g1015">
          <use
             transform="translate(0,0.765625)"
             xlink:href="#DejaVuSans-49"
             id="use1009" />
          <use
             transform="translate(63.623047,0.765625)"
             xlink:href="#DejaVuSans-48"
             id="use1011" />
          <use
             transform="matrix(0.7,0,0,0.7,128.20312,39.046875)"
             xlink:href="#DejaVuSans-51"
             id="use1013" />
        </g>
      </g>
    </g>
    <g
       id="ytick_5">
      <g
         id="line2d_35">
        <g
           id="g1021">
          <use
             style="stroke:#000000;stroke-width:0.8"
             x="67.967186"
             xlink:href="#m2b468245ff"
             y="131.3856"
             id="use1019" />
        </g>
      </g>
      <g
         id="text_9">
        <!-- $\mathdefault{10^{5}}$ -->
        <g
           transform="matrix(0.15,0,0,-0.15,34.567187,137.08443)"
           id="g1033">
          <defs
             id="defs1025">
            <path
               d="m 10.796875,72.90625 h 38.71875 v -8.3125 h -29.6875 V 46.734375 q 2.140625,0.734375 4.28125,1.09375 2.15625,0.359375 4.3125,0.359375 Q 40.625,48.1875 47.75,41.5 54.890625,34.8125 54.890625,23.390625 54.890625,11.625 47.5625,5.09375 40.234375,-1.421875 26.90625,-1.421875 q -4.59375,0 -9.359375,0.78125 -4.75,0.78125 -9.828125,2.34375 V 11.625 q 4.390625,-2.390625 9.078125,-3.5625 4.6875,-1.171875 9.90625,-1.171875 8.453125,0 13.375,4.4375 4.9375,4.4375 4.9375,12.0625 0,7.609375 -4.9375,12.046875 -4.921875,4.453125 -13.375,4.453125 -3.953125,0 -7.890625,-0.875 -3.921875,-0.875 -8.015625,-2.734375 z"
               id="DejaVuSans-53" />
          </defs>
          <use
             transform="translate(0,0.684375)"
             xlink:href="#DejaVuSans-49"
             id="use1027" />
          <use
             transform="translate(63.623047,0.684375)"
             xlink:href="#DejaVuSans-48"
             id="use1029" />
          <use
             transform="matrix(0.7,0,0,0.7,128.20312,38.965625)"
             xlink:href="#DejaVuSans-53"
             id="use1031" />
        </g>
      </g>
    </g>
    <g
       id="ytick_6">
      <g
         id="line2d_36">
        <g
           id="g1039">
          <use
             style="stroke:#000000;stroke-width:0.8"
             x="67.967186"
             xlink:href="#m2b468245ff"
             y="95.903999"
             id="use1037" />
        </g>
      </g>
      <g
         id="text_10">
        <!-- $\mathdefault{10^{7}}$ -->
        <g
           transform="matrix(0.15,0,0,-0.15,34.567187,101.60283)"
           id="g1051">
          <defs
             id="defs1043">
            <path
               d="m 8.203125,72.90625 h 46.875 V 68.703125 L 28.609375,0 H 18.3125 L 43.21875,64.59375 H 8.203125 Z"
               id="DejaVuSans-55" />
          </defs>
          <use
             transform="translate(0,0.684375)"
             xlink:href="#DejaVuSans-49"
             id="use1045" />
          <use
             transform="translate(63.623047,0.684375)"
             xlink:href="#DejaVuSans-48"
             id="use1047" />
          <use
             transform="matrix(0.7,0,0,0.7,128.20312,38.965625)"
             xlink:href="#DejaVuSans-55"
             id="use1049" />
        </g>
      </g>
    </g>
    <g
       id="ytick_7">
      <g
         id="line2d_37">
        <g
           id="g1057">
          <use
             style="stroke:#000000;stroke-width:0.8"
             x="67.967186"
             xlink:href="#m2b468245ff"
             y="60.422401"
             id="use1055" />
        </g>
      </g>
      <g
         id="text_11">
        <!-- $\mathdefault{10^{9}}$ -->
        <g
           transform="matrix(0.15,0,0,-0.15,34.567187,66.121228)"
           id="g1069">
          <defs
             id="defs1061">
            <path
               d="M 10.984375,1.515625 V 10.5 Q 14.703125,8.734375 18.5,7.8125 q 3.8125,-0.921875 7.484375,-0.921875 9.765625,0 14.90625,6.5625 5.15625,6.5625 5.890625,19.953125 -2.828125,-4.203125 -7.1875,-6.453125 -4.34375,-2.25 -9.609375,-2.25 -10.9375,0 -17.3125,6.609375 -6.375,6.625 -6.375,18.109375 0,11.21875 6.640625,18 6.640625,6.796875 17.671875,6.796875 12.65625,0 19.3125,-9.703125 6.671875,-9.6875 6.671875,-28.140625 0,-17.234375 -8.1875,-27.515625 -8.171875,-10.28125 -21.984375,-10.28125 -3.71875,0 -7.53125,0.734375 -3.796875,0.734375 -7.90625,2.203125 z m 19.625,30.90625 q 6.640625,0 10.515625,4.53125 3.890625,4.546875 3.890625,12.46875 0,7.859375 -3.890625,12.421875 -3.875,4.5625 -10.515625,4.5625 -6.640625,0 -10.515625,-4.5625 -3.875,-4.5625 -3.875,-12.421875 0,-7.921875 3.875,-12.46875 3.875,-4.53125 10.515625,-4.53125 z"
               id="DejaVuSans-57" />
          </defs>
          <use
             transform="translate(0,0.765625)"
             xlink:href="#DejaVuSans-49"
             id="use1063" />
          <use
             transform="translate(63.623047,0.765625)"
             xlink:href="#DejaVuSans-48"
             id="use1065" />
          <use
             transform="matrix(0.7,0,0,0.7,128.20312,39.046875)"
             xlink:href="#DejaVuSans-57"
             id="use1067" />
        </g>
      </g>
    </g>
    <g
       id="ytick_8">
      <g
         id="line2d_38">
        <g
           id="g1075">
          <use
             style="stroke:#000000;stroke-width:0.8"
             x="67.967186"
             xlink:href="#m2b468245ff"
             y="24.9408"
             id="use1073" />
        </g>
      </g>
      <g
         id="text_12">
        <!-- $\mathdefault{10^{11}}$ -->
        <g
           transform="matrix(0.15,0,0,-0.15,27.817187,30.639628)"
           id="g1086">
          <use
             transform="translate(0,0.684375)"
             xlink:href="#DejaVuSans-49"
             id="use1078" />
          <use
             transform="translate(63.623047,0.684375)"
             xlink:href="#DejaVuSans-48"
             id="use1080" />
          <use
             transform="matrix(0.7,0,0,0.7,128.20312,38.965625)"
             xlink:href="#DejaVuSans-49"
             id="use1082" />
          <use
             transform="matrix(0.7,0,0,0.7,172.73926,38.965625)"
             xlink:href="#DejaVuSans-49"
             id="use1084" />
        </g>
      </g>
    </g>
    <g
       id="text_13">
      <!-- $\mathrm{Variance}$ -->
      <g
         transform="matrix(0,-0.15,-0.15,0,18.597656,173.256)"
         id="g1115">
        <defs
           id="defs1097">
          <path
             d="M 28.609375,0 0.78125,72.90625 h 10.296875 l 23.109375,-61.375 23.140625,61.375 h 10.25 L 39.796875,0 Z"
             id="DejaVuSans-86" />
          <path
             d="m 34.28125,27.484375 q -10.890625,0 -15.09375,-2.484375 -4.203125,-2.484375 -4.203125,-8.5 0,-4.78125 3.15625,-7.59375 3.15625,-2.796875 8.5625,-2.796875 7.484375,0 12,5.296875 4.515625,5.296875 4.515625,14.078125 v 2 z m 17.921875,3.71875 V 0 H 43.21875 v 8.296875 q -3.078125,-4.96875 -7.671875,-7.34375 -4.59375,-2.375 -11.234375,-2.375 -8.390625,0 -13.359375,4.71875 Q 6,8.015625 6,15.921875 q 0,9.21875 6.171875,13.90625 6.1875,4.6875 18.4375,4.6875 H 43.21875 v 0.890625 q 0,6.203125 -4.078125,9.59375 -4.078125,3.390625 -11.453125,3.390625 -4.6875,0 -9.140625,-1.125 -4.4375,-1.125 -8.53125,-3.375 v 8.3125 q 4.921875,1.90625 9.5625,2.84375 Q 24.21875,56 28.609375,56 q 11.875,0 17.734375,-6.15625 5.859375,-6.140625 5.859375,-18.640625 z"
             id="DejaVuSans-97" />
          <path
             d="m 41.109375,46.296875 q -1.515625,0.875 -3.296875,1.28125 Q 36.03125,48 33.890625,48 26.265625,48 22.1875,43.046875 18.109375,38.09375 18.109375,28.8125 V 0 h -9.03125 v 54.6875 h 9.03125 v -8.5 q 2.84375,4.984375 7.375,7.390625 Q 30.03125,56 36.53125,56 q 0.921875,0 2.046875,-0.125 1.125,-0.109375 2.484375,-0.359375 z"
             id="DejaVuSans-114" />
          <path
             d="M 9.421875,54.6875 H 18.40625 V 0 H 9.421875 Z m 0,21.296875 H 18.40625 V 64.59375 H 9.421875 Z"
             id="DejaVuSans-105" />
          <path
             d="M 54.890625,33.015625 V 0 H 45.90625 v 32.71875 q 0,7.765625 -3.03125,11.609375 -3.03125,3.859375 -9.078125,3.859375 -7.28125,0 -11.484375,-4.640625 -4.203125,-4.625 -4.203125,-12.640625 V 0 h -9.03125 v 54.6875 h 9.03125 v -8.5 q 3.234375,4.9375 7.59375,7.375 4.375,2.4375 10.09375,2.4375 9.421875,0 14.25,-5.828125 4.84375,-5.828125 4.84375,-17.15625 z"
             id="DejaVuSans-110" />
          <path
             d="M 48.78125,52.59375 V 44.1875 q -3.8125,2.109375 -7.640625,3.15625 -3.828125,1.046875 -7.734375,1.046875 -8.75,0 -13.59375,-5.546875 -4.828125,-5.53125 -4.828125,-15.546875 0,-10.015625 4.828125,-15.5625 4.84375,-5.53125 13.59375,-5.53125 3.90625,0 7.734375,1.046875 3.828125,1.046875 7.640625,3.15625 v -8.3125 q -3.765625,-1.75 -7.796875,-2.625 -4.015625,-0.890625 -8.5625,-0.890625 -12.359375,0 -19.640625,7.765625 -7.265625,7.765625 -7.265625,20.953125 0,13.375 7.34375,21.03125 Q 20.21875,56 33.015625,56 q 4.140625,0 8.09375,-0.859375 3.953125,-0.84375 7.671875,-2.546875 z"
             id="DejaVuSans-99" />
          <path
             d="m 56.203125,29.59375 v -4.390625 h -41.3125 q 0.59375,-9.28125 5.59375,-14.140625 5,-4.859375 13.9375,-4.859375 5.171875,0 10.03125,1.265625 4.859375,1.265625 9.65625,3.8125 v -8.5 q -4.84375,-2.046875 -9.921875,-3.125 -5.078125,-1.078125 -10.296875,-1.078125 -13.09375,0 -20.734375,7.609375 -7.640625,7.625 -7.640625,20.625 0,13.421875 7.25,21.296875 Q 20.015625,56 32.328125,56 q 11.03125,0 17.453125,-7.109375 6.421875,-7.09375 6.421875,-19.296875 z m -8.984375,2.640625 q -0.09375,7.359375 -4.125,11.75 -4.03125,4.40625 -10.671875,4.40625 -7.515625,0 -12.03125,-4.25 -4.515625,-4.25 -5.203125,-11.96875 z"
             id="DejaVuSans-101" />
        </defs>
        <use
           transform="translate(0,0.015625)"
           xlink:href="#DejaVuSans-86"
           id="use1099" />
        <use
           transform="translate(68.408203,0.015625)"
           xlink:href="#DejaVuSans-97"
           id="use1101" />
        <use
           transform="translate(129.6875,0.015625)"
           xlink:href="#DejaVuSans-114"
           id="use1103" />
        <use
           transform="translate(170.80078,0.015625)"
           xlink:href="#DejaVuSans-105"
           id="use1105" />
        <use
           transform="translate(198.58398,0.015625)"
           xlink:href="#DejaVuSans-97"
           id="use1107" />
        <use
           transform="translate(259.86328,0.015625)"
           xlink:href="#DejaVuSans-110"
           id="use1109" />
        <use
           transform="translate(323.24219,0.015625)"
           xlink:href="#DejaVuSans-99"
           id="use1111" />
        <use
           transform="translate(378.22266,0.015625)"
           xlink:href="#DejaVuSans-101"
           id="use1113" />
      </g>
    </g>
  </g>
  <g
     id="line2d_39">
    <path
       clip-path="url(#pc7b0ed9d6f)"
       d="m 80.879343,321.57919 0.0078,-49.66962 2.640217,-7.55317 2.50476,-7.78331 2.382526,-6.75041 2.271671,-5.71889 4.248949,-9.28796 1.993425,-3.80808 1.91523,-3.40446 1.842939,-3.04838 1.77591,-2.55425 3.36906,-4.11134 3.15156,-3.361 4.37595,-3.93688 4.01586,-3.14105 2.50476,-1.62997 8.90314,-5.52135 3.90866,-2.19143 5.33243,-3.19255 1.65548,-0.94124 3.15156,-1.85764 2.23697,-1.25031 1.43635,-0.70061 2.07827,-1.24382 1.99343,-1.00281 3.75817,-2.05184 1.77591,-0.84271 1.14904,-0.59525 8.332,-4.6927 0.47642,-0.12896 2.76482,-1.55086 2.19015,-1.13123 0.42648,-0.25854 2.07828,-0.99419 2.76855,-1.59609 3.34343,-1.82367 0.71289,-0.48325 1.3953,-0.67982 2.02092,-1.14363 1.30227,-0.84216 4.0074,-2.16474 5.85015,-3.26612 1.29536,-0.78598 0.76103,-0.31201 0.74936,-0.63783 1.22393,-0.47957 1.42933,-0.76307 1.15996,-0.5625 1.35654,-0.903 0.66439,-0.24727 1.51598,-0.79832 1.26296,-0.6257 4.74856,-3.02501 3.28101,-1.77462 1.90166,-1.02517 0.67356,-0.49855 0.66439,-0.32803 1.46264,-0.99988 3.99479,-2.04541 0.58658,-0.50567 2.69389,-1.43075 0.68489,-0.27577 1.34163,-0.7254 1.30575,-0.76897 0.64001,-0.45718 2.11535,-1.16336 1.32149,-0.88991 0.58906,-0.2814 1.3854,-1.03135 1.34717,-0.72165 5.9358,-3.72387 0.68162,-0.48717 1.33533,-0.54206 1.39133,-0.90847 1.97147,-0.98131 0.69761,-0.53277 1.28176,-0.74645 0.67009,-0.45802 0.66102,-0.30031 0.73311,-0.59654 1.27673,-0.78079 1.32091,-0.72539 1.36074,-1.07902 1.32384,-0.725 0.72025,-0.51105 1.96196,-0.86338 1.35465,-0.93307 4.64813,-2.80415 0.66357,-0.23421 1.35899,-0.90092 0.63683,-0.53831 4.02796,-2.65884 1.30645,-0.86605 0.66579,-0.26132 1.35444,-0.73763 0.68779,-0.34948 1.2997,-0.82985 0.66054,-0.42038 0.69795,-0.62061 1.32171,-0.59324 1.33066,-0.87667 0.65197,-0.47958 2.02968,-1.15017 0.65824,-0.55573 1.33022,-0.65101 3.34255,-1.94003 0.66389,-0.25388 2.67298,-2.16915 2.00452,-1.12115 1.98943,-1.24452 0.66655,-0.32716 1.3371,-0.8491 1.33132,-0.92445 0.68173,-0.582858 0.64331,-0.375234 0.66361,-0.217178 4.01435,-2.664919 0.65547,-0.220888 4.6897,-2.872429 0.658,-0.479041 0.67228,-0.210129 6.66143,-4.468612 2.00708,-0.894936 0.67013,-0.576949 0.66105,-0.342926 0.67073,-0.511545 0.66164,-0.214748 3.99424,-2.901999 1.34386,-0.750736 1.32379,-0.994455 1.33537,-0.555717 1.34507,-1.051031 0.65889,-0.367987 0.66479,-0.589208 1.33161,-0.709432 0.66652,-0.450845 1.33376,-0.569195 0.66698,-0.47041 2.01289,-1.07728 3.32234,-2.202717 0.67406,-0.305332 1.33245,-1.17794 7.33103,-4.295984 1.33308,-1.065885 1.33558,-0.562501 5.337,-3.398078 0.66669,-0.282334 0.66598,-0.562581 1.3375,-0.790183 1.99407,-1.475231 0.66732,-0.630758 0.66583,-0.22608 2.00244,-1.296919 0.66625,-0.161369 1.33352,-0.861385 1.33851,-0.746364 1.32903,-0.976832 1.3321,-1.07013 2.66875,-1.412324 0.66586,-0.444362 0.66866,-0.196189 1.99789,-1.233274 0.66676,-0.569723 1.33389,-0.865028 2.00512,-1.352496 0.66586,-0.557007 1.33006,-0.616822 0.66891,-0.557056 1.33489,-0.714158 1.33199,-1.044172 0.66641,-0.426122 0.6665,-0.174259 3.334,-2.210185 1.99969,-1.259479 2.00301,-1.318233 1.33163,-0.736347 1.33323,-0.882772 0.66778,-0.34607 0.66597,-0.565847 2.00033,-1.129531 0.66826,-0.578653 8.00026,-5.03329 0.66576,-0.498794 1.33541,-0.715167 1.99963,-1.455774 0.66627,-0.474544 1.33397,-0.713877 0.66743,-0.428853 0.66589,-0.206553 1.33419,-0.960666 0.6656,-0.309576 v 0"
       style="fill:none;stroke:#d62728;stroke-width:1.5;stroke-linecap:square;stroke-opacity:0.75"
       id="path1119" />
  </g>
  <g
     id="line2d_40">
    <path
       clip-path="url(#pc7b0ed9d6f)"
       d="m 81.854463,321.57919 1.672934,-41.88488 2.50476,-18.66476 2.382526,-3.79785 2.271671,-4.61629 2.170674,-4.8654 2.078275,-3.43657 1.993425,-2.19637 1.91523,-5.01809 5.332432,-6.94112 1.65548,-1.15317 1.6012,-2.28178 1.55036,-0.89212 2.96043,-3.1269 1.41552,-0.87778 1.37564,-1.63519 2.64022,-1.58642 1.26844,-1.15612 1.23632,-0.72583 1.20579,-1.44069 1.17673,-0.55931 1.14905,-1.3284 1.12262,-0.37879 2.17068,-1.51673 3.08516,-2.38406 0.98654,-0.40151 0.967,-0.56566 0.94823,-0.98128 1.84294,-1.13784 0.89603,-0.89707 1.74419,-1.15464 0.84927,-0.24303 0.83476,-0.91484 1.62789,-0.92117 0.79403,-0.75374 0.78133,-0.26298 1.52613,-0.83749 0.74554,-0.75838 0.73433,-0.0416 1.43635,-1.27443 0.70263,-0.62722 1.37564,-0.5536 0.67356,-0.80889 0.66439,-0.33095 0.65548,-0.13982 0.64679,-0.75242 0.63834,-0.56866 0.6301,-0.0972 1.23632,-0.84122 0.60662,-0.24948 1.19108,-0.89035 0.58483,-0.29282 0.5779,-0.68306 0.57114,-0.0179 1.12263,-0.57881 0.55178,-0.42742 1.0852,-0.64037 1.06161,-0.7962 0.52227,-0.2413 0.51675,-0.67496 0.51134,-0.47892 1.00688,-0.15015 2.42996,-1.76076 0.93911,-0.3562 1.82571,-1.44871 1.32584,-0.52961 0.86431,-0.80204 0.42648,-0.11841 0.84195,-0.42482 0.4156,-0.44185 0.82073,-0.55164 0.80716,-0.19222 1.96139,-1.51694 0.76302,-0.29086 0.37708,-0.34558 1.47987,-0.68639 0.72346,-0.64922 1.41552,-0.83794 0.69267,-0.55392 0.68297,-0.34124 0.67356,-0.57203 0.66439,-0.27812 0.65548,-0.6088 0.64679,-0.23065 1.89051,-1.17877 0.61425,-0.54768 1.50264,-0.75381 1.74419,-1.06803 0.84928,-0.38444 0.55809,-0.72476 0.82535,-0.30156 0.54258,-0.42258 0.80274,-0.37198 0.52792,-0.43689 1.29536,-0.7744 1.51039,-1.10661 0.49326,-0.0666 1.45056,-1.10446 1.40872,-0.74903 3.35364,-2.22304 1.90691,-1.07261 2.03497,-1.29199 1.37564,-0.76402 0.57791,-0.50395 0.76004,-0.25858 0.56238,-0.50371 1.28755,-0.75686 0.72078,-0.5449 0.7103,-0.27752 1.39033,-0.99934 0.51133,-0.43945 0.67356,-0.22749 15.48992,-9.76384 0.60511,-0.45584 1.30544,-0.68007 0.69761,-0.53309 0.68779,-0.33691 0.67823,-0.46071 0.66894,-0.31169 1.95355,-1.37636 1.98066,-1.17052 6.04583,-3.80994 1.33551,-0.8127 1.29995,-0.82248 3.38617,-2.13942 1.33795,-0.82612 0.61716,-0.32742 0.68511,-0.53269 2.71972,-1.63813 1.27027,-0.74704 2.04634,-1.3759 0.66349,-0.35247 0.6546,-0.47508 0.64593,-0.30806 1.32928,-0.98497 1.35483,-0.71891 0.66357,-0.49217 1.35899,-0.75987 1.3222,-0.93226 2.64917,-1.63421 30.02194,-18.87573 1.34658,-0.885239 1.99343,-1.206383 1.99342,-1.303006 2.0153,-1.238384 12.67319,-7.987211 1.33118,-0.873161 3.33529,-2.048735 2.65957,-1.681086 4.67984,-2.964561 2.65529,-1.6405 2.66726,-1.740214 2.01289,-1.232424 1.9955,-1.235391 18.67004,-11.780837 3.33337,-2.135259 6.00402,-3.766453 4.66185,-2.968173 2.00593,-1.257965 3.33069,-2.081982 2.66519,-1.699411 3.33801,-2.089735 16.00107,-10.103061 9.3355,-5.873664 8.00036,-5.089597 2.66751,-1.642817 0.6656,-0.435012 v 0"
       style="fill:none;stroke:#2ca02c;stroke-width:1.5;stroke-linecap:square;stroke-opacity:0.75"
       id="path1122" />
  </g>
  <g
     id="line2d_41">
    <path
       clip-path="url(#pc7b0ed9d6f)"
       d="m 86.02251,321.57919 0.0096,-68.19878 2.382526,-3.60577 2.271671,-7.72148 2.170674,-2.59524 2.078275,-5.17618 1.993425,-2.87826 1.91523,-5.4378 1.842939,-2.18563 1.77591,-2.33901 1.71358,-2.65854 1.65548,-1.42018 1.6012,-1.89437 1.55036,-0.25171 1.50264,-2.26604 5.5869,-3.75059 2.57071,-2.23285 1.23632,-0.11496 1.20579,-1.37572 1.17673,-0.966 1.14905,-0.57479 1.12262,-0.73313 1.0974,-0.31189 1.07328,-0.77486 1.05019,-0.34937 1.02808,-0.54785 1.00689,-0.83795 0.98654,-0.56362 0.967,0.0889 2.79117,-2.23528 0.89603,0.14567 0.87988,-1.04315 0.86431,0.19153 0.84927,-0.90084 0.83476,-0.28928 0.82072,-0.15578 0.80717,-0.80731 0.79403,-0.49182 0.78133,0.0367 0.76903,-0.68445 0.7571,-0.30754 0.74554,0.2116 0.73433,-0.88756 0.72346,0.29931 0.71289,-0.82192 0.70263,-0.3291 0.69266,-0.18743 0.68298,-0.56898 0.67356,-0.3625 0.66439,0.0164 0.65548,-1.00215 0.64679,-0.0202 0.63834,-0.24493 0.6301,-0.5155 1.23632,-0.16363 1.7977,-1.42159 0.58483,0.21708 0.5779,-0.80151 0.57114,0.99204 1.12263,-1.82764 0.55178,0.31237 1.0852,-0.35267 1.06161,-1.10625 0.52227,0.47396 0.51675,-1.0419 0.51134,0.54611 1.00688,-0.43041 0.98654,-1.05737 0.967,-0.0953 0.47642,-0.49423 0.93911,-9.1e-4 0.46286,-0.40226 0.91278,-0.43264 0.45007,-0.4542 0.88788,-0.58651 0.43796,0.57782 0.86431,-0.40798 0.42648,-0.38875 0.84195,-0.28577 0.4156,0.11376 0.82073,-0.85503 0.80716,-0.51844 0.39863,-0.52435 0.78763,0.43801 0.77513,-0.68363 1.1401,-0.66227 0.74554,-0.77394 1.45779,-0.078 0.71289,-0.58206 0.70263,0.13821 0.69267,-0.59579 0.68297,-0.43562 0.67356,-0.0184 0.66439,-0.24131 1.30227,-0.88692 0.63834,-0.23986 0.6301,-1.13139 0.62207,0.63736 0.61425,0.0604 0.60662,-0.87522 0.89602,-0.55937 1.16969,-0.18522 0.5745,-0.26034 0.84928,-0.59758 0.55809,0.38007 0.82535,-1.08591 1.34532,-0.1385 0.52792,0.25531 0.78133,-1.08793 0.51403,0.28184 0.76103,-0.66747 1.24262,-0.33821 0.73067,0.0838 0.71989,-1.23259 0.70944,-0.0566 0.69928,-0.69646 0.46068,0.6102 0.68298,-0.34735 0.67356,-1.06788 0.66439,0.35589 0.87203,-0.66146 0.64395,0.0704 0.63556,-0.53712 1.24685,-0.56557 0.61168,-0.80852 0.80384,-0.82826 0.59431,0.26659 0.78133,0.0468 1.33795,-0.4517 0.56238,-0.48874 0.73989,-0.27197 0.54766,0.11122 0.72078,-0.77476 0.7103,-0.39811 0.70011,-0.24477 0.69022,-0.10256 0.51133,-0.69353 0.67356,0.59143 0.66439,-0.84047 0.81798,-0.1524 0.64466,-0.33035 0.63626,-1.06555 0.62807,0.26452 1.38431,-0.0205 0.60287,-1.03449 0.74328,-0.0472 0.58658,-0.75809 1.43634,0.18589 0.56291,-0.94501 0.69464,-0.13686 0.68489,-0.78648 0.67542,0.41287 0.66621,-0.38264 0.65724,-0.67141 0.64851,0.30155 0.64001,-0.65187 1.37917,-0.34462 0.73618,0.25165 0.60511,-0.96857 0.71638,-0.22574 0.58906,-0.79606 0.69761,0.28728 0.68779,-0.42054 0.67823,-0.22739 0.66894,-0.40998 0.65991,-0.54573 1.29364,-0.48967 0.73909,0.0884 0.62473,-0.87783 0.61684,-0.24115 0.70992,-0.46511 0.69976,-0.0366 0.59191,-0.68881 0.68162,0.35127 1.33533,-0.60482 0.65422,-0.62977 0.73711,-0.015 0.63596,-0.73494 0.62778,0.5985 0.70773,-1.07345 0.69761,0.40994 0.60234,-0.87001 0.67942,-0.13765 0.67009,-0.69198 0.66102,-0.20227 0.73311,-0.83398 0.64253,0.41769 0.6342,-0.59826 1.32091,-0.15436 0.68511,-0.23062 0.67563,-1.01178 0.66641,0.10452 0.65743,-0.45043 0.72025,-0.29862 0.63927,-0.0209 0.631,-1.16469 0.69169,0.18509 1.35465,-0.3736 1.96402,-1.19796 0.7008,-0.13923 0.62848,-0.79185 0.68211,0.5124 0.67272,-1.06676 0.66357,-0.23458 0.65467,0.0926 1.34115,-0.50889 0.68537,0.12556 0.67589,-1.05671 0.66666,-0.47855 0.65768,0.39444 0.64894,-0.6443 1.37714,-0.63583 0.62273,-0.49775 0.66579,0.38873 0.70699,-0.7009 0.64745,-0.82426 0.68779,0.48968 0.6301,-0.59632 1.33014,-0.51079 0.69795,-0.0686 0.64253,-0.43461 0.67918,-0.69963 0.66986,0.25536 1.31277,-0.92382 0.68598,-0.16754 0.67647,-0.40827 0.66723,-0.68243 1.98846,-0.15834 0.67137,-0.83291 0.66228,-0.63886 0.65341,-0.35358 1.35549,-0.0601 0.66389,-0.33639 0.65498,-0.61975 0.68198,-0.19962 0.67258,-0.95533 0.66344,0.54921 2.00452,-1.25665 0.66124,-0.026 0.65241,-0.65536 0.67578,-0.37093 0.66655,0.07 0.65758,-0.56543 0.67952,0.12327 0.6702,-0.14437 0.66112,-0.84373 0.68173,0.11712 0.64331,-0.88984 0.66361,0.1728 0.68297,-1.03876 0.67356,-0.0813 0.66439,0.16428 0.65548,-0.44841 0.67355,-0.14483 0.6644,-0.6902 0.65547,-0.0803 0.67249,-0.67242 0.66335,-0.29028 0.67946,-0.0325 0.67013,-0.32786 0.66106,-0.49406 0.67623,0.35029 0.66698,-1.04839 0.658,0.22853 0.67228,-0.49141 0.66315,0.27915 1.32198,-1.7806 0.68052,0.182 0.67117,-0.14577 1.33621,-0.92483 0.66496,1.1e-4 0.65602,-1.03575 0.66742,0.0223 0.67824,-0.39432 1.32884,-0.19537 0.67013,-0.68833 0.66105,0.25768 0.67073,-0.46586 0.66164,-0.78796 0.67081,-0.19744 0.66171,0.23084 1.33171,-0.45457 0.66953,-0.83013 0.66048,-0.28919 0.66825,0.0373 0.67561,-0.83812 0.66638,-0.0767 0.65741,-0.80286 0.6801,0.39151 0.65527,-0.11424 0.67717,-0.79301 1.32679,-0.97004 0.66479,-0.1608 0.67035,-0.42072 0.66126,-0.0698 0.66652,-0.24318 0.67143,0.2306 0.66233,-0.95685 0.66698,-0.28106 0.67134,-0.41007 0.66223,0.56081 0.67932,-0.91166 0.65721,-0.58157 0.67373,-0.21331 0.66456,-0.40887 0.66793,0.25349 0.65891,-0.74053 0.67406,0.13192 0.66487,-0.8157 0.66758,-0.0973 0.67006,-0.271992 0.66098,-0.0156 0.66332,-1.266995 0.67646,0.357032 0.66722,-0.300516 0.65823,-0.4964 0.67062,0.06936 0.67196,-0.836396 0.66285,0.02936 0.66411,-0.960796 0.66522,-0.352693 0.66615,0.327726 0.66693,-0.771021 0.66755,-0.0058 1.33639,-0.302233 0.66856,-0.793305 1.99674,-0.422907 0.66823,-0.891635 0.66781,0.09394 0.6673,-0.607882 0.66669,-0.162416 0.66598,-0.431018 1.3375,-0.479791 1.33317,-0.92031 0.6609,0.0562 0.66732,-0.623518 0.66583,-0.04485 0.6717,-0.515836 0.66259,-0.197833 2.00571,-1.342567 0.66221,0.392771 0.66702,-0.774702 1.33388,-3.3e-5 0.66664,-0.909081 0.6706,-0.354384 0.6615,-0.580253 1.33399,-0.0053 1.33476,-1.106466 1.33452,-0.340062 0.66543,0.04444 1.33246,-1.407279 0.66676,0.312637 0.66875,-0.871045 0.66514,-0.469492 0.66688,0.341445 0.66843,-0.563127 0.66981,-0.370892 0.66586,-0.216935 0.66703,0.04272 1.33194,-0.132514 0.66472,-0.74346 0.67017,-0.946028 0.66581,-0.216638 0.66618,0.197286 0.66641,-0.887272 2.66972,-1.399548 0.66563,0.02629 0.66515,-0.09946 0.66874,-0.816523 1.33095,-0.781611 0.66615,0.152354 0.66905,-0.609577 0.66781,0.184002 0.66651,-0.540493 1.33254,-0.538311 0.66581,-0.493543 0.66778,-0.115286 0.66597,-0.462133 0.66765,-0.176919 0.66564,-0.472487 0.66704,0.06696 0.66826,-0.669585 1.33289,-0.885921 0.66775,-0.06913 0.66519,-0.762481 0.66578,0.171652 0.66938,-0.190878 0.66651,-0.57062 0.66669,0.144547 0.66675,-0.857523 0.66667,0.221819 0.66648,-0.648797 0.66617,-0.0027 0.66576,-0.379471 0.66805,-0.74149 0.66736,-0.170891 0.66656,0.425766 0.66569,-0.812884 0.66738,-0.556093 0.66627,0.03048 1.33397,-1.353557 0.66743,-0.313933 0.66589,0.721866 0.66675,-0.973161 0.66744,-0.698063 0.6656,-0.325725 v 0"
       style="fill:none;stroke:#1f77b4;stroke-width:1.5;stroke-linecap:square;stroke-opacity:0.75"
       id="path1125" />
  </g>
  <g
     id="line2d_43">
    <path
       clip-path="url(#pc7b0ed9d6f)"
       d="m 102.45351,321.57919 0.009,-92.81054 1.71358,-3.06119 1.65548,-2.70673 1.6012,-2.26731 3.053,-3.52678 2.87331,-3.00563 1.37564,-0.88125 1.33795,-1.3816 5.01282,-3.69643 1.17673,-0.63626 1.14905,-0.9686 2.22002,-1.24688 1.07328,-0.75327 2.07827,-0.9406 1.00689,-0.70529 1.95354,-1.03407 1.87839,-1.04242 2.68869,-1.37041 0.86431,-0.31276 1.68403,-1.04036 2.42192,-1.10542 3.053,-1.51017 0.73433,-0.2165 0.72346,-0.48699 1.41552,-0.6264 3.36907,-1.52671 3.75817,-1.69488 28.7698,-13.25346 15.12322,-7.16079 226.23776,-107.087562 v 0"
       style="fill:none;stroke:#1f77b4;stroke-width:1.5;stroke-dasharray:5.55, 2.4;stroke-dashoffset:0"
       id="path1131" />
  </g>
  <g
     id="line2d_44">
    <path
       clip-path="url(#pc7b0ed9d6f)"
       d="m 102.4589,321.57919 0.004,-38.92023 1.71358,-20.47759 1.65548,-8.72019 1.6012,-5.69154 1.55036,-4.26582 1.50264,-3.43229 1.45779,-2.88404 2.79116,-4.70033 2.64022,-3.77892 2.50476,-3.18038 3.53157,-4.01512 3.2933,-3.38869 4.0717,-3.85101 4.6542,-4.07046 5.05611,-4.13457 6.01771,-4.64321 7.22325,-5.29457 8.90315,-6.24388 11.70373,-7.90758 14.7436,-9.67811 21.25751,-13.67234 36.72935,-23.32238 104.72116,-66.131321 72.6789,-45.869638 v 0"
       style="fill:none;stroke:#2ca02c;stroke-width:1.5;stroke-dasharray:5.55, 2.4;stroke-dashoffset:0"
       id="path1134" />
  </g>
  <g
     id="line2d_45">
    <path
       clip-path="url(#pc7b0ed9d6f)"
       d="m 102.45351,321.57919 0.009,-92.8176 3.36906,-5.9073 1.6012,-2.34806 3.053,-3.68595 2.87331,-3.14042 1.37564,-0.97512 1.33795,-1.42917 5.01282,-3.95923 1.17673,-0.71852 1.14905,-1.00447 2.22002,-1.39071 1.07328,-0.79981 4.0717,-2.41346 4.6542,-2.8613 2.59346,-1.46066 1.65548,-0.93542 3.15156,-1.76114 21.79314,-11.91983 8.08242,-4.53604 20.3484,-11.64333 21.32165,-12.45565 22.70826,-13.52834 24.67822,-14.96527 29.33706,-18.05658 38.6749,-24.083243 57.35285,-36.002313 37.33707,-23.516832 v 0"
       style="fill:none;stroke:#d62728;stroke-width:1.5;stroke-dasharray:5.55, 2.4;stroke-dashoffset:0"
       id="path1137" />
  </g>
  <g
     id="line2d_46">
    <path
       clip-path="url(#pc7b0ed9d6f)"
       d="m 326.69522,78.1632 87.4954,-55.220103"
       style="fill:none;stroke:#000000;stroke-width:1.5;stroke-dasharray:5.55, 2.4;stroke-dashoffset:0"
       id="path1140" />
  </g>
  <g
     id="line2d_47">
    <path
       clip-path="url(#pc7b0ed9d6f)"
       d="m 326.69522,113.6448 87.4954,-41.415077"
       style="fill:none;stroke:#000000;stroke-width:1.5;stroke-dasharray:5.55, 2.4;stroke-dashoffset:0"
       id="path1143" />
  </g>
  <g
     id="patch_3">
    <path
       d="M 67.967187,273.312 V 7.2"
       style="fill:none;stroke:#000000;stroke-width:0.8;stroke-linecap:square;stroke-linejoin:miter"
       id="path1146" />
  </g>
  <g
     id="patch_4">
    <path
       d="M 425.08719,273.312 V 7.2"
       style="fill:none;stroke:#000000;stroke-width:0.8;stroke-linecap:square;stroke-linejoin:miter"
       id="path1149" />
  </g>
  <g
     id="patch_5">
    <path
       d="M 67.967187,273.312 H 425.08719"
       style="fill:none;stroke:#000000;stroke-width:0.8;stroke-linecap:square;stroke-linejoin:miter"
       id="path1152" />
  </g>
  <g
     id="patch_6">
    <path
       d="M 67.967187,7.2 H 425.08719"
       style="fill:none;stroke:#000000;stroke-width:0.8;stroke-linecap:square;stroke-linejoin:miter"
       id="path1155" />
  </g>
  <defs
     id="defs1290">
    <clipPath
       id="pc7b0ed9d6f">
      <rect
         height="266.112"
         width="357.12"
         x="67.967187"
         y="7.2"
         id="rect1287" />
    </clipPath>
  </defs>
</svg>
