<?xml version="1.0" encoding="UTF-8" standalone="no"?>
<!-- Created with matplotlib (https://matplotlib.org/) -->

<svg
   height="320.579187pt"
   version="1.1"
   viewBox="0 0 432.287187 320.579187"
   width="432.287187pt"
   id="svg1245"
   sodipodi:docname="CompleteVarianceWithEinstein.svg"
   inkscape:version="1.2.2 (732a01da63, 2022-12-09, custom)"
   xmlns:inkscape="http://www.inkscape.org/namespaces/inkscape"
   xmlns:sodipodi="http://sodipodi.sourceforge.net/DTD/sodipodi-0.dtd"
   xmlns:xlink="http://www.w3.org/1999/xlink"
   xmlns="http://www.w3.org/2000/svg"
   xmlns:svg="http://www.w3.org/2000/svg"
   xmlns:rdf="http://www.w3.org/1999/02/22-rdf-syntax-ns#"
   xmlns:cc="http://creativecommons.org/ns#"
   xmlns:dc="http://purl.org/dc/elements/1.1/">
  <sodipodi:namedview
     id="namedview1247"
     pagecolor="#505050"
     bordercolor="#eeeeee"
     borderopacity="1"
     inkscape:showpageshadow="0"
     inkscape:pageopacity="0"
     inkscape:pagecheckerboard="0"
     inkscape:deskcolor="#505050"
     inkscape:document-units="pt"
     showgrid="false"
     inkscape:zoom="1.9979463"
     inkscape:cx="288.29604"
     inkscape:cy="213.96972"
     inkscape:window-width="1920"
     inkscape:window-height="1052"
     inkscape:window-x="1920"
     inkscape:window-y="0"
     inkscape:window-maximized="1"
     inkscape:current-layer="svg1245" />
  <metadata
     id="metadata702">
    <rdf:RDF>
      <cc:Work>
        <dc:type
           rdf:resource="http://purl.org/dc/dcmitype/StillImage" />
        <dc:date>2023-02-28T10:16:19.784905</dc:date>
        <dc:format>image/svg+xml</dc:format>
        <dc:creator>
          <cc:Agent>
            <dc:title>Matplotlib v3.3.4, https://matplotlib.org/</dc:title>
          </cc:Agent>
        </dc:creator>
      </cc:Work>
    </rdf:RDF>
  </metadata>
  <defs
     id="defs706">
    <style
       type="text/css"
       id="style704">*{stroke-linecap:butt;stroke-linejoin:round;}</style>
  </defs>
  <g
     id="patch_1">
    <path
       d="M 0,320.57919 H 432.28719 V 0 H 0 Z"
       style="fill:#ffffff"
       id="path708" />
  </g>
  <g
     id="patch_2">
    <path
       d="M 67.967187,273.312 H 425.08719 V 7.2 H 67.967187 Z"
       style="fill:#ffffff"
       id="path711" />
  </g>
  <g
     id="matplotlib.axis_1">
    <g
       id="xtick_1">
      <g
         id="line2d_1">
        <defs
           id="defs715">
          <path
             d="M 0,0 V 3.5"
             id="m48e6b2c791"
             style="stroke:#000000;stroke-width:0.8" />
        </defs>
        <g
           id="g719">
          <use
             style="stroke:#000000;stroke-width:0.8"
             x="101.81503"
             xlink:href="#m48e6b2c791"
             y="273.31201"
             id="use717" />
        </g>
      </g>
      <g
         id="text_1">
        <!-- $\mathdefault{10^{0}}$ -->
        <g
           transform="matrix(0.15,0,0,-0.15,88.615029,291.70966)"
           id="g732">
          <defs
             id="defs724">
            <path
               d="m 12.40625,8.296875 h 16.109375 v 55.625 L 10.984375,60.40625 v 8.984375 l 17.4375,3.515625 H 38.28125 V 8.296875 H 54.390625 V 0 H 12.40625 Z"
               id="DejaVuSans-49" />
            <path
               d="m 31.78125,66.40625 q -7.609375,0 -11.453125,-7.5 Q 16.5,51.421875 16.5,36.375 q 0,-14.984375 3.828125,-22.484375 3.84375,-7.5 11.453125,-7.5 7.671875,0 11.5,7.5 3.84375,7.5 3.84375,22.484375 0,15.046875 -3.84375,22.53125 -3.828125,7.5 -11.5,7.5 z m 0,7.8125 q 12.265625,0 18.734375,-9.703125 6.46875,-9.6875 6.46875,-28.140625 0,-18.40625 -6.46875,-28.109375 -6.46875,-9.6875 -18.734375,-9.6875 -12.25,0 -18.71875,9.6875 Q 6.59375,17.96875 6.59375,36.375 q 0,18.453125 6.46875,28.140625 6.46875,9.703125 18.71875,9.703125 z"
               id="DejaVuSans-48" />
          </defs>
          <use
             transform="translate(0,0.765625)"
             xlink:href="#DejaVuSans-49"
             id="use726" />
          <use
             transform="translate(63.623047,0.765625)"
             xlink:href="#DejaVuSans-48"
             id="use728" />
          <use
             transform="matrix(0.7,0,0,0.7,128.20312,39.046875)"
             xlink:href="#DejaVuSans-48"
             id="use730" />
        </g>
      </g>
    </g>
    <g
       id="xtick_2">
      <g
         id="line2d_2">
        <g
           id="g738">
          <use
             style="stroke:#000000;stroke-width:0.8"
             x="214.25513"
             xlink:href="#m48e6b2c791"
             y="273.31201"
             id="use736" />
        </g>
      </g>
      <g
         id="text_2">
        <!-- $\mathdefault{10^{1}}$ -->
        <g
           transform="matrix(0.15,0,0,-0.15,201.05512,291.70966)"
           id="g747">
          <use
             transform="translate(0,0.684375)"
             xlink:href="#DejaVuSans-49"
             id="use741" />
          <use
             transform="translate(63.623047,0.684375)"
             xlink:href="#DejaVuSans-48"
             id="use743" />
          <use
             transform="matrix(0.7,0,0,0.7,128.20312,38.965625)"
             xlink:href="#DejaVuSans-49"
             id="use745" />
        </g>
      </g>
    </g>
    <g
       id="xtick_3">
      <g
         id="line2d_3">
        <g
           id="g753">
          <use
             style="stroke:#000000;stroke-width:0.8"
             x="326.69522"
             xlink:href="#m48e6b2c791"
             y="273.31201"
             id="use751" />
        </g>
      </g>
      <g
         id="text_3">
        <!-- $\mathdefault{10^{2}}$ -->
        <g
           transform="matrix(0.15,0,0,-0.15,313.49522,291.70966)"
           id="g765">
          <defs
             id="defs757">
            <path
               d="M 19.1875,8.296875 H 53.609375 V 0 H 7.328125 v 8.296875 q 5.609375,5.8125 15.296875,15.59375 9.703125,9.796875 12.1875,12.640625 4.734375,5.3125 6.609375,9 1.890625,3.6875 1.890625,7.25 0,5.8125 -4.078125,9.46875 -4.078125,3.671875 -10.625,3.671875 -4.640625,0 -9.796875,-1.609375 -5.140625,-1.609375 -11,-4.890625 v 9.96875 Q 13.765625,71.78125 18.9375,73 q 5.1875,1.21875 9.484375,1.21875 11.328125,0 18.0625,-5.671875 6.734375,-5.65625 6.734375,-15.125 0,-4.5 -1.6875,-8.53125 Q 49.859375,40.875 45.40625,35.40625 44.1875,33.984375 37.640625,27.21875 31.109375,20.453125 19.1875,8.296875 Z"
               id="DejaVuSans-50" />
          </defs>
          <use
             transform="translate(0,0.765625)"
             xlink:href="#DejaVuSans-49"
             id="use759" />
          <use
             transform="translate(63.623047,0.765625)"
             xlink:href="#DejaVuSans-48"
             id="use761" />
          <use
             transform="matrix(0.7,0,0,0.7,128.20312,39.046875)"
             xlink:href="#DejaVuSans-50"
             id="use763" />
        </g>
      </g>
    </g>
    <g
       id="xtick_4">
      <g
         id="line2d_4">
        <defs
           id="defs770">
          <path
             d="M 0,0 V 2"
             id="m662018600d"
             style="stroke:#000000;stroke-width:0.6" />
        </defs>
        <g
           id="g774">
          <use
             style="stroke:#000000;stroke-width:0.6"
             x="67.967186"
             xlink:href="#m662018600d"
             y="273.31201"
             id="use772" />
        </g>
      </g>
    </g>
    <g
       id="xtick_5">
      <g
         id="line2d_5">
        <g
           id="g780">
          <use
             style="stroke:#000000;stroke-width:0.6"
             x="76.870331"
             xlink:href="#m662018600d"
             y="273.31201"
             id="use778" />
        </g>
      </g>
    </g>
    <g
       id="xtick_6">
      <g
         id="line2d_6">
        <g
           id="g786">
          <use
             style="stroke:#000000;stroke-width:0.6"
             x="84.397835"
             xlink:href="#m662018600d"
             y="273.31201"
             id="use784" />
        </g>
      </g>
    </g>
    <g
       id="xtick_7">
      <g
         id="line2d_7">
        <g
           id="g792">
          <use
             style="stroke:#000000;stroke-width:0.6"
             x="90.918457"
             xlink:href="#m662018600d"
             y="273.31201"
             id="use790" />
        </g>
      </g>
    </g>
    <g
       id="xtick_8">
      <g
         id="line2d_8">
        <g
           id="g798">
          <use
             style="stroke:#000000;stroke-width:0.6"
             x="96.670052"
             xlink:href="#m662018600d"
             y="273.31201"
             id="use796" />
        </g>
      </g>
    </g>
    <g
       id="xtick_9">
      <g
         id="line2d_9">
        <g
           id="g804">
          <use
             style="stroke:#000000;stroke-width:0.6"
             x="135.66287"
             xlink:href="#m662018600d"
             y="273.31201"
             id="use802" />
        </g>
      </g>
    </g>
    <g
       id="xtick_10">
      <g
         id="line2d_10">
        <g
           id="g810">
          <use
             style="stroke:#000000;stroke-width:0.6"
             x="155.46259"
             xlink:href="#m662018600d"
             y="273.31201"
             id="use808" />
        </g>
      </g>
    </g>
    <g
       id="xtick_11">
      <g
         id="line2d_11">
        <g
           id="g816">
          <use
             style="stroke:#000000;stroke-width:0.6"
             x="169.51071"
             xlink:href="#m662018600d"
             y="273.31201"
             id="use814" />
        </g>
      </g>
    </g>
    <g
       id="xtick_12">
      <g
         id="line2d_12">
        <g
           id="g822">
          <use
             style="stroke:#000000;stroke-width:0.6"
             x="180.40729"
             xlink:href="#m662018600d"
             y="273.31201"
             id="use820" />
        </g>
      </g>
    </g>
    <g
       id="xtick_13">
      <g
         id="line2d_13">
        <g
           id="g828">
          <use
             style="stroke:#000000;stroke-width:0.6"
             x="189.31042"
             xlink:href="#m662018600d"
             y="273.31201"
             id="use826" />
        </g>
      </g>
    </g>
    <g
       id="xtick_14">
      <g
         id="line2d_14">
        <g
           id="g834">
          <use
             style="stroke:#000000;stroke-width:0.6"
             x="196.83794"
             xlink:href="#m662018600d"
             y="273.31201"
             id="use832" />
        </g>
      </g>
    </g>
    <g
       id="xtick_15">
      <g
         id="line2d_15">
        <g
           id="g840">
          <use
             style="stroke:#000000;stroke-width:0.6"
             x="203.35855"
             xlink:href="#m662018600d"
             y="273.31201"
             id="use838" />
        </g>
      </g>
    </g>
    <g
       id="xtick_16">
      <g
         id="line2d_16">
        <g
           id="g846">
          <use
             style="stroke:#000000;stroke-width:0.6"
             x="209.11015"
             xlink:href="#m662018600d"
             y="273.31201"
             id="use844" />
        </g>
      </g>
    </g>
    <g
       id="xtick_17">
      <g
         id="line2d_17">
        <g
           id="g852">
          <use
             style="stroke:#000000;stroke-width:0.6"
             x="248.10297"
             xlink:href="#m662018600d"
             y="273.31201"
             id="use850" />
        </g>
      </g>
    </g>
    <g
       id="xtick_18">
      <g
         id="line2d_18">
        <g
           id="g858">
          <use
             style="stroke:#000000;stroke-width:0.6"
             x="267.90268"
             xlink:href="#m662018600d"
             y="273.31201"
             id="use856" />
        </g>
      </g>
    </g>
    <g
       id="xtick_19">
      <g
         id="line2d_19">
        <g
           id="g864">
          <use
             style="stroke:#000000;stroke-width:0.6"
             x="281.95081"
             xlink:href="#m662018600d"
             y="273.31201"
             id="use862" />
        </g>
      </g>
    </g>
    <g
       id="xtick_20">
      <g
         id="line2d_20">
        <g
           id="g870">
          <use
             style="stroke:#000000;stroke-width:0.6"
             x="292.84738"
             xlink:href="#m662018600d"
             y="273.31201"
             id="use868" />
        </g>
      </g>
    </g>
    <g
       id="xtick_21">
      <g
         id="line2d_21">
        <g
           id="g876">
          <use
             style="stroke:#000000;stroke-width:0.6"
             x="301.75052"
             xlink:href="#m662018600d"
             y="273.31201"
             id="use874" />
        </g>
      </g>
    </g>
    <g
       id="xtick_22">
      <g
         id="line2d_22">
        <g
           id="g882">
          <use
             style="stroke:#000000;stroke-width:0.6"
             x="309.27802"
             xlink:href="#m662018600d"
             y="273.31201"
             id="use880" />
        </g>
      </g>
    </g>
    <g
       id="xtick_23">
      <g
         id="line2d_23">
        <g
           id="g888">
          <use
             style="stroke:#000000;stroke-width:0.6"
             x="315.79865"
             xlink:href="#m662018600d"
             y="273.31201"
             id="use886" />
        </g>
      </g>
    </g>
    <g
       id="xtick_24">
      <g
         id="line2d_24">
        <g
           id="g894">
          <use
             style="stroke:#000000;stroke-width:0.6"
             x="321.55023"
             xlink:href="#m662018600d"
             y="273.31201"
             id="use892" />
        </g>
      </g>
    </g>
    <g
       id="xtick_25">
      <g
         id="line2d_25">
        <g
           id="g900">
          <use
             style="stroke:#000000;stroke-width:0.6"
             x="360.54306"
             xlink:href="#m662018600d"
             y="273.31201"
             id="use898" />
        </g>
      </g>
    </g>
    <g
       id="xtick_26">
      <g
         id="line2d_26">
        <g
           id="g906">
          <use
             style="stroke:#000000;stroke-width:0.6"
             x="380.34277"
             xlink:href="#m662018600d"
             y="273.31201"
             id="use904" />
        </g>
      </g>
    </g>
    <g
       id="xtick_27">
      <g
         id="line2d_27">
        <g
           id="g912">
          <use
             style="stroke:#000000;stroke-width:0.6"
             x="394.3909"
             xlink:href="#m662018600d"
             y="273.31201"
             id="use910" />
        </g>
      </g>
    </g>
    <g
       id="xtick_28">
      <g
         id="line2d_28">
        <g
           id="g918">
          <use
             style="stroke:#000000;stroke-width:0.6"
             x="405.28748"
             xlink:href="#m662018600d"
             y="273.31201"
             id="use916" />
        </g>
      </g>
    </g>
    <g
       id="xtick_29">
      <g
         id="line2d_29">
        <g
           id="g924">
          <use
             style="stroke:#000000;stroke-width:0.6"
             x="414.19061"
             xlink:href="#m662018600d"
             y="273.31201"
             id="use922" />
        </g>
      </g>
    </g>
    <g
       id="xtick_30">
      <g
         id="line2d_30">
        <g
           id="g930">
          <use
             style="stroke:#000000;stroke-width:0.6"
             x="421.71811"
             xlink:href="#m662018600d"
             y="273.31201"
             id="use928" />
        </g>
      </g>
    </g>
    <g
       id="text_4">
      <!-- $L / \log(N)$ -->
      <g
         transform="matrix(0.15,0,0,-0.15,216.90219,310.22919)"
         id="g960">
        <defs
           id="defs942">
          <path
             d="m 16.796875,72.90625 h 9.90625 l -12.5,-64.703125 h 35.5 L 48.09375,0 H 2.6875 Z"
             id="DejaVuSans-Oblique-76" />
          <path
             d="M 25.390625,72.90625 H 33.6875 L 8.296875,-9.28125 H 0 Z"
             id="DejaVuSans-47" />
          <path
             d="M 9.421875,75.984375 H 18.40625 V 0 H 9.421875 Z"
             id="DejaVuSans-108" />
          <path
             d="m 30.609375,48.390625 q -7.21875,0 -11.421875,-5.640625 -4.203125,-5.640625 -4.203125,-15.453125 0,-9.8125 4.171875,-15.453125 4.1875,-5.640625 11.453125,-5.640625 7.1875,0 11.375,5.65625 4.203125,5.671875 4.203125,15.4375 0,9.71875 -4.203125,15.40625 -4.1875,5.6875 -11.375,5.6875 z m 0,7.609375 q 11.71875,0 18.40625,-7.625 6.703125,-7.609375 6.703125,-21.078125 0,-13.421875 -6.703125,-21.078125 -6.6875,-7.640625 -18.40625,-7.640625 -11.765625,0 -18.4375,7.640625 -6.65625,7.65625 -6.65625,21.078125 0,13.46875 6.65625,21.078125 Q 18.84375,56 30.609375,56 Z"
             id="DejaVuSans-111" />
          <path
             d="m 45.40625,27.984375 q 0,9.765625 -4.03125,15.125 -4.015625,5.375 -11.296875,5.375 -7.21875,0 -11.25,-5.375 -4.03125,-5.359375 -4.03125,-15.125 0,-9.71875 4.03125,-15.09375 4.03125,-5.375 11.25,-5.375 7.28125,0 11.296875,5.375 4.03125,5.375 4.03125,15.09375 z M 54.390625,6.78125 q 0,-13.953125 -6.203125,-20.765625 -6.1875,-6.8125 -18.984375,-6.8125 -4.734375,0 -8.9375,0.703125 -4.203125,0.703125 -8.15625,2.171875 V -9.1875 q 3.953125,-2.140625 7.8125,-3.15625 3.859375,-1.03125 7.859375,-1.03125 8.84375,0 13.234375,4.609375 4.390625,4.609375 4.390625,13.9375 V 9.625 Q 42.625,4.78125 38.28125,2.390625 33.9375,0 27.875,0 17.828125,0 11.671875,7.65625 q -6.15625,7.671875 -6.15625,20.328125 0,12.6875 6.15625,20.34375 Q 17.828125,56 27.875,56 q 6.0625,0 10.40625,-2.390625 4.34375,-2.390625 7.125,-7.21875 V 54.6875 h 8.984375 z"
             id="DejaVuSans-103" />
          <path
             d="M 31,75.875 Q 24.46875,64.65625 21.28125,53.65625 18.109375,42.671875 18.109375,31.390625 18.109375,20.125 21.3125,9.0625 24.515625,-2 31,-13.1875 H 23.1875 Q 15.875,-1.703125 12.234375,9.375 8.59375,20.453125 8.59375,31.390625 q 0,10.890625 3.609375,21.921875 3.625,11.046875 10.984375,22.5625 z"
             id="DejaVuSans-40" />
          <path
             d="m 16.890625,72.90625 h 13.28125 l 20.125,-62.5 12.203125,62.5 h 9.625 L 57.90625,0 H 44.578125 L 24.515625,62.890625 12.3125,0 h -9.625 z"
             id="DejaVuSans-Oblique-78" />
          <path
             d="m 8.015625,75.875 h 7.8125 q 7.3125,-11.515625 10.953125,-22.5625 3.640625,-11.03125 3.640625,-21.921875 0,-10.9375 -3.640625,-22.015625 -3.640625,-11.078125 -10.953125,-22.5625 h -7.8125 Q 14.5,-2 17.703125,9.0625 20.90625,20.125 20.90625,31.390625 q 0,11.28125 -3.203125,22.265625 -3.203125,11 -9.6875,22.21875 z"
             id="DejaVuSans-41" />
        </defs>
        <use
           transform="translate(0,0.015625)"
           xlink:href="#DejaVuSans-Oblique-76"
           id="use944" />
        <use
           transform="translate(55.712891,0.015625)"
           xlink:href="#DejaVuSans-47"
           id="use946" />
        <use
           transform="translate(89.404297,0.015625)"
           xlink:href="#DejaVuSans-108"
           id="use948" />
        <use
           transform="translate(117.1875,0.015625)"
           xlink:href="#DejaVuSans-111"
           id="use950" />
        <use
           transform="translate(178.36914,0.015625)"
           xlink:href="#DejaVuSans-103"
           id="use952" />
        <use
           transform="translate(241.8457,0.015625)"
           xlink:href="#DejaVuSans-40"
           id="use954" />
        <use
           transform="translate(280.85937,0.015625)"
           xlink:href="#DejaVuSans-Oblique-78"
           id="use956" />
        <use
           transform="translate(355.66406,0.015625)"
           xlink:href="#DejaVuSans-41"
           id="use958" />
      </g>
    </g>
  </g>
  <g
     id="matplotlib.axis_2">
    <g
       id="ytick_1">
      <g
         id="line2d_31">
        <defs
           id="defs965">
          <path
             d="M 0,0 H -3.5"
             id="m1775ba8b8d"
             style="stroke:#000000;stroke-width:0.8" />
        </defs>
        <g
           id="g969">
          <use
             style="stroke:#000000;stroke-width:0.8"
             x="67.967186"
             xlink:href="#m1775ba8b8d"
             y="273.31201"
             id="use967" />
        </g>
      </g>
      <g
         id="text_5">
        <!-- $\mathdefault{10^{-3}}$ -->
        <g
           transform="matrix(0.15,0,0,-0.15,25.717187,279.01083)"
           id="g984">
          <defs
             id="defs974">
            <path
               d="M 10.59375,35.5 H 73.1875 V 27.203125 H 10.59375 Z"
               id="DejaVuSans-8722" />
            <path
               d="M 40.578125,39.3125 Q 47.65625,37.796875 51.625,33 q 3.984375,-4.78125 3.984375,-11.8125 0,-10.78125 -7.421875,-16.703125 -7.421875,-5.90625 -21.09375,-5.90625 -4.578125,0 -9.4375,0.90625 -4.859375,0.90625 -10.03125,2.71875 v 9.515625 q 4.09375,-2.390625 8.96875,-3.609375 4.890625,-1.21875 10.21875,-1.21875 9.265625,0 14.125,3.65625 4.859375,3.65625 4.859375,10.640625 0,6.453125 -4.515625,10.078125 -4.515625,3.640625 -12.5625,3.640625 h -8.5 v 8.109375 h 8.890625 q 7.265625,0 11.125,2.90625 3.859375,2.90625 3.859375,8.375 0,5.609375 -3.984375,8.609375 -3.96875,3.015625 -11.390625,3.015625 -4.0625,0 -8.703125,-0.890625 Q 15.375,64.15625 9.8125,62.3125 v 8.78125 q 5.625,1.5625 10.53125,2.34375 4.90625,0.78125 9.25,0.78125 11.234375,0 17.765625,-5.109375 6.546875,-5.09375 6.546875,-13.78125 0,-6.0625 -3.46875,-10.234375 -3.46875,-4.171875 -9.859375,-5.78125 z"
               id="DejaVuSans-51" />
          </defs>
          <use
             transform="translate(0,0.765625)"
             xlink:href="#DejaVuSans-49"
             id="use976" />
          <use
             transform="translate(63.623047,0.765625)"
             xlink:href="#DejaVuSans-48"
             id="use978" />
          <use
             transform="matrix(0.7,0,0,0.7,128.20312,39.046875)"
             xlink:href="#DejaVuSans-8722"
             id="use980" />
          <use
             transform="matrix(0.7,0,0,0.7,186.85547,39.046875)"
             xlink:href="#DejaVuSans-51"
             id="use982" />
        </g>
      </g>
    </g>
    <g
       id="ytick_2">
      <g
         id="line2d_32">
        <g
           id="g990">
          <use
             style="stroke:#000000;stroke-width:0.8"
             x="67.967186"
             xlink:href="#m1775ba8b8d"
             y="237.8304"
             id="use988" />
        </g>
      </g>
      <g
         id="text_6">
        <!-- $\mathdefault{10^{-1}}$ -->
        <g
           transform="matrix(0.15,0,0,-0.15,25.717187,243.52923)"
           id="g1001">
          <use
             transform="translate(0,0.684375)"
             xlink:href="#DejaVuSans-49"
             id="use993" />
          <use
             transform="translate(63.623047,0.684375)"
             xlink:href="#DejaVuSans-48"
             id="use995" />
          <use
             transform="matrix(0.7,0,0,0.7,128.20312,38.965625)"
             xlink:href="#DejaVuSans-8722"
             id="use997" />
          <use
             transform="matrix(0.7,0,0,0.7,186.85547,38.965625)"
             xlink:href="#DejaVuSans-49"
             id="use999" />
        </g>
      </g>
    </g>
    <g
       id="ytick_3">
      <g
         id="line2d_33">
        <g
           id="g1007">
          <use
             style="stroke:#000000;stroke-width:0.8"
             x="67.967186"
             xlink:href="#m1775ba8b8d"
             y="202.3488"
             id="use1005" />
        </g>
      </g>
      <g
         id="text_7">
        <!-- $\mathdefault{10^{1}}$ -->
        <g
           transform="matrix(0.15,0,0,-0.15,34.567187,208.04763)"
           id="g1016">
          <use
             transform="translate(0,0.684375)"
             xlink:href="#DejaVuSans-49"
             id="use1010" />
          <use
             transform="translate(63.623047,0.684375)"
             xlink:href="#DejaVuSans-48"
             id="use1012" />
          <use
             transform="matrix(0.7,0,0,0.7,128.20312,38.965625)"
             xlink:href="#DejaVuSans-49"
             id="use1014" />
        </g>
      </g>
    </g>
    <g
       id="ytick_4">
      <g
         id="line2d_34">
        <g
           id="g1022">
          <use
             style="stroke:#000000;stroke-width:0.8"
             x="67.967186"
             xlink:href="#m1775ba8b8d"
             y="166.8672"
             id="use1020" />
        </g>
      </g>
      <g
         id="text_8">
        <!-- $\mathdefault{10^{3}}$ -->
        <g
           transform="matrix(0.15,0,0,-0.15,34.567187,172.56603)"
           id="g1031">
          <use
             transform="translate(0,0.765625)"
             xlink:href="#DejaVuSans-49"
             id="use1025" />
          <use
             transform="translate(63.623047,0.765625)"
             xlink:href="#DejaVuSans-48"
             id="use1027" />
          <use
             transform="matrix(0.7,0,0,0.7,128.20312,39.046875)"
             xlink:href="#DejaVuSans-51"
             id="use1029" />
        </g>
      </g>
    </g>
    <g
       id="ytick_5">
      <g
         id="line2d_35">
        <g
           id="g1037">
          <use
             style="stroke:#000000;stroke-width:0.8"
             x="67.967186"
             xlink:href="#m1775ba8b8d"
             y="131.3856"
             id="use1035" />
        </g>
      </g>
      <g
         id="text_9">
        <!-- $\mathdefault{10^{5}}$ -->
        <g
           transform="matrix(0.15,0,0,-0.15,34.567187,137.08443)"
           id="g1049">
          <defs
             id="defs1041">
            <path
               d="m 10.796875,72.90625 h 38.71875 v -8.3125 h -29.6875 V 46.734375 q 2.140625,0.734375 4.28125,1.09375 2.15625,0.359375 4.3125,0.359375 Q 40.625,48.1875 47.75,41.5 54.890625,34.8125 54.890625,23.390625 54.890625,11.625 47.5625,5.09375 40.234375,-1.421875 26.90625,-1.421875 q -4.59375,0 -9.359375,0.78125 -4.75,0.78125 -9.828125,2.34375 V 11.625 q 4.390625,-2.390625 9.078125,-3.5625 4.6875,-1.171875 9.90625,-1.171875 8.453125,0 13.375,4.4375 4.9375,4.4375 4.9375,12.0625 0,7.609375 -4.9375,12.046875 -4.921875,4.453125 -13.375,4.453125 -3.953125,0 -7.890625,-0.875 -3.921875,-0.875 -8.015625,-2.734375 z"
               id="DejaVuSans-53" />
          </defs>
          <use
             transform="translate(0,0.684375)"
             xlink:href="#DejaVuSans-49"
             id="use1043" />
          <use
             transform="translate(63.623047,0.684375)"
             xlink:href="#DejaVuSans-48"
             id="use1045" />
          <use
             transform="matrix(0.7,0,0,0.7,128.20312,38.965625)"
             xlink:href="#DejaVuSans-53"
             id="use1047" />
        </g>
      </g>
    </g>
    <g
       id="ytick_6">
      <g
         id="line2d_36">
        <g
           id="g1055">
          <use
             style="stroke:#000000;stroke-width:0.8"
             x="67.967186"
             xlink:href="#m1775ba8b8d"
             y="95.903999"
             id="use1053" />
        </g>
      </g>
      <g
         id="text_10">
        <!-- $\mathdefault{10^{7}}$ -->
        <g
           transform="matrix(0.15,0,0,-0.15,34.567187,101.60283)"
           id="g1067">
          <defs
             id="defs1059">
            <path
               d="m 8.203125,72.90625 h 46.875 V 68.703125 L 28.609375,0 H 18.3125 L 43.21875,64.59375 H 8.203125 Z"
               id="DejaVuSans-55" />
          </defs>
          <use
             transform="translate(0,0.684375)"
             xlink:href="#DejaVuSans-49"
             id="use1061" />
          <use
             transform="translate(63.623047,0.684375)"
             xlink:href="#DejaVuSans-48"
             id="use1063" />
          <use
             transform="matrix(0.7,0,0,0.7,128.20312,38.965625)"
             xlink:href="#DejaVuSans-55"
             id="use1065" />
        </g>
      </g>
    </g>
    <g
       id="ytick_7">
      <g
         id="line2d_37">
        <g
           id="g1073">
          <use
             style="stroke:#000000;stroke-width:0.8"
             x="67.967186"
             xlink:href="#m1775ba8b8d"
             y="60.422401"
             id="use1071" />
        </g>
      </g>
      <g
         id="text_11">
        <!-- $\mathdefault{10^{9}}$ -->
        <g
           transform="matrix(0.15,0,0,-0.15,34.567187,66.121228)"
           id="g1085">
          <defs
             id="defs1077">
            <path
               d="M 10.984375,1.515625 V 10.5 Q 14.703125,8.734375 18.5,7.8125 q 3.8125,-0.921875 7.484375,-0.921875 9.765625,0 14.90625,6.5625 5.15625,6.5625 5.890625,19.953125 -2.828125,-4.203125 -7.1875,-6.453125 -4.34375,-2.25 -9.609375,-2.25 -10.9375,0 -17.3125,6.609375 -6.375,6.625 -6.375,18.109375 0,11.21875 6.640625,18 6.640625,6.796875 17.671875,6.796875 12.65625,0 19.3125,-9.703125 6.671875,-9.6875 6.671875,-28.140625 0,-17.234375 -8.1875,-27.515625 -8.171875,-10.28125 -21.984375,-10.28125 -3.71875,0 -7.53125,0.734375 -3.796875,0.734375 -7.90625,2.203125 z m 19.625,30.90625 q 6.640625,0 10.515625,4.53125 3.890625,4.546875 3.890625,12.46875 0,7.859375 -3.890625,12.421875 -3.875,4.5625 -10.515625,4.5625 -6.640625,0 -10.515625,-4.5625 -3.875,-4.5625 -3.875,-12.421875 0,-7.921875 3.875,-12.46875 3.875,-4.53125 10.515625,-4.53125 z"
               id="DejaVuSans-57" />
          </defs>
          <use
             transform="translate(0,0.765625)"
             xlink:href="#DejaVuSans-49"
             id="use1079" />
          <use
             transform="translate(63.623047,0.765625)"
             xlink:href="#DejaVuSans-48"
             id="use1081" />
          <use
             transform="matrix(0.7,0,0,0.7,128.20312,39.046875)"
             xlink:href="#DejaVuSans-57"
             id="use1083" />
        </g>
      </g>
    </g>
    <g
       id="ytick_8">
      <g
         id="line2d_38">
        <g
           id="g1091">
          <use
             style="stroke:#000000;stroke-width:0.8"
             x="67.967186"
             xlink:href="#m1775ba8b8d"
             y="24.9408"
             id="use1089" />
        </g>
      </g>
      <g
         id="text_12">
        <!-- $\mathdefault{10^{11}}$ -->
        <g
           transform="matrix(0.15,0,0,-0.15,27.817187,30.639628)"
           id="g1102">
          <use
             transform="translate(0,0.684375)"
             xlink:href="#DejaVuSans-49"
             id="use1094" />
          <use
             transform="translate(63.623047,0.684375)"
             xlink:href="#DejaVuSans-48"
             id="use1096" />
          <use
             transform="matrix(0.7,0,0,0.7,128.20312,38.965625)"
             xlink:href="#DejaVuSans-49"
             id="use1098" />
          <use
             transform="matrix(0.7,0,0,0.7,172.73926,38.965625)"
             xlink:href="#DejaVuSans-49"
             id="use1100" />
        </g>
      </g>
    </g>
    <g
       id="text_13">
      <!-- $\mathrm{Variance}$ -->
      <g
         transform="matrix(0,-0.15,-0.15,0,18.597656,173.256)"
         id="g1131">
        <defs
           id="defs1113">
          <path
             d="M 28.609375,0 0.78125,72.90625 h 10.296875 l 23.109375,-61.375 23.140625,61.375 h 10.25 L 39.796875,0 Z"
             id="DejaVuSans-86" />
          <path
             d="m 34.28125,27.484375 q -10.890625,0 -15.09375,-2.484375 -4.203125,-2.484375 -4.203125,-8.5 0,-4.78125 3.15625,-7.59375 3.15625,-2.796875 8.5625,-2.796875 7.484375,0 12,5.296875 4.515625,5.296875 4.515625,14.078125 v 2 z m 17.921875,3.71875 V 0 H 43.21875 v 8.296875 q -3.078125,-4.96875 -7.671875,-7.34375 -4.59375,-2.375 -11.234375,-2.375 -8.390625,0 -13.359375,4.71875 Q 6,8.015625 6,15.921875 q 0,9.21875 6.171875,13.90625 6.1875,4.6875 18.4375,4.6875 H 43.21875 v 0.890625 q 0,6.203125 -4.078125,9.59375 -4.078125,3.390625 -11.453125,3.390625 -4.6875,0 -9.140625,-1.125 -4.4375,-1.125 -8.53125,-3.375 v 8.3125 q 4.921875,1.90625 9.5625,2.84375 Q 24.21875,56 28.609375,56 q 11.875,0 17.734375,-6.15625 5.859375,-6.140625 5.859375,-18.640625 z"
             id="DejaVuSans-97" />
          <path
             d="m 41.109375,46.296875 q -1.515625,0.875 -3.296875,1.28125 Q 36.03125,48 33.890625,48 26.265625,48 22.1875,43.046875 18.109375,38.09375 18.109375,28.8125 V 0 h -9.03125 v 54.6875 h 9.03125 v -8.5 q 2.84375,4.984375 7.375,7.390625 Q 30.03125,56 36.53125,56 q 0.921875,0 2.046875,-0.125 1.125,-0.109375 2.484375,-0.359375 z"
             id="DejaVuSans-114" />
          <path
             d="M 9.421875,54.6875 H 18.40625 V 0 H 9.421875 Z m 0,21.296875 H 18.40625 V 64.59375 H 9.421875 Z"
             id="DejaVuSans-105" />
          <path
             d="M 54.890625,33.015625 V 0 H 45.90625 v 32.71875 q 0,7.765625 -3.03125,11.609375 -3.03125,3.859375 -9.078125,3.859375 -7.28125,0 -11.484375,-4.640625 -4.203125,-4.625 -4.203125,-12.640625 V 0 h -9.03125 v 54.6875 h 9.03125 v -8.5 q 3.234375,4.9375 7.59375,7.375 4.375,2.4375 10.09375,2.4375 9.421875,0 14.25,-5.828125 4.84375,-5.828125 4.84375,-17.15625 z"
             id="DejaVuSans-110" />
          <path
             d="M 48.78125,52.59375 V 44.1875 q -3.8125,2.109375 -7.640625,3.15625 -3.828125,1.046875 -7.734375,1.046875 -8.75,0 -13.59375,-5.546875 -4.828125,-5.53125 -4.828125,-15.546875 0,-10.015625 4.828125,-15.5625 4.84375,-5.53125 13.59375,-5.53125 3.90625,0 7.734375,1.046875 3.828125,1.046875 7.640625,3.15625 v -8.3125 q -3.765625,-1.75 -7.796875,-2.625 -4.015625,-0.890625 -8.5625,-0.890625 -12.359375,0 -19.640625,7.765625 -7.265625,7.765625 -7.265625,20.953125 0,13.375 7.34375,21.03125 Q 20.21875,56 33.015625,56 q 4.140625,0 8.09375,-0.859375 3.953125,-0.84375 7.671875,-2.546875 z"
             id="DejaVuSans-99" />
          <path
             d="m 56.203125,29.59375 v -4.390625 h -41.3125 q 0.59375,-9.28125 5.59375,-14.140625 5,-4.859375 13.9375,-4.859375 5.171875,0 10.03125,1.265625 4.859375,1.265625 9.65625,3.8125 v -8.5 q -4.84375,-2.046875 -9.921875,-3.125 -5.078125,-1.078125 -10.296875,-1.078125 -13.09375,0 -20.734375,7.609375 -7.640625,7.625 -7.640625,20.625 0,13.421875 7.25,21.296875 Q 20.015625,56 32.328125,56 q 11.03125,0 17.453125,-7.109375 6.421875,-7.09375 6.421875,-19.296875 z m -8.984375,2.640625 q -0.09375,7.359375 -4.125,11.75 -4.03125,4.40625 -10.671875,4.40625 -7.515625,0 -12.03125,-4.25 -4.515625,-4.25 -5.203125,-11.96875 z"
             id="DejaVuSans-101" />
        </defs>
        <use
           transform="translate(0,0.015625)"
           xlink:href="#DejaVuSans-86"
           id="use1115" />
        <use
           transform="translate(68.408203,0.015625)"
           xlink:href="#DejaVuSans-97"
           id="use1117" />
        <use
           transform="translate(129.6875,0.015625)"
           xlink:href="#DejaVuSans-114"
           id="use1119" />
        <use
           transform="translate(170.80078,0.015625)"
           xlink:href="#DejaVuSans-105"
           id="use1121" />
        <use
           transform="translate(198.58398,0.015625)"
           xlink:href="#DejaVuSans-97"
           id="use1123" />
        <use
           transform="translate(259.86328,0.015625)"
           xlink:href="#DejaVuSans-110"
           id="use1125" />
        <use
           transform="translate(323.24219,0.015625)"
           xlink:href="#DejaVuSans-99"
           id="use1127" />
        <use
           transform="translate(378.22266,0.015625)"
           xlink:href="#DejaVuSans-101"
           id="use1129" />
      </g>
    </g>
  </g>
  <g
     id="line2d_39">
    <path
       clip-path="url(#p4551da0602)"
       d="m 81.854463,321.57919 1.672934,-41.88488 2.50476,-18.66476 2.382526,-3.79785 2.271671,-4.61629 2.170674,-4.8654 2.078275,-3.43657 1.993425,-2.19637 1.91523,-5.01809 5.332432,-6.94112 1.65548,-1.15317 1.6012,-2.28178 1.55036,-0.89212 2.96043,-3.1269 1.41552,-0.87778 1.37564,-1.63519 2.64022,-1.58642 1.26844,-1.15612 1.23632,-0.72583 1.20579,-1.44069 1.17673,-0.55931 1.14905,-1.3284 1.12262,-0.37879 2.17068,-1.51673 3.08516,-2.38406 0.98654,-0.40151 0.967,-0.56566 0.94823,-0.98128 1.84294,-1.13784 0.89603,-0.89707 1.74419,-1.15464 0.84927,-0.24303 0.83476,-0.91484 1.62789,-0.92117 0.79403,-0.75374 0.78133,-0.26298 1.52613,-0.83749 0.74554,-0.75838 0.73433,-0.0416 1.43635,-1.27443 0.70263,-0.62722 1.37564,-0.5536 0.67356,-0.80889 0.66439,-0.33095 0.65548,-0.13982 0.64679,-0.75242 0.63834,-0.56866 0.6301,-0.0972 1.23632,-0.84122 0.60662,-0.24948 1.19108,-0.89035 0.58483,-0.29282 0.5779,-0.68306 0.57114,-0.0179 1.12263,-0.57881 0.55178,-0.42742 1.0852,-0.64037 1.06161,-0.7962 0.52227,-0.2413 0.51675,-0.67496 0.51134,-0.47892 1.00688,-0.15015 2.42996,-1.76076 0.93911,-0.3562 1.82571,-1.44871 1.32584,-0.52961 0.86431,-0.80204 0.42648,-0.11841 0.84195,-0.42482 0.4156,-0.44185 0.82073,-0.55164 0.80716,-0.19222 1.96139,-1.51694 0.76302,-0.29086 0.37708,-0.34558 1.47987,-0.68639 0.72346,-0.64922 1.41552,-0.83794 0.69267,-0.55392 0.68297,-0.34124 0.67356,-0.57203 0.66439,-0.27812 0.65548,-0.6088 0.64679,-0.23065 1.89051,-1.17877 0.61425,-0.54768 1.50264,-0.75381 1.74419,-1.06803 0.84928,-0.38444 0.55809,-0.72476 0.82535,-0.30156 0.54258,-0.42258 0.80274,-0.37198 0.52792,-0.43689 1.29536,-0.7744 1.51039,-1.10661 0.49326,-0.0666 1.45056,-1.10446 1.40872,-0.74903 3.35364,-2.22304 1.90691,-1.07261 2.03497,-1.29199 1.37564,-0.76402 0.57791,-0.50395 0.76004,-0.25858 0.56238,-0.50371 1.28755,-0.75686 0.72078,-0.5449 0.7103,-0.27752 1.39033,-0.99934 0.51133,-0.43945 0.67356,-0.22749 15.48992,-9.76384 0.60511,-0.45584 1.30544,-0.68007 0.69761,-0.53309 0.68779,-0.33691 0.67823,-0.46071 0.66894,-0.31169 1.95355,-1.37636 1.98066,-1.17052 6.04583,-3.80994 1.33551,-0.8127 1.29995,-0.82248 3.38617,-2.13942 1.33795,-0.82612 0.61716,-0.32742 0.68511,-0.53269 2.71972,-1.63813 1.27027,-0.74704 2.04634,-1.3759 0.66349,-0.35247 0.6546,-0.47508 0.64593,-0.30806 1.32928,-0.98497 1.35483,-0.71891 0.66357,-0.49217 1.35899,-0.75987 1.3222,-0.93226 2.64917,-1.63421 30.02194,-18.87573 1.34658,-0.885239 1.99343,-1.206383 1.99342,-1.303006 2.0153,-1.238384 12.67319,-7.987211 1.33118,-0.873161 3.33529,-2.048735 2.65957,-1.681086 4.67984,-2.964561 2.65529,-1.6405 2.66726,-1.740214 2.01289,-1.232424 1.9955,-1.235391 18.67004,-11.780837 3.33337,-2.135259 6.00402,-3.766453 4.66185,-2.968173 2.00593,-1.257965 3.33069,-2.081982 2.66519,-1.699411 3.33801,-2.089735 16.00107,-10.103061 9.3355,-5.873664 8.00036,-5.089597 2.66751,-1.642817 0.6656,-0.435012 v 0"
       style="fill:none;stroke:#2ca02c;stroke-width:1.5;stroke-linecap:square;stroke-opacity:0.75"
       id="path1135" />
  </g>
  <g
     id="line2d_40">
    <path
       clip-path="url(#p4551da0602)"
       d="m 117.37181,321.57919 0.003,-46.54639 1.26844,-36.70071 1.23632,-13.2941 1.20579,-4.58444 1.17673,-0.20125 1.14905,-0.38548 1.12262,-2.10201 2.17068,-1.86542 1.05019,-1.25319 1.02808,-0.34003 1.00689,-1.18633 0.98654,-0.55127 0.967,-1.04797 0.94823,-0.77276 0.93016,-0.90351 0.91278,-0.58812 1.77591,-1.59188 0.86431,-0.5341 2.50475,-1.85593 1.6012,-0.95206 0.78133,-0.82238 0.76903,-0.37742 0.7571,-0.68622 0.74554,-0.24259 2.17068,-1.46625 2.07827,-1.95784 3.27856,-2.13728 2.47304,-1.59613 0.59917,-0.3402 0.59191,-0.52572 1.16273,-0.6285 1.13568,-0.76927 0.55809,-0.30794 0.55178,-0.62691 1.61889,-1.12116 1.56694,-1.0765 1.01737,-0.87042 0.50085,-0.40502 0.98654,-0.45769 0.48589,-0.40897 0.48111,-0.11486 0.94823,-0.8353 0.93016,-0.53349 0.45852,-0.26807 0.45426,0.01 1.33795,-0.87606 0.43796,-0.48908 1.29079,-0.82835 0.84195,-0.72385 1.64157,-1.1951 1.58818,-0.62503 0.3891,-0.29213 0.38603,-0.11544 2.25419,-1.55859 0.36578,-0.0982 0.72346,-0.65042 0.71289,-0.64973 0.70263,-0.37714 0.34756,-0.39787 0.34511,-0.20816 0.68297,-0.58627 0.33794,-0.12212 0.66895,-0.56766 0.6599,-0.32751 2.24187,-1.29665 0.31202,-0.3334 0.31005,-0.0348 0.9185,-0.71865 0.30237,-0.10863 0.3005,-0.29847 0.59552,-0.22168 0.29506,-0.25935 0.29329,-0.0377 0.29154,-0.28119 0.2898,-0.0688 0.5745,-0.50674 0.56783,-0.34349 0.83954,-0.80092 1.09739,-0.64964 3.15156,-1.70412 1.74865,-1.3448 1.21177,-0.61081 0.47642,-0.1452 0.47181,-0.12294 0.23421,-0.0481 0.92575,-0.60134 0.22873,-0.1123 0.6798,-0.81757 1.55036,-1.17084 0.43407,-0.13831 0.21559,-0.27215 0.21465,-0.064 0.21371,-0.31802 0.63556,-0.35707 0.21003,-0.32289 1.6485,-0.80854 1.00275,-0.73295 1.75464,-1.06833 0.3815,-0.44295 0.37854,-0.0231 0.7484,-0.58778 0.55387,-0.20627 0.36579,-0.21281 0.18187,-0.22566 0.18119,-0.007 0.18053,-0.18962 0.17986,-0.0103 0.35774,-0.38949 0.1779,-4.1e-4 1.05397,-0.63577 0.17347,-0.0973 0.34511,-0.38136 0.34268,-0.32202 0.50956,-0.36891 0.16867,-0.003 0.33562,-0.27628 1.96666,-1.28439 0.47953,-0.41565 0.63214,-0.42631 0.31303,-0.2014 0.15577,0.047 0.31004,-0.23207 0.76661,-0.55752 0.30331,-0.0867 0.45145,-0.37724 0.14957,0.0195 0.44596,-0.3847 0.87988,-0.52739 0.2898,-0.12343 0.5745,-0.47587 0.14258,0.0642 0.28391,-0.29597 0.28227,-0.19164 0.69861,-0.49162 0.41442,-0.0292 0.81843,-0.93746 0.40413,-0.0874 0.40081,-0.2542 0.39755,-0.14432 0.39434,-0.11935 1.29193,-1.01637 0.38101,-0.38476 0.25236,-0.0108 0.74936,-0.58478 0.24725,-0.12765 0.36855,0.0239 0.36578,-0.36104 0.24235,-0.14487 0.95752,-0.67955 0.23648,0.0217 0.46954,-0.3133 0.92575,-0.55099 0.45638,-0.002 0.11343,-0.0283 0.22608,-0.22848 0.56065,-0.38759 0.33332,-0.21864 0.33107,-0.29631 0.21947,-0.0163 0.65256,-0.58699 0.21559,-0.0698 0.21465,-0.20327 0.32021,-0.086 1.05246,-0.8072 0.20779,0.07 1.12734,-0.92419 0.20221,-0.11387 0.70119,-0.48277 0.1985,-0.0292 1.75114,-1.09275 0.75857,-0.60824 0.28146,-0.0848 1.47429,-0.59434 0.27154,-0.26137 0.44924,-0.24056 0.88627,-0.76074 0.26277,-0.20504 0.34818,-0.10436 0.17317,-0.22451 0.17255,-0.0713 0.42873,-0.32474 0.0853,0.0302 0.42426,-0.41369 0.16867,0.0464 0.1681,-0.0406 0.83191,-0.56357 0.24684,-0.0473 0.16387,-0.14222 0.56924,-0.41807 0.16142,-0.0794 0.1609,-0.25598 0.24036,-0.0597 0.39798,-0.36375 1.32938,-0.93635 0.0771,-0.005 0.1538,-0.0831 1.36285,-0.98169 0.1491,0.10176 1.46654,-1.00396 0.14427,-0.0168 0.50158,-0.48251 0.14236,-0.0198 0.14196,-0.009 0.21216,-0.12267 0.21124,-0.29847 0.0702,0.055 0.6274,-0.55047 0.34511,-0.008 0.2059,-0.0779 0.68012,-0.33025 0.26942,-0.20835 0.53442,-0.37007 0.26503,-0.20632 0.19784,-0.16944 0.58874,-0.33822 0.38858,-0.21679 0.19314,-0.14791 0.25634,-0.23444 0.19137,-0.13828 0.25401,-0.16749 0.18964,-0.11215 0.81336,-0.62599 0.18579,-0.0833 0.24663,-0.0627 1.09466,-0.67708 0.18009,-0.16259 0.0599,0.043 1.6475,-1.03692 0.23089,-0.27468 0.34429,-0.27621 0.28507,-0.11122 0.62135,-0.34438 1.38344,-0.87722 0.21776,-0.17867 1.2336,-0.81435 0.0529,0.0641 0.15846,-0.12334 0.36775,-0.13191 0.83032,-0.47052 0.10281,0.0345 0.25607,-0.14688 0.10205,0.0368 0.2542,-0.31773 0.0507,-0.003 0.303,-0.28746 0.10058,-0.0371 0.20054,-0.16266 0.19972,-0.0531 0.39701,-0.3869 0.49177,-0.25509 1.25589,-0.70702 0.19038,-0.14584 0.33139,-0.15138 0.79556,-0.83687 0.13905,-0.1196 0.1848,0.0777 0.27589,-0.14995 0.45637,-0.47157 0.2718,-0.0494 0.49439,-0.29596 0.13397,7.6e-4 0.17806,-0.12508 0.39827,-0.30243 1.60404,-0.98594 0.21277,-0.0789 0.25412,-0.15811 0.21075,-0.20988 0.0421,0.034 0.54328,-0.3275 0.20735,-0.13309 0.61684,-0.42872 0.24457,-0.23904 0.48549,-0.23794 0.24095,-0.30263 0.15997,-0.10302 0.43725,-0.39676 0.19746,-0.087 0.35343,-0.15084 0.38972,-0.3936 0.19371,-0.0144 1.14634,-0.88721 0.26365,-10e-4 0.18746,-0.14078 0.14945,0.0119 0.26044,-0.19931 0.1482,0.0549 0.33181,-0.31821 0.43895,-0.10473 0.36279,-0.2383 0.10832,-0.0228 0.99952,-0.6409 0.21155,-0.28151 0.21063,-0.0773 0.2446,-0.17468 0.55452,-0.44591 0.78626,-0.47752 0.27054,-0.0957 0.26904,-0.0763 0.40082,-0.35771 0.39755,-0.19437 0.26324,-0.11276 0.26184,-0.0865 0.68071,-0.51011 0.25684,-0.24001 0.2555,-0.0865 0.22247,-0.0587 0.0634,0.0105 0.25269,-0.26195 0.22003,-0.0585 0.25027,-0.2438 0.4658,-0.32689 0.12347,0.009 0.27668,-0.27735 0.27511,-0.13057 0.27357,-0.0233 0.18153,-0.21672 0.0604,0.005 0.21068,-0.14186 0.20977,-0.008 0.17909,-0.1362 0.6217,-0.48566 0.32252,-0.24085 0.2623,-0.1058 1.26248,-0.725777 0.47916,-0.464157 0.91693,-0.648639 0.21972,-0.12299 0.19144,-0.224884 0.2722,-0.06849 0.13553,0.04199 0.32375,-0.274972 0.4017,-0.32322 0.18633,-0.174387 0.13266,-0.08841 0.29059,-0.239129 0.31504,-0.190137 0.13068,-0.01336 0.46754,-0.295246 0.28353,-0.140856 0.38401,-0.489175 0.4063,-0.113178 0.27738,-0.159313 0.12557,-0.0098 0.12524,-0.02376 0.27441,-0.277375 0.27287,-0.154275 0.24676,-0.198516 0.14745,-0.03295 1.11594,-0.878264 0.14369,-0.078 0.33365,-0.198981 0.1423,-0.18537 0.0473,0.07445 0.14175,0.05032 0.46954,-0.436218 0.99449,-0.740016 1.13147,-0.495359 0.33439,-0.04683 0.19954,-0.216104 0.46245,-0.383968 0.67476,-0.337166 0.38756,-0.290263 0.21398,-0.137533 0.31924,-0.271373 0.54844,-0.501619 0.25107,-0.02569 1.33795,-0.933777 1.40102,-0.485255 0.1969,-0.235223 0.0785,0.09294 0.0588,-0.05478 0.27357,-0.246009 0.13621,-0.03351 1.11424,-0.698737 0.13277,-0.189837 0.20792,-0.0094 0.33833,-0.282117 0.18695,-0.07316 0.0746,-0.09362 0.0745,0.06855 0.25975,-0.163835 0.074,-0.170783 0.0554,0.04312 0.33107,-0.188296 0.34704,-0.272253 0.25415,-0.06023 2.14311,-1.608316 0.12115,-0.04196 1.26268,-1.108611 0.46938,-0.111145 0.19979,-0.13703 0.19898,-0.141658 0.73902,-0.531893 0.1952,0.0393 0.40417,-0.106933 0.59211,-0.663133 0.26966,-0.100107 0.14216,-0.05393 0.12602,-0.03548 0.53198,-0.329363 0.54164,-0.377446 0.26093,-0.131202 0.33561,-0.295296 0.25777,-0.202302 0.21127,-0.06036 0.19536,-0.0803 0.32883,-0.269032 0.20811,-0.05551 0.0593,0.01185 0.20698,-0.234889 0.99303,-0.457585 0.85975,-0.927765 0.3397,0.05553 0.33736,-0.224013 0.19572,-0.123753 0.19493,-0.103428 1.00405,-0.474301 0.46069,-0.429147 0.20187,-0.202982 1.80611,-1.239732 0.3225,-0.17533 0.20528,-0.07324 0.064,0.08408 0.0639,-0.07207 0.33089,-0.08128 0.27825,-0.313276 0.78814,-0.633016 0.13631,-0.01576 0.1976,-0.061 0.20908,-0.03309 0.25705,-0.243675 0.20709,-0.01366 0.45977,-0.360973 1.54095,-1.051227 0.12818,-0.08283 0.26694,-0.279955 0.19637,9.5e-4 0.20706,-0.0591 0.12611,-0.01865 2.27063,-1.583886 0.19633,-0.225472 0.27138,-0.0448 0.19447,-0.03057 0.46144,-0.385286 1.1401,-0.92908 0.33276,-0.158027 0.33051,-0.121013 0.66453,-0.639267 1.13416,-0.697846 0.26714,-0.198353 0.19694,-0.185727 0.0688,0.04662 0.26425,-0.165223 0.20454,-0.08401 0.26173,-0.18638 0.2026,-0.04331 0.20177,-0.202209 0.13405,-0.02128 0.267,-0.230662 0.39778,-0.165716 0.66516,-0.556764 0.99473,-0.423024 0.13656,-0.02251 0.26296,-0.241192 0.86938,-0.445055 0.13307,0.02276 0.3355,-0.229414 0.59467,-0.53644 0.33781,-0.29376 0.32693,-0.164492 0.26509,-0.168693 0.13626,0.0026 0.13588,-0.10633 0.32964,-0.289012 0.26881,-0.08215 1.13443,-0.424016 0.32631,-0.102824 0.3403,-0.348468 0.12901,-0.124808 0.20091,-0.238768 0.5978,-0.605643 1.33624,-0.738553 0.20001,0.02664 0.32899,-0.274727 1.26452,-1.024071 0.20021,-0.212645 0.13302,-0.01157 0.26495,-0.204476 1.1318,-0.601868 0.13607,0.03354 0.39887,-0.256789 0.59926,-0.44201 0.13295,0.05219 0.26483,-0.193869 0.20114,-0.118404 0.20031,-0.104356 0.1995,-0.16065 0.13711,-0.09623 0.26627,-0.151745 0.79689,-0.4926 0.20054,-0.09555 0.19972,-0.01964 0.52864,-0.492382 0.13782,-0.145959 0.1309,-0.120206 0.26725,0.04496 0.33041,-0.349236 0.53299,-0.4427 0.20394,-0.02111 0.13338,-0.114858 0.13302,-0.0084 0.19569,-0.04306 0.40155,-0.274178 0.19955,-0.07009 0.26686,-0.115672 0.93179,-0.775077 0.19997,-0.03489 0.39751,-0.431432 0.13776,-0.102713 0.59451,-0.426404 0.13572,-0.08687 0.26445,-0.217775 0.40273,-0.470362 0.13351,-0.02868 0.13314,-0.04607 0.2652,-0.251779 0.20083,-0.02707 0.39919,-0.286011 0.53097,-0.233045 0.13465,-0.09053 0.20128,-0.04667 0.0669,0.06412 0.0668,-0.07939 1.1982,-0.656043 0.46471,-0.491902 1.20054,-0.735147 0.4648,-0.27082 0.13495,-0.01787 0.26364,-0.149825 0.66565,-0.433994 0.60146,-0.302351 0.73291,-0.507179 0.13343,-0.01221 0.197,-0.01299 0.13253,-0.01715 1.53443,-1.142981 0.79625,-0.490918 0.53451,-0.414255 0.46465,-0.476377 0.2694,-0.189492 0.73216,-0.327592 0.39761,-0.259082 0.1333,-0.09114 0.4681,-0.390568 0.39831,-0.160754 0.39941,-0.103132 0.26733,-0.128565 0.46648,-0.273392 0.0639,0.07305 0.53304,-0.587693 0.33545,-0.108437 0.53196,-0.689508 0.13209,-0.02693 0.46769,-0.382998 0.0653,0.0748 0.0693,-0.08711 0.19911,-0.09171 0.26691,-0.0489 0.19722,-0.105759 0.66624,-0.382596 0.39856,-0.48951 0.60153,-0.216404 0.79704,-0.692912 1.26667,-0.596381 0.26721,-0.261679 0.13306,-0.02106 0.33107,-0.377664 0.53596,-0.279555 0.33246,-0.355647 0.19768,0.0159 0.46764,-0.277397 0.26573,-0.154005 0.20099,-0.09327 0.26671,-0.177187 0.0664,0.02295 0.19881,-0.198714 0.33301,-0.202006 0.20011,0.03191 0.39776,-0.425355 0.46902,-0.322747 0.26648,0.09239 0.99892,-0.760892 0.33176,-0.103732 0.59866,-0.326839 0.46665,-0.377325 0.13433,-0.07836 0.33107,-0.427757 0.40126,-0.398069 0.398,-0.08152 0.86617,-0.758233 0.26603,-0.276368 0.26762,-0.116132 0.19976,-0.16496 0.13272,-2.47e-4 0.73249,-0.274822 3.12911,-1.850871 0.13341,-0.03618 1.46554,-0.614959 0.33287,-0.365072 0.13358,-0.129125 0.66511,-0.50066 0.13404,-0.03795 0.59998,-0.518759 0.19922,0.07698 0.19842,-0.01022 1.33427,-1.063429 1.5297,-0.657182 0.26604,-0.21202 0.33411,-0.316907 0.79833,-0.953185 v 0"
       style="fill:none;stroke:#9467bd;stroke-width:1.5;stroke-linecap:square;stroke-opacity:0.75"
       id="path1138" />
  </g>
  <g
     id="line2d_41">
    <path
       clip-path="url(#p4551da0602)"
       d="m 102.4589,321.57919 0.004,-38.92023 1.71358,-20.47759 1.65548,-8.72019 1.6012,-5.69154 1.55036,-4.26582 1.50264,-3.43229 1.45779,-2.88404 2.79116,-4.70033 2.64022,-3.77892 2.50476,-3.18038 3.53157,-4.01512 3.2933,-3.38869 4.0717,-3.85101 4.6542,-4.07046 5.05611,-4.13457 6.01771,-4.64321 7.22325,-5.29457 8.90315,-6.24388 11.70373,-7.90758 14.7436,-9.67811 21.25751,-13.67234 36.72935,-23.32238 104.72116,-66.131321 72.6789,-45.869638 v 0"
       style="fill:none;stroke:#2ca02c;stroke-width:1.5;stroke-dasharray:5.55, 2.4;stroke-dashoffset:0"
       id="path1141" />
  </g>
  <g
     id="line2d_42">
    <path
       clip-path="url(#p4551da0602)"
       d="m 326.69522,78.1632 87.4954,-55.220103"
       style="fill:none;stroke:#000000;stroke-width:1.5;stroke-dasharray:5.55, 2.4;stroke-dashoffset:0"
       id="path1144" />
  </g>
  <g
     id="patch_3">
    <path
       d="M 67.967187,273.312 V 7.2"
       style="fill:none;stroke:#000000;stroke-width:0.8;stroke-linecap:square;stroke-linejoin:miter"
       id="path1150" />
  </g>
  <g
     id="patch_4">
    <path
       d="M 425.08719,273.312 V 7.2"
       style="fill:none;stroke:#000000;stroke-width:0.8;stroke-linecap:square;stroke-linejoin:miter"
       id="path1153" />
  </g>
  <g
     id="patch_5">
    <path
       d="M 67.967187,273.312 H 425.08719"
       style="fill:none;stroke:#000000;stroke-width:0.8;stroke-linecap:square;stroke-linejoin:miter"
       id="path1156" />
  </g>
  <g
     id="patch_6">
    <path
       d="M 67.967187,7.2 H 425.08719"
       style="fill:none;stroke:#000000;stroke-width:0.8;stroke-linecap:square;stroke-linejoin:miter"
       id="path1159" />
  </g>
  <g
     id="text_15">
    <!-- $L^4$ -->
    <g
       transform="matrix(0.10392305,-0.06,-0.06,-0.10392305,365.10212,43.01595)"
       id="g1176">
      <defs
         id="defs1170">
        <path
           d="M 37.796875,64.3125 12.890625,25.390625 h 24.90625 z m -2.59375,8.59375 h 12.40625 V 25.390625 h 10.40625 V 17.1875 H 47.609375 V 0 h -9.8125 V 17.1875 H 4.890625 v 9.515625 z"
           id="DejaVuSans-52" />
      </defs>
      <use
         transform="translate(0,0.684375)"
         xlink:href="#DejaVuSans-Oblique-76"
         id="use1172" />
      <use
         transform="matrix(0.7,0,0,0.7,62.729661,38.965625)"
         xlink:href="#DejaVuSans-52"
         id="use1174" />
    </g>
  </g>
  <defs
     id="defs1243">
    <clipPath
       id="p4551da0602">
      <rect
         height="266.112"
         width="357.12"
         x="67.967187"
         y="7.2"
         id="rect1240" />
    </clipPath>
  </defs>
</svg>
