<?xml version="1.0" encoding="utf-8" standalone="no"?>
<!DOCTYPE svg PUBLIC "-//W3C//DTD SVG 1.1//EN"
  "http://www.w3.org/Graphics/SVG/1.1/DTD/svg11.dtd">
<!-- Created with matplotlib (https://matplotlib.org/) -->
<svg height="320.579187pt" version="1.1" viewBox="0 0 432.287187 320.579187" width="432.287187pt" xmlns="http://www.w3.org/2000/svg" xmlns:xlink="http://www.w3.org/1999/xlink">
 <metadata>
  <rdf:RDF xmlns:cc="http://creativecommons.org/ns#" xmlns:dc="http://purl.org/dc/elements/1.1/" xmlns:rdf="http://www.w3.org/1999/02/22-rdf-syntax-ns#">
   <cc:Work>
    <dc:type rdf:resource="http://purl.org/dc/dcmitype/StillImage"/>
    <dc:date>2023-02-28T11:52:44.136340</dc:date>
    <dc:format>image/svg+xml</dc:format>
    <dc:creator>
     <cc:Agent>
      <dc:title>Matplotlib v3.3.4, https://matplotlib.org/</dc:title>
     </cc:Agent>
    </dc:creator>
   </cc:Work>
  </rdf:RDF>
 </metadata>
 <defs>
  <style type="text/css">*{stroke-linecap:butt;stroke-linejoin:round;}</style>
 </defs>
 <g id="figure_1">
  <g id="patch_1">
   <path d="M 0 320.579187 
L 432.287187 320.579187 
L 432.287187 0 
L 0 0 
z
" style="fill:#ffffff;"/>
  </g>
  <g id="axes_1">
   <g id="patch_2">
    <path d="M 67.967187 273.312 
L 425.087188 273.312 
L 425.087188 7.2 
L 67.967187 7.2 
z
" style="fill:#ffffff;"/>
   </g>
   <g id="matplotlib.axis_1">
    <g id="xtick_1">
     <g id="line2d_1">
      <defs>
       <path d="M 0 0 
L 0 3.5 
" id="me382c99527" style="stroke:#000000;stroke-width:0.8;"/>
      </defs>
      <g>
       <use style="stroke:#000000;stroke-width:0.8;" x="101.815029" xlink:href="#me382c99527" y="273.312"/>
      </g>
     </g>
     <g id="text_1">
      <!-- $\mathdefault{10^{0}}$ -->
      <g transform="translate(88.615029 291.709656)scale(0.15 -0.15)">
       <defs>
        <path d="M 12.40625 8.296875 
L 28.515625 8.296875 
L 28.515625 63.921875 
L 10.984375 60.40625 
L 10.984375 69.390625 
L 28.421875 72.90625 
L 38.28125 72.90625 
L 38.28125 8.296875 
L 54.390625 8.296875 
L 54.390625 0 
L 12.40625 0 
z
" id="DejaVuSans-49"/>
        <path d="M 31.78125 66.40625 
Q 24.171875 66.40625 20.328125 58.90625 
Q 16.5 51.421875 16.5 36.375 
Q 16.5 21.390625 20.328125 13.890625 
Q 24.171875 6.390625 31.78125 6.390625 
Q 39.453125 6.390625 43.28125 13.890625 
Q 47.125 21.390625 47.125 36.375 
Q 47.125 51.421875 43.28125 58.90625 
Q 39.453125 66.40625 31.78125 66.40625 
z
M 31.78125 74.21875 
Q 44.046875 74.21875 50.515625 64.515625 
Q 56.984375 54.828125 56.984375 36.375 
Q 56.984375 17.96875 50.515625 8.265625 
Q 44.046875 -1.421875 31.78125 -1.421875 
Q 19.53125 -1.421875 13.0625 8.265625 
Q 6.59375 17.96875 6.59375 36.375 
Q 6.59375 54.828125 13.0625 64.515625 
Q 19.53125 74.21875 31.78125 74.21875 
z
" id="DejaVuSans-48"/>
       </defs>
       <use transform="translate(0 0.765625)" xlink:href="#DejaVuSans-49"/>
       <use transform="translate(63.623047 0.765625)" xlink:href="#DejaVuSans-48"/>
       <use transform="translate(128.203125 39.046875)scale(0.7)" xlink:href="#DejaVuSans-48"/>
      </g>
     </g>
    </g>
    <g id="xtick_2">
     <g id="line2d_2">
      <g>
       <use style="stroke:#000000;stroke-width:0.8;" x="214.255123" xlink:href="#me382c99527" y="273.312"/>
      </g>
     </g>
     <g id="text_2">
      <!-- $\mathdefault{10^{1}}$ -->
      <g transform="translate(201.055123 291.709656)scale(0.15 -0.15)">
       <use transform="translate(0 0.684375)" xlink:href="#DejaVuSans-49"/>
       <use transform="translate(63.623047 0.684375)" xlink:href="#DejaVuSans-48"/>
       <use transform="translate(128.203125 38.965625)scale(0.7)" xlink:href="#DejaVuSans-49"/>
      </g>
     </g>
    </g>
    <g id="xtick_3">
     <g id="line2d_3">
      <g>
       <use style="stroke:#000000;stroke-width:0.8;" x="326.695217" xlink:href="#me382c99527" y="273.312"/>
      </g>
     </g>
     <g id="text_3">
      <!-- $\mathdefault{10^{2}}$ -->
      <g transform="translate(313.495217 291.709656)scale(0.15 -0.15)">
       <defs>
        <path d="M 19.1875 8.296875 
L 53.609375 8.296875 
L 53.609375 0 
L 7.328125 0 
L 7.328125 8.296875 
Q 12.9375 14.109375 22.625 23.890625 
Q 32.328125 33.6875 34.8125 36.53125 
Q 39.546875 41.84375 41.421875 45.53125 
Q 43.3125 49.21875 43.3125 52.78125 
Q 43.3125 58.59375 39.234375 62.25 
Q 35.15625 65.921875 28.609375 65.921875 
Q 23.96875 65.921875 18.8125 64.3125 
Q 13.671875 62.703125 7.8125 59.421875 
L 7.8125 69.390625 
Q 13.765625 71.78125 18.9375 73 
Q 24.125 74.21875 28.421875 74.21875 
Q 39.75 74.21875 46.484375 68.546875 
Q 53.21875 62.890625 53.21875 53.421875 
Q 53.21875 48.921875 51.53125 44.890625 
Q 49.859375 40.875 45.40625 35.40625 
Q 44.1875 33.984375 37.640625 27.21875 
Q 31.109375 20.453125 19.1875 8.296875 
z
" id="DejaVuSans-50"/>
       </defs>
       <use transform="translate(0 0.765625)" xlink:href="#DejaVuSans-49"/>
       <use transform="translate(63.623047 0.765625)" xlink:href="#DejaVuSans-48"/>
       <use transform="translate(128.203125 39.046875)scale(0.7)" xlink:href="#DejaVuSans-50"/>
      </g>
     </g>
    </g>
    <g id="xtick_4">
     <g id="line2d_4">
      <defs>
       <path d="M 0 0 
L 0 2 
" id="m20027ca778" style="stroke:#000000;stroke-width:0.6;"/>
      </defs>
      <g>
       <use style="stroke:#000000;stroke-width:0.6;" x="67.967187" xlink:href="#m20027ca778" y="273.312"/>
      </g>
     </g>
    </g>
    <g id="xtick_5">
     <g id="line2d_5">
      <g>
       <use style="stroke:#000000;stroke-width:0.6;" x="76.870334" xlink:href="#m20027ca778" y="273.312"/>
      </g>
     </g>
    </g>
    <g id="xtick_6">
     <g id="line2d_6">
      <g>
       <use style="stroke:#000000;stroke-width:0.6;" x="84.397838" xlink:href="#m20027ca778" y="273.312"/>
      </g>
     </g>
    </g>
    <g id="xtick_7">
     <g id="line2d_7">
      <g>
       <use style="stroke:#000000;stroke-width:0.6;" x="90.918458" xlink:href="#m20027ca778" y="273.312"/>
      </g>
     </g>
    </g>
    <g id="xtick_8">
     <g id="line2d_8">
      <g>
       <use style="stroke:#000000;stroke-width:0.6;" x="96.670052" xlink:href="#m20027ca778" y="273.312"/>
      </g>
     </g>
    </g>
    <g id="xtick_9">
     <g id="line2d_9">
      <g>
       <use style="stroke:#000000;stroke-width:0.6;" x="135.66287" xlink:href="#m20027ca778" y="273.312"/>
      </g>
     </g>
    </g>
    <g id="xtick_10">
     <g id="line2d_10">
      <g>
       <use style="stroke:#000000;stroke-width:0.6;" x="155.462587" xlink:href="#m20027ca778" y="273.312"/>
      </g>
     </g>
    </g>
    <g id="xtick_11">
     <g id="line2d_11">
      <g>
       <use style="stroke:#000000;stroke-width:0.6;" x="169.510711" xlink:href="#m20027ca778" y="273.312"/>
      </g>
     </g>
    </g>
    <g id="xtick_12">
     <g id="line2d_12">
      <g>
       <use style="stroke:#000000;stroke-width:0.6;" x="180.407282" xlink:href="#m20027ca778" y="273.312"/>
      </g>
     </g>
    </g>
    <g id="xtick_13">
     <g id="line2d_13">
      <g>
       <use style="stroke:#000000;stroke-width:0.6;" x="189.310428" xlink:href="#m20027ca778" y="273.312"/>
      </g>
     </g>
    </g>
    <g id="xtick_14">
     <g id="line2d_14">
      <g>
       <use style="stroke:#000000;stroke-width:0.6;" x="196.837932" xlink:href="#m20027ca778" y="273.312"/>
      </g>
     </g>
    </g>
    <g id="xtick_15">
     <g id="line2d_15">
      <g>
       <use style="stroke:#000000;stroke-width:0.6;" x="203.358552" xlink:href="#m20027ca778" y="273.312"/>
      </g>
     </g>
    </g>
    <g id="xtick_16">
     <g id="line2d_16">
      <g>
       <use style="stroke:#000000;stroke-width:0.6;" x="209.110146" xlink:href="#m20027ca778" y="273.312"/>
      </g>
     </g>
    </g>
    <g id="xtick_17">
     <g id="line2d_17">
      <g>
       <use style="stroke:#000000;stroke-width:0.6;" x="248.102964" xlink:href="#m20027ca778" y="273.312"/>
      </g>
     </g>
    </g>
    <g id="xtick_18">
     <g id="line2d_18">
      <g>
       <use style="stroke:#000000;stroke-width:0.6;" x="267.902681" xlink:href="#m20027ca778" y="273.312"/>
      </g>
     </g>
    </g>
    <g id="xtick_19">
     <g id="line2d_19">
      <g>
       <use style="stroke:#000000;stroke-width:0.6;" x="281.950805" xlink:href="#m20027ca778" y="273.312"/>
      </g>
     </g>
    </g>
    <g id="xtick_20">
     <g id="line2d_20">
      <g>
       <use style="stroke:#000000;stroke-width:0.6;" x="292.847376" xlink:href="#m20027ca778" y="273.312"/>
      </g>
     </g>
    </g>
    <g id="xtick_21">
     <g id="line2d_21">
      <g>
       <use style="stroke:#000000;stroke-width:0.6;" x="301.750522" xlink:href="#m20027ca778" y="273.312"/>
      </g>
     </g>
    </g>
    <g id="xtick_22">
     <g id="line2d_22">
      <g>
       <use style="stroke:#000000;stroke-width:0.6;" x="309.278026" xlink:href="#m20027ca778" y="273.312"/>
      </g>
     </g>
    </g>
    <g id="xtick_23">
     <g id="line2d_23">
      <g>
       <use style="stroke:#000000;stroke-width:0.6;" x="315.798646" xlink:href="#m20027ca778" y="273.312"/>
      </g>
     </g>
    </g>
    <g id="xtick_24">
     <g id="line2d_24">
      <g>
       <use style="stroke:#000000;stroke-width:0.6;" x="321.55024" xlink:href="#m20027ca778" y="273.312"/>
      </g>
     </g>
    </g>
    <g id="xtick_25">
     <g id="line2d_25">
      <g>
       <use style="stroke:#000000;stroke-width:0.6;" x="360.543058" xlink:href="#m20027ca778" y="273.312"/>
      </g>
     </g>
    </g>
    <g id="xtick_26">
     <g id="line2d_26">
      <g>
       <use style="stroke:#000000;stroke-width:0.6;" x="380.342775" xlink:href="#m20027ca778" y="273.312"/>
      </g>
     </g>
    </g>
    <g id="xtick_27">
     <g id="line2d_27">
      <g>
       <use style="stroke:#000000;stroke-width:0.6;" x="394.390899" xlink:href="#m20027ca778" y="273.312"/>
      </g>
     </g>
    </g>
    <g id="xtick_28">
     <g id="line2d_28">
      <g>
       <use style="stroke:#000000;stroke-width:0.6;" x="405.28747" xlink:href="#m20027ca778" y="273.312"/>
      </g>
     </g>
    </g>
    <g id="xtick_29">
     <g id="line2d_29">
      <g>
       <use style="stroke:#000000;stroke-width:0.6;" x="414.190617" xlink:href="#m20027ca778" y="273.312"/>
      </g>
     </g>
    </g>
    <g id="xtick_30">
     <g id="line2d_30">
      <g>
       <use style="stroke:#000000;stroke-width:0.6;" x="421.71812" xlink:href="#m20027ca778" y="273.312"/>
      </g>
     </g>
    </g>
    <g id="text_4">
     <!-- $L / \log(N)$ -->
     <g transform="translate(216.902187 310.229187)scale(0.15 -0.15)">
      <defs>
       <path d="M 16.796875 72.90625 
L 26.703125 72.90625 
L 14.203125 8.203125 
L 49.703125 8.203125 
L 48.09375 0 
L 2.6875 0 
z
" id="DejaVuSans-Oblique-76"/>
       <path d="M 25.390625 72.90625 
L 33.6875 72.90625 
L 8.296875 -9.28125 
L 0 -9.28125 
z
" id="DejaVuSans-47"/>
       <path d="M 9.421875 75.984375 
L 18.40625 75.984375 
L 18.40625 0 
L 9.421875 0 
z
" id="DejaVuSans-108"/>
       <path d="M 30.609375 48.390625 
Q 23.390625 48.390625 19.1875 42.75 
Q 14.984375 37.109375 14.984375 27.296875 
Q 14.984375 17.484375 19.15625 11.84375 
Q 23.34375 6.203125 30.609375 6.203125 
Q 37.796875 6.203125 41.984375 11.859375 
Q 46.1875 17.53125 46.1875 27.296875 
Q 46.1875 37.015625 41.984375 42.703125 
Q 37.796875 48.390625 30.609375 48.390625 
z
M 30.609375 56 
Q 42.328125 56 49.015625 48.375 
Q 55.71875 40.765625 55.71875 27.296875 
Q 55.71875 13.875 49.015625 6.21875 
Q 42.328125 -1.421875 30.609375 -1.421875 
Q 18.84375 -1.421875 12.171875 6.21875 
Q 5.515625 13.875 5.515625 27.296875 
Q 5.515625 40.765625 12.171875 48.375 
Q 18.84375 56 30.609375 56 
z
" id="DejaVuSans-111"/>
       <path d="M 45.40625 27.984375 
Q 45.40625 37.75 41.375 43.109375 
Q 37.359375 48.484375 30.078125 48.484375 
Q 22.859375 48.484375 18.828125 43.109375 
Q 14.796875 37.75 14.796875 27.984375 
Q 14.796875 18.265625 18.828125 12.890625 
Q 22.859375 7.515625 30.078125 7.515625 
Q 37.359375 7.515625 41.375 12.890625 
Q 45.40625 18.265625 45.40625 27.984375 
z
M 54.390625 6.78125 
Q 54.390625 -7.171875 48.1875 -13.984375 
Q 42 -20.796875 29.203125 -20.796875 
Q 24.46875 -20.796875 20.265625 -20.09375 
Q 16.0625 -19.390625 12.109375 -17.921875 
L 12.109375 -9.1875 
Q 16.0625 -11.328125 19.921875 -12.34375 
Q 23.78125 -13.375 27.78125 -13.375 
Q 36.625 -13.375 41.015625 -8.765625 
Q 45.40625 -4.15625 45.40625 5.171875 
L 45.40625 9.625 
Q 42.625 4.78125 38.28125 2.390625 
Q 33.9375 0 27.875 0 
Q 17.828125 0 11.671875 7.65625 
Q 5.515625 15.328125 5.515625 27.984375 
Q 5.515625 40.671875 11.671875 48.328125 
Q 17.828125 56 27.875 56 
Q 33.9375 56 38.28125 53.609375 
Q 42.625 51.21875 45.40625 46.390625 
L 45.40625 54.6875 
L 54.390625 54.6875 
z
" id="DejaVuSans-103"/>
       <path d="M 31 75.875 
Q 24.46875 64.65625 21.28125 53.65625 
Q 18.109375 42.671875 18.109375 31.390625 
Q 18.109375 20.125 21.3125 9.0625 
Q 24.515625 -2 31 -13.1875 
L 23.1875 -13.1875 
Q 15.875 -1.703125 12.234375 9.375 
Q 8.59375 20.453125 8.59375 31.390625 
Q 8.59375 42.28125 12.203125 53.3125 
Q 15.828125 64.359375 23.1875 75.875 
z
" id="DejaVuSans-40"/>
       <path d="M 16.890625 72.90625 
L 30.171875 72.90625 
L 50.296875 10.40625 
L 62.5 72.90625 
L 72.125 72.90625 
L 57.90625 0 
L 44.578125 0 
L 24.515625 62.890625 
L 12.3125 0 
L 2.6875 0 
z
" id="DejaVuSans-Oblique-78"/>
       <path d="M 8.015625 75.875 
L 15.828125 75.875 
Q 23.140625 64.359375 26.78125 53.3125 
Q 30.421875 42.28125 30.421875 31.390625 
Q 30.421875 20.453125 26.78125 9.375 
Q 23.140625 -1.703125 15.828125 -13.1875 
L 8.015625 -13.1875 
Q 14.5 -2 17.703125 9.0625 
Q 20.90625 20.125 20.90625 31.390625 
Q 20.90625 42.671875 17.703125 53.65625 
Q 14.5 64.65625 8.015625 75.875 
z
" id="DejaVuSans-41"/>
      </defs>
      <use transform="translate(0 0.015625)" xlink:href="#DejaVuSans-Oblique-76"/>
      <use transform="translate(55.712891 0.015625)" xlink:href="#DejaVuSans-47"/>
      <use transform="translate(89.404297 0.015625)" xlink:href="#DejaVuSans-108"/>
      <use transform="translate(117.1875 0.015625)" xlink:href="#DejaVuSans-111"/>
      <use transform="translate(178.369141 0.015625)" xlink:href="#DejaVuSans-103"/>
      <use transform="translate(241.845703 0.015625)" xlink:href="#DejaVuSans-40"/>
      <use transform="translate(280.859375 0.015625)" xlink:href="#DejaVuSans-Oblique-78"/>
      <use transform="translate(355.664062 0.015625)" xlink:href="#DejaVuSans-41"/>
     </g>
    </g>
   </g>
   <g id="matplotlib.axis_2">
    <g id="ytick_1">
     <g id="line2d_31">
      <defs>
       <path d="M 0 0 
L -3.5 0 
" id="mc0ae8a0399" style="stroke:#000000;stroke-width:0.8;"/>
      </defs>
      <g>
       <use style="stroke:#000000;stroke-width:0.8;" x="67.967187" xlink:href="#mc0ae8a0399" y="273.312"/>
      </g>
     </g>
     <g id="text_5">
      <!-- $\mathdefault{10^{-3}}$ -->
      <g transform="translate(25.717187 279.010828)scale(0.15 -0.15)">
       <defs>
        <path d="M 10.59375 35.5 
L 73.1875 35.5 
L 73.1875 27.203125 
L 10.59375 27.203125 
z
" id="DejaVuSans-8722"/>
        <path d="M 40.578125 39.3125 
Q 47.65625 37.796875 51.625 33 
Q 55.609375 28.21875 55.609375 21.1875 
Q 55.609375 10.40625 48.1875 4.484375 
Q 40.765625 -1.421875 27.09375 -1.421875 
Q 22.515625 -1.421875 17.65625 -0.515625 
Q 12.796875 0.390625 7.625 2.203125 
L 7.625 11.71875 
Q 11.71875 9.328125 16.59375 8.109375 
Q 21.484375 6.890625 26.8125 6.890625 
Q 36.078125 6.890625 40.9375 10.546875 
Q 45.796875 14.203125 45.796875 21.1875 
Q 45.796875 27.640625 41.28125 31.265625 
Q 36.765625 34.90625 28.71875 34.90625 
L 20.21875 34.90625 
L 20.21875 43.015625 
L 29.109375 43.015625 
Q 36.375 43.015625 40.234375 45.921875 
Q 44.09375 48.828125 44.09375 54.296875 
Q 44.09375 59.90625 40.109375 62.90625 
Q 36.140625 65.921875 28.71875 65.921875 
Q 24.65625 65.921875 20.015625 65.03125 
Q 15.375 64.15625 9.8125 62.3125 
L 9.8125 71.09375 
Q 15.4375 72.65625 20.34375 73.4375 
Q 25.25 74.21875 29.59375 74.21875 
Q 40.828125 74.21875 47.359375 69.109375 
Q 53.90625 64.015625 53.90625 55.328125 
Q 53.90625 49.265625 50.4375 45.09375 
Q 46.96875 40.921875 40.578125 39.3125 
z
" id="DejaVuSans-51"/>
       </defs>
       <use transform="translate(0 0.765625)" xlink:href="#DejaVuSans-49"/>
       <use transform="translate(63.623047 0.765625)" xlink:href="#DejaVuSans-48"/>
       <use transform="translate(128.203125 39.046875)scale(0.7)" xlink:href="#DejaVuSans-8722"/>
       <use transform="translate(186.855469 39.046875)scale(0.7)" xlink:href="#DejaVuSans-51"/>
      </g>
     </g>
    </g>
    <g id="ytick_2">
     <g id="line2d_32">
      <g>
       <use style="stroke:#000000;stroke-width:0.8;" x="67.967187" xlink:href="#mc0ae8a0399" y="237.8304"/>
      </g>
     </g>
     <g id="text_6">
      <!-- $\mathdefault{10^{-1}}$ -->
      <g transform="translate(25.717187 243.529228)scale(0.15 -0.15)">
       <use transform="translate(0 0.684375)" xlink:href="#DejaVuSans-49"/>
       <use transform="translate(63.623047 0.684375)" xlink:href="#DejaVuSans-48"/>
       <use transform="translate(128.203125 38.965625)scale(0.7)" xlink:href="#DejaVuSans-8722"/>
       <use transform="translate(186.855469 38.965625)scale(0.7)" xlink:href="#DejaVuSans-49"/>
      </g>
     </g>
    </g>
    <g id="ytick_3">
     <g id="line2d_33">
      <g>
       <use style="stroke:#000000;stroke-width:0.8;" x="67.967187" xlink:href="#mc0ae8a0399" y="202.3488"/>
      </g>
     </g>
     <g id="text_7">
      <!-- $\mathdefault{10^{1}}$ -->
      <g transform="translate(34.567187 208.047628)scale(0.15 -0.15)">
       <use transform="translate(0 0.684375)" xlink:href="#DejaVuSans-49"/>
       <use transform="translate(63.623047 0.684375)" xlink:href="#DejaVuSans-48"/>
       <use transform="translate(128.203125 38.965625)scale(0.7)" xlink:href="#DejaVuSans-49"/>
      </g>
     </g>
    </g>
    <g id="ytick_4">
     <g id="line2d_34">
      <g>
       <use style="stroke:#000000;stroke-width:0.8;" x="67.967187" xlink:href="#mc0ae8a0399" y="166.8672"/>
      </g>
     </g>
     <g id="text_8">
      <!-- $\mathdefault{10^{3}}$ -->
      <g transform="translate(34.567187 172.566028)scale(0.15 -0.15)">
       <use transform="translate(0 0.765625)" xlink:href="#DejaVuSans-49"/>
       <use transform="translate(63.623047 0.765625)" xlink:href="#DejaVuSans-48"/>
       <use transform="translate(128.203125 39.046875)scale(0.7)" xlink:href="#DejaVuSans-51"/>
      </g>
     </g>
    </g>
    <g id="ytick_5">
     <g id="line2d_35">
      <g>
       <use style="stroke:#000000;stroke-width:0.8;" x="67.967187" xlink:href="#mc0ae8a0399" y="131.3856"/>
      </g>
     </g>
     <g id="text_9">
      <!-- $\mathdefault{10^{5}}$ -->
      <g transform="translate(34.567187 137.084428)scale(0.15 -0.15)">
       <defs>
        <path d="M 10.796875 72.90625 
L 49.515625 72.90625 
L 49.515625 64.59375 
L 19.828125 64.59375 
L 19.828125 46.734375 
Q 21.96875 47.46875 24.109375 47.828125 
Q 26.265625 48.1875 28.421875 48.1875 
Q 40.625 48.1875 47.75 41.5 
Q 54.890625 34.8125 54.890625 23.390625 
Q 54.890625 11.625 47.5625 5.09375 
Q 40.234375 -1.421875 26.90625 -1.421875 
Q 22.3125 -1.421875 17.546875 -0.640625 
Q 12.796875 0.140625 7.71875 1.703125 
L 7.71875 11.625 
Q 12.109375 9.234375 16.796875 8.0625 
Q 21.484375 6.890625 26.703125 6.890625 
Q 35.15625 6.890625 40.078125 11.328125 
Q 45.015625 15.765625 45.015625 23.390625 
Q 45.015625 31 40.078125 35.4375 
Q 35.15625 39.890625 26.703125 39.890625 
Q 22.75 39.890625 18.8125 39.015625 
Q 14.890625 38.140625 10.796875 36.28125 
z
" id="DejaVuSans-53"/>
       </defs>
       <use transform="translate(0 0.684375)" xlink:href="#DejaVuSans-49"/>
       <use transform="translate(63.623047 0.684375)" xlink:href="#DejaVuSans-48"/>
       <use transform="translate(128.203125 38.965625)scale(0.7)" xlink:href="#DejaVuSans-53"/>
      </g>
     </g>
    </g>
    <g id="ytick_6">
     <g id="line2d_36">
      <g>
       <use style="stroke:#000000;stroke-width:0.8;" x="67.967187" xlink:href="#mc0ae8a0399" y="95.904"/>
      </g>
     </g>
     <g id="text_10">
      <!-- $\mathdefault{10^{7}}$ -->
      <g transform="translate(34.567187 101.602828)scale(0.15 -0.15)">
       <defs>
        <path d="M 8.203125 72.90625 
L 55.078125 72.90625 
L 55.078125 68.703125 
L 28.609375 0 
L 18.3125 0 
L 43.21875 64.59375 
L 8.203125 64.59375 
z
" id="DejaVuSans-55"/>
       </defs>
       <use transform="translate(0 0.684375)" xlink:href="#DejaVuSans-49"/>
       <use transform="translate(63.623047 0.684375)" xlink:href="#DejaVuSans-48"/>
       <use transform="translate(128.203125 38.965625)scale(0.7)" xlink:href="#DejaVuSans-55"/>
      </g>
     </g>
    </g>
    <g id="ytick_7">
     <g id="line2d_37">
      <g>
       <use style="stroke:#000000;stroke-width:0.8;" x="67.967187" xlink:href="#mc0ae8a0399" y="60.4224"/>
      </g>
     </g>
     <g id="text_11">
      <!-- $\mathdefault{10^{9}}$ -->
      <g transform="translate(34.567187 66.121228)scale(0.15 -0.15)">
       <defs>
        <path d="M 10.984375 1.515625 
L 10.984375 10.5 
Q 14.703125 8.734375 18.5 7.8125 
Q 22.3125 6.890625 25.984375 6.890625 
Q 35.75 6.890625 40.890625 13.453125 
Q 46.046875 20.015625 46.78125 33.40625 
Q 43.953125 29.203125 39.59375 26.953125 
Q 35.25 24.703125 29.984375 24.703125 
Q 19.046875 24.703125 12.671875 31.3125 
Q 6.296875 37.9375 6.296875 49.421875 
Q 6.296875 60.640625 12.9375 67.421875 
Q 19.578125 74.21875 30.609375 74.21875 
Q 43.265625 74.21875 49.921875 64.515625 
Q 56.59375 54.828125 56.59375 36.375 
Q 56.59375 19.140625 48.40625 8.859375 
Q 40.234375 -1.421875 26.421875 -1.421875 
Q 22.703125 -1.421875 18.890625 -0.6875 
Q 15.09375 0.046875 10.984375 1.515625 
z
M 30.609375 32.421875 
Q 37.25 32.421875 41.125 36.953125 
Q 45.015625 41.5 45.015625 49.421875 
Q 45.015625 57.28125 41.125 61.84375 
Q 37.25 66.40625 30.609375 66.40625 
Q 23.96875 66.40625 20.09375 61.84375 
Q 16.21875 57.28125 16.21875 49.421875 
Q 16.21875 41.5 20.09375 36.953125 
Q 23.96875 32.421875 30.609375 32.421875 
z
" id="DejaVuSans-57"/>
       </defs>
       <use transform="translate(0 0.765625)" xlink:href="#DejaVuSans-49"/>
       <use transform="translate(63.623047 0.765625)" xlink:href="#DejaVuSans-48"/>
       <use transform="translate(128.203125 39.046875)scale(0.7)" xlink:href="#DejaVuSans-57"/>
      </g>
     </g>
    </g>
    <g id="ytick_8">
     <g id="line2d_38">
      <g>
       <use style="stroke:#000000;stroke-width:0.8;" x="67.967187" xlink:href="#mc0ae8a0399" y="24.9408"/>
      </g>
     </g>
     <g id="text_12">
      <!-- $\mathdefault{10^{11}}$ -->
      <g transform="translate(27.817187 30.639628)scale(0.15 -0.15)">
       <use transform="translate(0 0.684375)" xlink:href="#DejaVuSans-49"/>
       <use transform="translate(63.623047 0.684375)" xlink:href="#DejaVuSans-48"/>
       <use transform="translate(128.203125 38.965625)scale(0.7)" xlink:href="#DejaVuSans-49"/>
       <use transform="translate(172.739258 38.965625)scale(0.7)" xlink:href="#DejaVuSans-49"/>
      </g>
     </g>
    </g>
    <g id="text_13">
     <!-- $\mathrm{Var}(\tau_{\mathrm{Env}})$ -->
     <g transform="translate(18.597656 173.406)rotate(-90)scale(0.15 -0.15)">
      <defs>
       <path d="M 28.609375 0 
L 0.78125 72.90625 
L 11.078125 72.90625 
L 34.1875 11.53125 
L 57.328125 72.90625 
L 67.578125 72.90625 
L 39.796875 0 
z
" id="DejaVuSans-86"/>
       <path d="M 34.28125 27.484375 
Q 23.390625 27.484375 19.1875 25 
Q 14.984375 22.515625 14.984375 16.5 
Q 14.984375 11.71875 18.140625 8.90625 
Q 21.296875 6.109375 26.703125 6.109375 
Q 34.1875 6.109375 38.703125 11.40625 
Q 43.21875 16.703125 43.21875 25.484375 
L 43.21875 27.484375 
z
M 52.203125 31.203125 
L 52.203125 0 
L 43.21875 0 
L 43.21875 8.296875 
Q 40.140625 3.328125 35.546875 0.953125 
Q 30.953125 -1.421875 24.3125 -1.421875 
Q 15.921875 -1.421875 10.953125 3.296875 
Q 6 8.015625 6 15.921875 
Q 6 25.140625 12.171875 29.828125 
Q 18.359375 34.515625 30.609375 34.515625 
L 43.21875 34.515625 
L 43.21875 35.40625 
Q 43.21875 41.609375 39.140625 45 
Q 35.0625 48.390625 27.6875 48.390625 
Q 23 48.390625 18.546875 47.265625 
Q 14.109375 46.140625 10.015625 43.890625 
L 10.015625 52.203125 
Q 14.9375 54.109375 19.578125 55.046875 
Q 24.21875 56 28.609375 56 
Q 40.484375 56 46.34375 49.84375 
Q 52.203125 43.703125 52.203125 31.203125 
z
" id="DejaVuSans-97"/>
       <path d="M 41.109375 46.296875 
Q 39.59375 47.171875 37.8125 47.578125 
Q 36.03125 48 33.890625 48 
Q 26.265625 48 22.1875 43.046875 
Q 18.109375 38.09375 18.109375 28.8125 
L 18.109375 0 
L 9.078125 0 
L 9.078125 54.6875 
L 18.109375 54.6875 
L 18.109375 46.1875 
Q 20.953125 51.171875 25.484375 53.578125 
Q 30.03125 56 36.53125 56 
Q 37.453125 56 38.578125 55.875 
Q 39.703125 55.765625 41.0625 55.515625 
z
" id="DejaVuSans-114"/>
       <path d="M 32.859375 9.96875 
Q 34.1875 7.625 39.453125 7.625 
L 43.75 7.625 
L 42.28125 0 
L 36.921875 0 
Q 28.125 0 25 4.6875 
Q 21.921875 9.46875 23.96875 19.828125 
L 29 45.703125 
L 8.453125 45.703125 
L 10.203125 54.6875 
L 60.640625 54.6875 
L 58.890625 45.703125 
L 38.1875 45.703125 
L 33.015625 19.28125 
Q 31.640625 12.203125 32.859375 9.96875 
z
" id="DejaVuSans-Oblique-964"/>
       <path d="M 9.8125 72.90625 
L 55.90625 72.90625 
L 55.90625 64.59375 
L 19.671875 64.59375 
L 19.671875 43.015625 
L 54.390625 43.015625 
L 54.390625 34.71875 
L 19.671875 34.71875 
L 19.671875 8.296875 
L 56.78125 8.296875 
L 56.78125 0 
L 9.8125 0 
z
" id="DejaVuSans-69"/>
       <path d="M 54.890625 33.015625 
L 54.890625 0 
L 45.90625 0 
L 45.90625 32.71875 
Q 45.90625 40.484375 42.875 44.328125 
Q 39.84375 48.1875 33.796875 48.1875 
Q 26.515625 48.1875 22.3125 43.546875 
Q 18.109375 38.921875 18.109375 30.90625 
L 18.109375 0 
L 9.078125 0 
L 9.078125 54.6875 
L 18.109375 54.6875 
L 18.109375 46.1875 
Q 21.34375 51.125 25.703125 53.5625 
Q 30.078125 56 35.796875 56 
Q 45.21875 56 50.046875 50.171875 
Q 54.890625 44.34375 54.890625 33.015625 
z
" id="DejaVuSans-110"/>
       <path d="M 2.984375 54.6875 
L 12.5 54.6875 
L 29.59375 8.796875 
L 46.6875 54.6875 
L 56.203125 54.6875 
L 35.6875 0 
L 23.484375 0 
z
" id="DejaVuSans-118"/>
      </defs>
      <use transform="translate(0 0.125)" xlink:href="#DejaVuSans-86"/>
      <use transform="translate(68.408203 0.125)" xlink:href="#DejaVuSans-97"/>
      <use transform="translate(129.6875 0.125)" xlink:href="#DejaVuSans-114"/>
      <use transform="translate(170.800781 0.125)" xlink:href="#DejaVuSans-40"/>
      <use transform="translate(209.814453 0.125)" xlink:href="#DejaVuSans-Oblique-964"/>
      <use transform="translate(270.019531 -16.28125)scale(0.7)" xlink:href="#DejaVuSans-69"/>
      <use transform="translate(314.248047 -16.28125)scale(0.7)" xlink:href="#DejaVuSans-110"/>
      <use transform="translate(358.613281 -16.28125)scale(0.7)" xlink:href="#DejaVuSans-118"/>
      <use transform="translate(402.773438 0.125)" xlink:href="#DejaVuSans-41"/>
     </g>
    </g>
   </g>
   <g id="line2d_39">
    <path clip-path="url(#pc2abfa4e09)" d="M 86.02251 321.579187 
L 86.032157 253.380412 
L 88.414683 249.774637 
L 90.686354 242.053161 
L 92.857028 239.457924 
L 94.935303 234.281742 
L 96.928728 231.403477 
L 98.843958 225.965677 
L 100.686898 223.780054 
L 102.462807 221.441038 
L 104.17639 218.7825 
L 105.831874 217.362325 
L 107.433071 215.467948 
L 108.983427 215.216238 
L 110.486072 212.950197 
L 116.072971 209.199608 
L 118.643676 206.966765 
L 119.879998 206.851802 
L 121.08579 205.47608 
L 122.262525 204.510083 
L 123.411568 203.935288 
L 124.534195 203.202157 
L 125.631592 202.890275 
L 126.704869 202.115408 
L 127.755062 201.766045 
L 128.783144 201.218188 
L 129.790028 200.380243 
L 130.776569 199.816616 
L 131.743573 199.905518 
L 134.534739 197.670245 
L 135.430766 197.815911 
L 136.310648 196.772762 
L 137.174956 196.964295 
L 138.024231 196.063448 
L 138.858988 195.774168 
L 139.679715 195.618391 
L 140.486876 194.811085 
L 141.280912 194.319265 
L 142.062242 194.355953 
L 142.831268 193.671502 
L 143.58837 193.363957 
L 144.333913 193.575557 
L 145.068244 192.688002 
L 145.791696 192.987309 
L 146.504586 192.165395 
L 147.207219 191.836294 
L 147.899884 191.648861 
L 148.582862 191.079885 
L 149.256419 190.717384 
L 149.920812 190.733808 
L 150.576286 189.731663 
L 151.223079 189.711427 
L 151.861416 189.466498 
L 152.491517 188.951001 
L 153.727839 188.787367 
L 155.525543 187.365782 
L 156.110366 187.582863 
L 156.688267 186.781355 
L 157.259409 187.773387 
L 158.382036 185.94575 
L 158.933817 186.258119 
L 160.01902 185.905451 
L 161.08063 184.799201 
L 161.602903 185.273159 
L 162.11965 184.231262 
L 162.630986 184.777374 
L 163.637869 184.346961 
L 164.62441 183.289594 
L 165.591414 183.194332 
L 166.067829 182.700098 
L 167.006937 182.699194 
L 167.469804 182.296931 
L 168.38258 181.864295 
L 168.832649 181.410091 
L 169.72053 180.823583 
L 170.158489 181.401401 
L 171.022797 180.99342 
L 171.449281 180.604667 
L 172.291234 180.318899 
L 172.706829 180.432663 
L 173.527557 179.577632 
L 174.334717 179.059191 
L 174.733349 178.534836 
L 175.520981 178.972849 
L 176.29611 178.289223 
L 177.436211 177.626955 
L 178.181754 176.853013 
L 179.639537 176.775046 
L 180.352427 176.192992 
L 181.05506 176.331198 
L 181.747726 175.735415 
L 182.430703 175.299786 
L 183.10426 175.281397 
L 183.768653 175.040088 
L 185.07092 174.153167 
L 185.709257 173.913306 
L 186.339358 172.781925 
L 186.961431 173.41928 
L 187.57568 173.479654 
L 188.182298 172.604433 
L 189.078325 172.045061 
L 190.248012 171.859842 
L 190.822514 171.599496 
L 191.67179 171.001917 
L 192.229877 171.381995 
L 193.055228 170.29608 
L 194.400551 170.157583 
L 194.928471 170.412886 
L 195.709801 169.324957 
L 196.223828 169.606803 
L 196.984863 168.939331 
L 198.227478 168.601121 
L 198.958146 168.684953 
L 199.678043 167.452358 
L 200.387481 167.395794 
L 201.08676 166.699331 
L 201.547443 167.309529 
L 202.230421 166.962185 
L 202.903978 165.894305 
L 203.568371 166.250188 
L 204.440396 165.58873 
L 205.084345 165.659183 
L 205.719913 165.122058 
L 206.966758 164.556488 
L 207.578442 163.747971 
L 208.382281 162.919707 
L 208.976594 163.186299 
L 209.757924 163.233075 
L 211.095874 162.781385 
L 211.658246 162.292639 
L 212.398141 162.020669 
L 212.945797 162.131895 
L 213.666579 161.35713 
L 214.376877 160.959023 
L 215.076991 160.714251 
L 215.767209 160.611695 
L 216.278544 159.918156 
L 216.952101 160.509587 
L 217.616494 159.669123 
L 218.434472 159.516719 
L 219.079129 159.186372 
L 219.715387 158.120821 
L 220.343462 158.385339 
L 221.727772 158.364854 
L 222.330645 157.330362 
L 223.073918 157.283171 
L 223.660497 156.525078 
L 225.096839 156.710974 
L 225.659752 155.765963 
L 226.354388 155.629102 
L 227.039282 154.842624 
L 227.714702 155.255488 
L 228.380908 154.872846 
L 229.038147 154.201436 
L 229.686657 154.502986 
L 230.326668 153.851123 
L 231.705843 153.506504 
L 232.44202 153.758153 
L 233.047134 152.789578 
L 233.763511 152.56384 
L 234.352566 151.767783 
L 235.05018 152.055061 
L 235.737967 151.634521 
L 236.416202 151.407134 
L 237.085145 150.997151 
L 237.745049 150.451419 
L 239.03869 149.961753 
L 239.777785 150.050123 
L 240.402511 149.172288 
L 241.019346 148.931142 
L 241.729275 148.466033 
L 242.429031 148.429387 
L 243.020943 147.740585 
L 243.702558 148.091853 
L 245.037895 147.487027 
L 245.692115 146.857257 
L 246.429217 146.842263 
L 247.065179 146.107324 
L 247.692965 146.705821 
L 248.400689 145.632372 
L 249.098303 146.042308 
L 249.700645 145.172301 
L 250.380059 145.034651 
L 251.05015 144.342669 
L 251.71117 144.140405 
L 252.444277 143.30642 
L 253.086814 143.724113 
L 253.721006 143.125847 
L 255.041923 142.971491 
L 255.72703 142.740872 
L 256.402658 141.729095 
L 257.069066 141.83361 
L 257.726501 141.383183 
L 258.446752 141.084565 
L 259.086018 141.063651 
L 259.717023 139.898959 
L 260.408708 140.084055 
L 261.763361 139.710446 
L 263.727383 138.512494 
L 264.428183 138.373256 
L 265.056661 137.581406 
L 265.738772 138.093809 
L 266.411485 137.027053 
L 267.075057 136.792466 
L 267.729733 136.885073 
L 269.070878 136.376181 
L 269.756252 136.501745 
L 270.43214 135.445032 
L 271.0988 134.966481 
L 271.756482 135.36092 
L 272.405423 134.716617 
L 273.782559 134.080788 
L 274.405293 133.583041 
L 275.07108 133.971768 
L 275.778072 133.270872 
L 276.425524 132.446613 
L 277.113312 132.936293 
L 277.743412 132.33997 
L 279.073552 131.829177 
L 279.771498 131.760567 
L 280.414035 131.325963 
L 281.093213 130.626333 
L 281.763074 130.88169 
L 283.075844 129.957868 
L 283.76182 129.790331 
L 284.438293 129.382057 
L 285.105523 128.69963 
L 287.093977 128.541288 
L 287.765355 127.708375 
L 288.427627 127.069524 
L 289.081038 126.715937 
L 290.436527 126.655839 
L 291.100418 126.319448 
L 291.755404 125.699704 
L 292.437377 125.500081 
L 293.109958 124.544748 
L 293.7734 125.093961 
L 295.777921 123.837305 
L 296.439165 123.811282 
L 297.091575 123.155921 
L 297.767351 122.784985 
L 298.433903 122.855026 
L 299.091479 122.289605 
L 299.771001 122.412872 
L 300.441196 122.268503 
L 301.102318 121.42477 
L 301.784052 121.541888 
L 302.427359 120.652053 
L 303.090966 120.824849 
L 303.773944 119.786091 
L 304.447501 119.704769 
L 305.111894 119.869051 
L 305.767368 119.42064 
L 306.440925 119.275807 
L 307.105318 118.58561 
L 307.760793 118.505274 
L 308.433279 117.832849 
L 309.096631 117.542566 
L 309.776089 117.510068 
L 310.446222 117.18221 
L 311.107284 116.688147 
L 311.783506 117.038439 
L 312.450491 115.990047 
L 313.108489 116.218579 
L 313.780767 115.727165 
L 314.443916 116.006315 
L 315.765903 114.225718 
L 316.446424 114.407716 
L 317.117592 114.261948 
L 318.453798 113.337121 
L 319.118756 113.337228 
L 319.774781 112.301481 
L 320.442201 112.323762 
L 321.120436 111.929442 
L 322.449283 111.734072 
L 323.119406 111.045738 
L 323.780458 111.303418 
L 324.451189 110.837565 
L 325.112831 110.049597 
L 325.783637 109.852159 
L 326.445353 110.083003 
L 327.777061 109.628433 
L 328.446592 108.798304 
L 329.107068 108.509106 
L 329.775325 108.546408 
L 330.450928 107.70829 
L 331.117311 107.631598 
L 331.774722 106.82874 
L 332.454824 107.220245 
L 333.110089 107.106013 
L 333.787255 106.313001 
L 335.11405 105.342963 
L 335.778845 105.182163 
L 336.449186 104.761435 
L 337.110449 104.691668 
L 337.776965 104.448492 
L 338.448399 104.679091 
L 339.110727 103.722238 
L 339.777712 103.441175 
L 340.449047 103.031109 
L 341.111277 103.591916 
L 341.790601 102.680257 
L 342.447805 102.098687 
L 343.121537 101.885381 
L 343.786101 101.476505 
L 344.454027 101.730001 
L 345.112942 100.989466 
L 345.786997 101.121394 
L 346.451874 100.30569 
L 347.119454 100.208391 
L 347.789505 99.936398 
L 348.450487 99.920799 
L 349.113809 98.653804 
L 349.790272 99.010836 
L 350.457492 98.71032 
L 351.115719 98.21392 
L 351.786339 98.283279 
L 352.458303 97.446883 
L 353.121146 97.476245 
L 353.785261 96.515449 
L 354.450476 96.162756 
L 355.116627 96.490482 
L 355.783556 95.719461 
L 356.451108 95.713624 
L 357.787499 95.411391 
L 358.456061 94.618086 
L 360.452805 94.195179 
L 361.121026 93.303544 
L 361.788841 93.397479 
L 362.456143 92.789597 
L 363.122833 92.627181 
L 363.788811 92.196163 
L 365.126314 91.716372 
L 366.45948 90.796062 
L 367.120382 90.852263 
L 367.787697 90.228745 
L 368.453531 90.183891 
L 369.125235 89.668055 
L 369.787824 89.470222 
L 371.793532 88.127655 
L 372.455743 88.520426 
L 373.122756 87.745724 
L 374.456644 87.745691 
L 375.123282 86.83661 
L 375.793876 86.482226 
L 376.455385 85.901973 
L 377.789369 85.89667 
L 379.124131 84.790204 
L 380.458653 84.450142 
L 381.124078 84.494583 
L 382.456543 83.087304 
L 383.123299 83.399941 
L 383.792054 82.528896 
L 384.457188 82.059404 
L 385.124069 82.400849 
L 385.792503 81.837722 
L 386.462307 81.46683 
L 387.128175 81.249895 
L 387.7952 81.292613 
L 389.127136 81.160099 
L 389.791861 80.416639 
L 390.462026 79.470611 
L 391.127842 79.253973 
L 391.794022 79.451259 
L 392.46043 78.563987 
L 395.130152 77.164439 
L 395.795779 77.190731 
L 396.460926 77.091271 
L 397.129668 76.274748 
L 398.460618 75.493137 
L 399.126768 75.645491 
L 399.795821 75.035914 
L 400.463634 75.219916 
L 401.130136 74.679423 
L 402.462676 74.141112 
L 403.128486 73.647569 
L 403.796273 73.532283 
L 404.462242 73.07015 
L 405.129889 72.893231 
L 405.795528 72.420744 
L 406.462568 72.487699 
L 407.130831 71.818114 
L 408.463721 70.932193 
L 409.13147 70.86306 
L 409.796657 70.100579 
L 410.462444 70.272231 
L 411.13182 70.081353 
L 411.798331 69.510733 
L 412.465023 69.65528 
L 413.131766 68.797757 
L 413.798437 69.019576 
L 414.464916 68.370779 
L 415.13109 68.368108 
L 415.796849 67.988637 
L 416.464901 67.247147 
L 417.132257 67.076256 
L 417.798823 67.502022 
L 418.46451 66.689138 
L 419.131893 66.133045 
L 419.798156 66.163529 
L 421.132131 64.809972 
L 421.799563 64.496039 
L 422.465454 65.217905 
L 423.132199 64.244744 
L 423.79964 63.546681 
L 424.465243 63.220956 
L 424.465243 63.220956 
" style="fill:none;stroke:#1f77b4;stroke-linecap:square;stroke-opacity:0.75;stroke-width:1.5;"/>
   </g>
   <g id="line2d_40">
    <path clip-path="url(#pc2abfa4e09)" d="M 102.458049 321.579187 
L 102.462807 247.563704 
L 104.17639 234.034993 
L 105.831874 228.112534 
L 107.433071 224.451695 
L 108.983427 221.727614 
L 111.943855 217.368118 
L 117.375238 211.745723 
L 119.879998 209.804726 
L 121.08579 208.957784 
L 122.262525 207.787104 
L 125.631592 205.51283 
L 126.704869 205.064176 
L 127.755062 204.194535 
L 129.790028 202.829133 
L 132.691799 201.386675 
L 133.621963 200.852412 
L 134.534739 200.183542 
L 135.430766 199.948093 
L 136.310648 199.226523 
L 137.174956 198.845482 
L 138.024231 198.260719 
L 138.858988 197.993049 
L 140.486876 197.0358 
L 142.062242 196.140952 
L 143.58837 195.381636 
L 145.068244 194.88177 
L 145.791696 194.379498 
L 148.582862 193.052472 
L 150.576286 191.9456 
L 151.223079 191.952242 
L 151.861416 191.403504 
L 152.491517 191.247457 
L 154.334457 190.278893 
L 154.933631 189.708242 
L 155.525543 189.750262 
L 156.110366 189.353807 
L 158.933817 188.240051 
L 159.479433 187.833127 
L 161.08063 187.206869 
L 162.11965 186.727338 
L 162.630986 186.548127 
L 163.637869 185.974884 
L 164.133631 185.865826 
L 164.62441 185.518754 
L 165.591414 185.362869 
L 166.067829 184.892049 
L 167.006937 184.4452 
L 167.469804 184.507042 
L 168.832649 183.834145 
L 169.72053 183.44968 
L 170.158489 183.044432 
L 171.022797 182.922856 
L 171.449281 182.642235 
L 174.334717 181.474471 
L 175.520981 180.864692 
L 176.29611 180.878122 
L 177.059127 180.268288 
L 178.916085 179.725999 
L 179.639537 179.031589 
L 181.05506 178.574356 
L 181.747726 178.203561 
L 182.430703 178.062088 
L 183.768653 177.379056 
L 184.424127 177.336297 
L 185.07092 176.993153 
L 185.709257 176.898002 
L 186.339358 176.318751 
L 189.666671 174.928831 
L 190.248012 175.021071 
L 190.822514 174.60605 
L 192.229877 173.858604 
L 193.055228 173.615295 
L 194.400551 172.849945 
L 194.928471 173.065286 
L 195.709801 172.4743 
L 196.223828 172.422421 
L 198.227478 171.515767 
L 198.958146 171.21479 
L 199.678043 171.043995 
L 201.547443 169.867468 
L 202.230421 169.858114 
L 202.903978 169.442274 
L 203.568371 169.449545 
L 205.084345 168.527924 
L 205.719913 168.465736 
L 206.347315 167.92864 
L 206.966758 167.929231 
L 208.976594 166.892519 
L 210.335826 166.524646 
L 211.658246 165.952047 
L 212.398141 165.589772 
L 212.945797 165.650041 
L 213.666579 165.070182 
L 214.376877 164.784703 
L 215.076991 164.83458 
L 216.952101 163.732669 
L 217.616494 163.627675 
L 219.715387 162.530531 
L 220.96356 162.178886 
L 221.727772 162.007531 
L 222.330645 161.536041 
L 223.660497 161.020602 
L 224.383949 160.636624 
L 225.096839 160.475515 
L 225.659752 160.041559 
L 226.354388 160.069652 
L 227.039282 159.563447 
L 227.714702 159.469087 
L 229.038147 158.963643 
L 229.686657 158.442951 
L 230.326668 158.336653 
L 231.08377 158.041441 
L 231.705843 157.987494 
L 232.44202 157.619889 
L 233.047134 157.535068 
L 233.763511 156.816693 
L 234.352566 156.620661 
L 235.05018 156.599884 
L 235.737967 156.086746 
L 237.085145 155.747153 
L 237.745049 155.153021 
L 238.396153 154.893514 
L 239.03869 155.0488 
L 239.777785 154.609446 
L 240.402511 154.423374 
L 241.019346 153.938996 
L 243.702558 152.756783 
L 244.374791 152.715588 
L 245.037895 152.229759 
L 245.692115 152.016856 
L 246.429217 151.655047 
L 247.692965 151.256646 
L 248.400689 150.878385 
L 250.380059 150.222282 
L 251.71117 149.796148 
L 252.444277 149.226475 
L 253.721006 148.839659 
L 254.424763 148.384569 
L 255.72703 147.96484 
L 257.726501 147.169538 
L 258.446752 147.164148 
L 259.086018 146.57139 
L 260.408708 146.052442 
L 261.090732 145.648784 
L 262.426851 145.286195 
L 263.727383 144.826519 
L 264.428183 144.287745 
L 265.056661 144.213636 
L 265.738772 143.862221 
L 266.411485 143.37534 
L 267.075057 143.507953 
L 267.729733 143.237965 
L 268.434054 142.548004 
L 269.070878 142.302182 
L 269.756252 142.414607 
L 270.43214 142.03752 
L 271.0988 141.537969 
L 272.405423 141.261261 
L 273.782559 140.532579 
L 274.405293 140.399214 
L 276.425524 139.326628 
L 277.113312 139.199489 
L 279.771498 138.145511 
L 280.414035 137.739492 
L 281.093213 137.776778 
L 281.763074 137.201381 
L 284.438293 136.26209 
L 285.763758 135.700568 
L 287.093977 135.349171 
L 287.765355 134.782164 
L 288.427627 134.621124 
L 289.081038 134.32901 
L 289.763485 133.833635 
L 290.436527 133.535536 
L 291.755404 133.363254 
L 293.109958 132.470048 
L 295.107601 131.940025 
L 297.091575 130.792442 
L 297.767351 130.973898 
L 298.433903 130.358799 
L 299.771001 129.812012 
L 300.441196 129.477441 
L 301.102318 129.360752 
L 301.784052 128.902799 
L 303.773944 128.255727 
L 305.111894 127.643096 
L 305.767368 127.347283 
L 306.440925 126.891082 
L 309.096631 125.888034 
L 309.776089 125.579106 
L 310.446222 125.494789 
L 311.107284 125.050936 
L 311.783506 124.939896 
L 313.108489 124.407308 
L 313.780767 123.885236 
L 314.443916 123.85792 
L 315.765903 123.11266 
L 316.446424 123.046327 
L 317.117592 122.499364 
L 317.77966 122.460465 
L 318.453798 122.075168 
L 319.118756 121.934266 
L 320.442201 121.263802 
L 321.120436 121.147375 
L 321.769835 120.710879 
L 323.119406 120.012674 
L 323.780458 119.961645 
L 324.451189 119.774687 
L 325.112831 119.322229 
L 325.783637 119.214473 
L 326.445353 118.594292 
L 327.115746 118.65706 
L 327.777061 118.213183 
L 328.446592 118.023007 
L 329.107068 117.626493 
L 329.775325 117.397104 
L 330.450928 117.371441 
L 331.117311 116.788301 
L 331.774722 116.525851 
L 332.454824 116.419667 
L 333.110089 116.075475 
L 333.787255 115.552062 
L 335.778845 114.91118 
L 336.449186 114.41878 
L 337.110449 114.40916 
L 338.448399 113.626605 
L 339.110727 113.588278 
L 340.449047 112.862557 
L 341.790601 112.322422 
L 342.447805 112.146813 
L 345.786997 110.603637 
L 347.119454 110.337582 
L 350.457492 108.652642 
L 351.115719 108.565098 
L 351.786339 108.132467 
L 352.458303 108.02697 
L 353.121146 107.549138 
L 354.450476 107.165634 
L 355.116627 106.5586 
L 355.783556 106.477356 
L 356.451108 106.089493 
L 357.119136 106.055448 
L 358.456061 105.334786 
L 361.121026 104.150404 
L 361.788841 104.183828 
L 363.788811 103.189296 
L 364.453986 102.87637 
L 365.126314 102.855586 
L 365.789511 102.234416 
L 366.45948 102.065966 
L 367.120382 101.64851 
L 367.787697 101.392108 
L 368.453531 101.417695 
L 369.125235 100.990101 
L 369.787824 100.82177 
L 371.122217 99.990349 
L 372.455743 99.407122 
L 373.122756 99.274263 
L 374.456644 98.654103 
L 375.123282 98.439335 
L 375.793876 98.025478 
L 379.124131 96.768453 
L 379.789993 96.372454 
L 380.458653 96.151277 
L 381.124078 95.781871 
L 382.456543 95.409441 
L 383.123299 95.002377 
L 383.792054 95.020603 
L 384.457188 94.49261 
L 385.124069 94.176134 
L 385.792503 94.130245 
L 386.462307 93.757456 
L 387.128175 93.532378 
L 387.7952 93.067974 
L 389.791861 92.45778 
L 391.127842 91.64181 
L 391.794022 91.577988 
L 393.793411 90.622981 
L 394.459737 90.537399 
L 395.130152 89.993115 
L 395.795779 89.736911 
L 396.460926 89.616918 
L 397.129668 89.245456 
L 397.793496 88.733921 
L 398.460618 88.832 
L 399.126768 88.532771 
L 399.795821 88.04996 
L 400.463634 87.868136 
L 401.130136 87.446495 
L 401.795257 87.212833 
L 402.462676 86.799345 
L 403.128486 86.5631 
L 403.796273 86.543864 
L 405.795528 85.44748 
L 407.130831 85.006326 
L 407.796787 84.800467 
L 409.796657 83.753214 
L 411.13182 83.360463 
L 411.798331 82.932225 
L 412.465023 82.671172 
L 413.131766 82.594894 
L 413.798437 82.036201 
L 414.464916 82.038249 
L 415.13109 81.36083 
L 415.796849 81.379159 
L 416.464901 81.235506 
L 417.132257 80.898592 
L 417.798823 80.413398 
L 418.46451 80.204543 
L 419.131893 79.838828 
L 419.798156 79.803097 
L 420.465813 79.345918 
L 421.132131 79.118358 
L 421.799563 78.666411 
L 423.132199 78.341221 
L 423.79964 77.923074 
L 424.465243 77.746295 
L 424.465243 77.746295 
" style="fill:none;stroke:#ff7f0e;stroke-dasharray:5.55,2.4;stroke-dashoffset:0;stroke-width:1.5;"/>
   </g>
   <g id="line2d_41">
    <path clip-path="url(#pc2abfa4e09)" d="M 102.462807 215.938577 
L 424.465243 63.521928 
L 424.465243 63.521928 
" style="fill:none;stroke:#bf00bf;stroke-dasharray:5.55,2.4;stroke-dashoffset:0;stroke-width:1.5;"/>
   </g>
   <g id="line2d_42">
    <path clip-path="url(#pc2abfa4e09)" d="M 326.695217 125.472 
L 414.190617 88.658598 
" style="fill:none;stroke:#000000;stroke-dasharray:5.55,2.4;stroke-dashoffset:0;stroke-width:1.5;"/>
   </g>
   <g id="line2d_43">
    <path clip-path="url(#pc2abfa4e09)" d="M 326.695217 102.963774 
L 414.190617 61.548697 
" style="fill:none;stroke:#000000;stroke-dasharray:5.55,2.4;stroke-dashoffset:0;stroke-width:1.5;"/>
   </g>
   <g id="patch_3">
    <path d="M 67.967187 273.312 
L 67.967187 7.2 
" style="fill:none;stroke:#000000;stroke-linecap:square;stroke-linejoin:miter;stroke-width:0.8;"/>
   </g>
   <g id="patch_4">
    <path d="M 425.087188 273.312 
L 425.087188 7.2 
" style="fill:none;stroke:#000000;stroke-linecap:square;stroke-linejoin:miter;stroke-width:0.8;"/>
   </g>
   <g id="patch_5">
    <path d="M 67.967187 273.312 
L 425.087187 273.312 
" style="fill:none;stroke:#000000;stroke-linecap:square;stroke-linejoin:miter;stroke-width:0.8;"/>
   </g>
   <g id="patch_6">
    <path d="M 67.967187 7.2 
L 425.087187 7.2 
" style="fill:none;stroke:#000000;stroke-linecap:square;stroke-linejoin:miter;stroke-width:0.8;"/>
   </g>
   <g id="text_14">
    <!-- $L^{8/3}$ -->
    <g transform="translate(375.293115 126.278908)rotate(-25)scale(0.12 -0.12)">
     <defs>
      <path d="M 31.78125 34.625 
Q 24.75 34.625 20.71875 30.859375 
Q 16.703125 27.09375 16.703125 20.515625 
Q 16.703125 13.921875 20.71875 10.15625 
Q 24.75 6.390625 31.78125 6.390625 
Q 38.8125 6.390625 42.859375 10.171875 
Q 46.921875 13.96875 46.921875 20.515625 
Q 46.921875 27.09375 42.890625 30.859375 
Q 38.875 34.625 31.78125 34.625 
z
M 21.921875 38.8125 
Q 15.578125 40.375 12.03125 44.71875 
Q 8.5 49.078125 8.5 55.328125 
Q 8.5 64.0625 14.71875 69.140625 
Q 20.953125 74.21875 31.78125 74.21875 
Q 42.671875 74.21875 48.875 69.140625 
Q 55.078125 64.0625 55.078125 55.328125 
Q 55.078125 49.078125 51.53125 44.71875 
Q 48 40.375 41.703125 38.8125 
Q 48.828125 37.15625 52.796875 32.3125 
Q 56.78125 27.484375 56.78125 20.515625 
Q 56.78125 9.90625 50.3125 4.234375 
Q 43.84375 -1.421875 31.78125 -1.421875 
Q 19.734375 -1.421875 13.25 4.234375 
Q 6.78125 9.90625 6.78125 20.515625 
Q 6.78125 27.484375 10.78125 32.3125 
Q 14.796875 37.15625 21.921875 38.8125 
z
M 18.3125 54.390625 
Q 18.3125 48.734375 21.84375 45.5625 
Q 25.390625 42.390625 31.78125 42.390625 
Q 38.140625 42.390625 41.71875 45.5625 
Q 45.3125 48.734375 45.3125 54.390625 
Q 45.3125 60.0625 41.71875 63.234375 
Q 38.140625 66.40625 31.78125 66.40625 
Q 25.390625 66.40625 21.84375 63.234375 
Q 18.3125 60.0625 18.3125 54.390625 
z
" id="DejaVuSans-56"/>
     </defs>
     <use transform="translate(0 0.765625)" xlink:href="#DejaVuSans-Oblique-76"/>
     <use transform="translate(62.729661 39.046875)scale(0.7)" xlink:href="#DejaVuSans-56"/>
     <use transform="translate(107.265794 39.046875)scale(0.7)" xlink:href="#DejaVuSans-47"/>
     <use transform="translate(130.849779 39.046875)scale(0.7)" xlink:href="#DejaVuSans-51"/>
    </g>
   </g>
   <g id="text_15">
    <!-- $L^3$ -->
    <g transform="translate(365.10212 78.49755)rotate(-30)scale(0.12 -0.12)">
     <use transform="translate(0 0.765625)" xlink:href="#DejaVuSans-Oblique-76"/>
     <use transform="translate(62.729661 39.046875)scale(0.7)" xlink:href="#DejaVuSans-51"/>
    </g>
   </g>
   <g id="legend_1">
    <g id="patch_7">
     <path d="M 76.367188 34.41375 
L 134.207187 34.41375 
Q 136.607187 34.41375 136.607187 32.01375 
L 136.607187 15.6 
Q 136.607187 13.2 134.207187 13.2 
L 76.367188 13.2 
Q 73.967187 13.2 73.967187 15.6 
L 73.967187 32.01375 
Q 73.967187 34.41375 76.367188 34.41375 
z
" style="fill:none;opacity:0;"/>
    </g>
    <g id="line2d_44"/>
    <g id="text_16">
     <!-- $\mathrm{Var}(\tau_{\mathrm{Env}})$ -->
     <g style="fill:#1f77b4;" transform="translate(78.767187 27.118125)scale(0.12 -0.12)">
      <use transform="translate(0 0.125)" xlink:href="#DejaVuSans-86"/>
      <use transform="translate(68.408203 0.125)" xlink:href="#DejaVuSans-97"/>
      <use transform="translate(129.6875 0.125)" xlink:href="#DejaVuSans-114"/>
      <use transform="translate(170.800781 0.125)" xlink:href="#DejaVuSans-40"/>
      <use transform="translate(209.814453 0.125)" xlink:href="#DejaVuSans-Oblique-964"/>
      <use transform="translate(270.019531 -16.28125)scale(0.7)" xlink:href="#DejaVuSans-69"/>
      <use transform="translate(314.248047 -16.28125)scale(0.7)" xlink:href="#DejaVuSans-110"/>
      <use transform="translate(358.613281 -16.28125)scale(0.7)" xlink:href="#DejaVuSans-118"/>
      <use transform="translate(402.773438 0.125)" xlink:href="#DejaVuSans-41"/>
     </g>
    </g>
   </g>
  </g>
 </g>
 <defs>
  <clipPath id="pc2abfa4e09">
   <rect height="266.112" width="357.12" x="67.967187" y="7.2"/>
  </clipPath>
 </defs>
</svg>
