<?xml version="1.0" encoding="UTF-8" standalone="no"?>
<!-- Created with matplotlib (https://matplotlib.org/) -->

<svg
   height="320.579187pt"
   version="1.1"
   viewBox="0 0 432.287187 320.579187"
   width="432.287187pt"
   id="svg1218"
   sodipodi:docname="EnvShortTime.svg"
   inkscape:version="1.2.2 (732a01da63, 2022-12-09, custom)"
   xmlns:inkscape="http://www.inkscape.org/namespaces/inkscape"
   xmlns:sodipodi="http://sodipodi.sourceforge.net/DTD/sodipodi-0.dtd"
   xmlns:xlink="http://www.w3.org/1999/xlink"
   xmlns="http://www.w3.org/2000/svg"
   xmlns:svg="http://www.w3.org/2000/svg"
   xmlns:rdf="http://www.w3.org/1999/02/22-rdf-syntax-ns#"
   xmlns:cc="http://creativecommons.org/ns#"
   xmlns:dc="http://purl.org/dc/elements/1.1/">
  <sodipodi:namedview
     id="namedview1220"
     pagecolor="#505050"
     bordercolor="#eeeeee"
     borderopacity="1"
     inkscape:showpageshadow="0"
     inkscape:pageopacity="0"
     inkscape:pagecheckerboard="0"
     inkscape:deskcolor="#505050"
     inkscape:document-units="pt"
     showgrid="false"
     inkscape:zoom="1.9979463"
     inkscape:cx="289.29707"
     inkscape:cy="214.47023"
     inkscape:window-width="1920"
     inkscape:window-height="1052"
     inkscape:window-x="1920"
     inkscape:window-y="0"
     inkscape:window-maximized="1"
     inkscape:current-layer="svg1218" />
  <metadata
     id="metadata702">
    <rdf:RDF>
      <cc:Work>
        <dc:type
           rdf:resource="http://purl.org/dc/dcmitype/StillImage" />
        <dc:date>2023-02-28T10:13:07.460942</dc:date>
        <dc:format>image/svg+xml</dc:format>
        <dc:creator>
          <cc:Agent>
            <dc:title>Matplotlib v3.3.4, https://matplotlib.org/</dc:title>
          </cc:Agent>
        </dc:creator>
      </cc:Work>
    </rdf:RDF>
  </metadata>
  <defs
     id="defs706">
    <style
       type="text/css"
       id="style704">*{stroke-linecap:butt;stroke-linejoin:round;}</style>
  </defs>
  <path
     d="M 0,320.57919 H 432.28719 V 0 H 0 Z"
     style="fill:#ffffff"
     id="path708" />
  <g
     id="patch_2">
    <path
       d="M 67.967187,273.312 H 425.08719 V 7.2 H 67.967187 Z"
       style="fill:#ffffff"
       id="path711" />
  </g>
  <g
     id="matplotlib.axis_1">
    <g
       id="xtick_1">
      <g
         id="line2d_1">
        <defs
           id="defs715">
          <path
             d="M 0,0 V 3.5"
             id="m82f7fdbc29"
             style="stroke:#000000;stroke-width:0.8" />
        </defs>
        <g
           id="g719">
          <use
             style="stroke:#000000;stroke-width:0.8"
             x="101.81503"
             xlink:href="#m82f7fdbc29"
             y="273.31201"
             id="use717" />
        </g>
      </g>
      <g
         id="text_1">
        <!-- $\mathdefault{10^{0}}$ -->
        <g
           transform="matrix(0.15,0,0,-0.15,88.615029,291.70966)"
           id="g732">
          <defs
             id="defs724">
            <path
               d="m 12.40625,8.296875 h 16.109375 v 55.625 L 10.984375,60.40625 v 8.984375 l 17.4375,3.515625 H 38.28125 V 8.296875 H 54.390625 V 0 H 12.40625 Z"
               id="DejaVuSans-49" />
            <path
               d="m 31.78125,66.40625 q -7.609375,0 -11.453125,-7.5 Q 16.5,51.421875 16.5,36.375 q 0,-14.984375 3.828125,-22.484375 3.84375,-7.5 11.453125,-7.5 7.671875,0 11.5,7.5 3.84375,7.5 3.84375,22.484375 0,15.046875 -3.84375,22.53125 -3.828125,7.5 -11.5,7.5 z m 0,7.8125 q 12.265625,0 18.734375,-9.703125 6.46875,-9.6875 6.46875,-28.140625 0,-18.40625 -6.46875,-28.109375 -6.46875,-9.6875 -18.734375,-9.6875 -12.25,0 -18.71875,9.6875 Q 6.59375,17.96875 6.59375,36.375 q 0,18.453125 6.46875,28.140625 6.46875,9.703125 18.71875,9.703125 z"
               id="DejaVuSans-48" />
          </defs>
          <use
             transform="translate(0,0.765625)"
             xlink:href="#DejaVuSans-49"
             id="use726" />
          <use
             transform="translate(63.623047,0.765625)"
             xlink:href="#DejaVuSans-48"
             id="use728" />
          <use
             transform="matrix(0.7,0,0,0.7,128.20312,39.046875)"
             xlink:href="#DejaVuSans-48"
             id="use730" />
        </g>
      </g>
    </g>
    <g
       id="xtick_2">
      <g
         id="line2d_2">
        <g
           id="g738">
          <use
             style="stroke:#000000;stroke-width:0.8"
             x="214.25513"
             xlink:href="#m82f7fdbc29"
             y="273.31201"
             id="use736" />
        </g>
      </g>
      <g
         id="text_2">
        <!-- $\mathdefault{10^{1}}$ -->
        <g
           transform="matrix(0.15,0,0,-0.15,201.05512,291.70966)"
           id="g747">
          <use
             transform="translate(0,0.684375)"
             xlink:href="#DejaVuSans-49"
             id="use741" />
          <use
             transform="translate(63.623047,0.684375)"
             xlink:href="#DejaVuSans-48"
             id="use743" />
          <use
             transform="matrix(0.7,0,0,0.7,128.20312,38.965625)"
             xlink:href="#DejaVuSans-49"
             id="use745" />
        </g>
      </g>
    </g>
    <g
       id="xtick_3">
      <g
         id="line2d_3">
        <g
           id="g753">
          <use
             style="stroke:#000000;stroke-width:0.8"
             x="326.69522"
             xlink:href="#m82f7fdbc29"
             y="273.31201"
             id="use751" />
        </g>
      </g>
      <g
         id="text_3">
        <!-- $\mathdefault{10^{2}}$ -->
        <g
           transform="matrix(0.15,0,0,-0.15,313.49522,291.70966)"
           id="g765">
          <defs
             id="defs757">
            <path
               d="M 19.1875,8.296875 H 53.609375 V 0 H 7.328125 v 8.296875 q 5.609375,5.8125 15.296875,15.59375 9.703125,9.796875 12.1875,12.640625 4.734375,5.3125 6.609375,9 1.890625,3.6875 1.890625,7.25 0,5.8125 -4.078125,9.46875 -4.078125,3.671875 -10.625,3.671875 -4.640625,0 -9.796875,-1.609375 -5.140625,-1.609375 -11,-4.890625 v 9.96875 Q 13.765625,71.78125 18.9375,73 q 5.1875,1.21875 9.484375,1.21875 11.328125,0 18.0625,-5.671875 6.734375,-5.65625 6.734375,-15.125 0,-4.5 -1.6875,-8.53125 Q 49.859375,40.875 45.40625,35.40625 44.1875,33.984375 37.640625,27.21875 31.109375,20.453125 19.1875,8.296875 Z"
               id="DejaVuSans-50" />
          </defs>
          <use
             transform="translate(0,0.765625)"
             xlink:href="#DejaVuSans-49"
             id="use759" />
          <use
             transform="translate(63.623047,0.765625)"
             xlink:href="#DejaVuSans-48"
             id="use761" />
          <use
             transform="matrix(0.7,0,0,0.7,128.20312,39.046875)"
             xlink:href="#DejaVuSans-50"
             id="use763" />
        </g>
      </g>
    </g>
    <g
       id="xtick_4">
      <g
         id="line2d_4">
        <defs
           id="defs770">
          <path
             d="M 0,0 V 2"
             id="mb0b497586e"
             style="stroke:#000000;stroke-width:0.6" />
        </defs>
        <g
           id="g774">
          <use
             style="stroke:#000000;stroke-width:0.6"
             x="67.967186"
             xlink:href="#mb0b497586e"
             y="273.31201"
             id="use772" />
        </g>
      </g>
    </g>
    <g
       id="xtick_5">
      <g
         id="line2d_5">
        <g
           id="g780">
          <use
             style="stroke:#000000;stroke-width:0.6"
             x="76.870331"
             xlink:href="#mb0b497586e"
             y="273.31201"
             id="use778" />
        </g>
      </g>
    </g>
    <g
       id="xtick_6">
      <g
         id="line2d_6">
        <g
           id="g786">
          <use
             style="stroke:#000000;stroke-width:0.6"
             x="84.397835"
             xlink:href="#mb0b497586e"
             y="273.31201"
             id="use784" />
        </g>
      </g>
    </g>
    <g
       id="xtick_7">
      <g
         id="line2d_7">
        <g
           id="g792">
          <use
             style="stroke:#000000;stroke-width:0.6"
             x="90.918457"
             xlink:href="#mb0b497586e"
             y="273.31201"
             id="use790" />
        </g>
      </g>
    </g>
    <g
       id="xtick_8">
      <g
         id="line2d_8">
        <g
           id="g798">
          <use
             style="stroke:#000000;stroke-width:0.6"
             x="96.670052"
             xlink:href="#mb0b497586e"
             y="273.31201"
             id="use796" />
        </g>
      </g>
    </g>
    <g
       id="xtick_9">
      <g
         id="line2d_9">
        <g
           id="g804">
          <use
             style="stroke:#000000;stroke-width:0.6"
             x="135.66287"
             xlink:href="#mb0b497586e"
             y="273.31201"
             id="use802" />
        </g>
      </g>
    </g>
    <g
       id="xtick_10">
      <g
         id="line2d_10">
        <g
           id="g810">
          <use
             style="stroke:#000000;stroke-width:0.6"
             x="155.46259"
             xlink:href="#mb0b497586e"
             y="273.31201"
             id="use808" />
        </g>
      </g>
    </g>
    <g
       id="xtick_11">
      <g
         id="line2d_11">
        <g
           id="g816">
          <use
             style="stroke:#000000;stroke-width:0.6"
             x="169.51071"
             xlink:href="#mb0b497586e"
             y="273.31201"
             id="use814" />
        </g>
      </g>
    </g>
    <g
       id="xtick_12">
      <g
         id="line2d_12">
        <g
           id="g822">
          <use
             style="stroke:#000000;stroke-width:0.6"
             x="180.40729"
             xlink:href="#mb0b497586e"
             y="273.31201"
             id="use820" />
        </g>
      </g>
    </g>
    <g
       id="xtick_13">
      <g
         id="line2d_13">
        <g
           id="g828">
          <use
             style="stroke:#000000;stroke-width:0.6"
             x="189.31042"
             xlink:href="#mb0b497586e"
             y="273.31201"
             id="use826" />
        </g>
      </g>
    </g>
    <g
       id="xtick_14">
      <g
         id="line2d_14">
        <g
           id="g834">
          <use
             style="stroke:#000000;stroke-width:0.6"
             x="196.83794"
             xlink:href="#mb0b497586e"
             y="273.31201"
             id="use832" />
        </g>
      </g>
    </g>
    <g
       id="xtick_15">
      <g
         id="line2d_15">
        <g
           id="g840">
          <use
             style="stroke:#000000;stroke-width:0.6"
             x="203.35855"
             xlink:href="#mb0b497586e"
             y="273.31201"
             id="use838" />
        </g>
      </g>
    </g>
    <g
       id="xtick_16">
      <g
         id="line2d_16">
        <g
           id="g846">
          <use
             style="stroke:#000000;stroke-width:0.6"
             x="209.11015"
             xlink:href="#mb0b497586e"
             y="273.31201"
             id="use844" />
        </g>
      </g>
    </g>
    <g
       id="xtick_17">
      <g
         id="line2d_17">
        <g
           id="g852">
          <use
             style="stroke:#000000;stroke-width:0.6"
             x="248.10297"
             xlink:href="#mb0b497586e"
             y="273.31201"
             id="use850" />
        </g>
      </g>
    </g>
    <g
       id="xtick_18">
      <g
         id="line2d_18">
        <g
           id="g858">
          <use
             style="stroke:#000000;stroke-width:0.6"
             x="267.90268"
             xlink:href="#mb0b497586e"
             y="273.31201"
             id="use856" />
        </g>
      </g>
    </g>
    <g
       id="xtick_19">
      <g
         id="line2d_19">
        <g
           id="g864">
          <use
             style="stroke:#000000;stroke-width:0.6"
             x="281.95081"
             xlink:href="#mb0b497586e"
             y="273.31201"
             id="use862" />
        </g>
      </g>
    </g>
    <g
       id="xtick_20">
      <g
         id="line2d_20">
        <g
           id="g870">
          <use
             style="stroke:#000000;stroke-width:0.6"
             x="292.84738"
             xlink:href="#mb0b497586e"
             y="273.31201"
             id="use868" />
        </g>
      </g>
    </g>
    <g
       id="xtick_21">
      <g
         id="line2d_21">
        <g
           id="g876">
          <use
             style="stroke:#000000;stroke-width:0.6"
             x="301.75052"
             xlink:href="#mb0b497586e"
             y="273.31201"
             id="use874" />
        </g>
      </g>
    </g>
    <g
       id="xtick_22">
      <g
         id="line2d_22">
        <g
           id="g882">
          <use
             style="stroke:#000000;stroke-width:0.6"
             x="309.27802"
             xlink:href="#mb0b497586e"
             y="273.31201"
             id="use880" />
        </g>
      </g>
    </g>
    <g
       id="xtick_23">
      <g
         id="line2d_23">
        <g
           id="g888">
          <use
             style="stroke:#000000;stroke-width:0.6"
             x="315.79865"
             xlink:href="#mb0b497586e"
             y="273.31201"
             id="use886" />
        </g>
      </g>
    </g>
    <g
       id="xtick_24">
      <g
         id="line2d_24">
        <g
           id="g894">
          <use
             style="stroke:#000000;stroke-width:0.6"
             x="321.55023"
             xlink:href="#mb0b497586e"
             y="273.31201"
             id="use892" />
        </g>
      </g>
    </g>
    <g
       id="xtick_25">
      <g
         id="line2d_25">
        <g
           id="g900">
          <use
             style="stroke:#000000;stroke-width:0.6"
             x="360.54306"
             xlink:href="#mb0b497586e"
             y="273.31201"
             id="use898" />
        </g>
      </g>
    </g>
    <g
       id="xtick_26">
      <g
         id="line2d_26">
        <g
           id="g906">
          <use
             style="stroke:#000000;stroke-width:0.6"
             x="380.34277"
             xlink:href="#mb0b497586e"
             y="273.31201"
             id="use904" />
        </g>
      </g>
    </g>
    <g
       id="xtick_27">
      <g
         id="line2d_27">
        <g
           id="g912">
          <use
             style="stroke:#000000;stroke-width:0.6"
             x="394.3909"
             xlink:href="#mb0b497586e"
             y="273.31201"
             id="use910" />
        </g>
      </g>
    </g>
    <g
       id="xtick_28">
      <g
         id="line2d_28">
        <g
           id="g918">
          <use
             style="stroke:#000000;stroke-width:0.6"
             x="405.28748"
             xlink:href="#mb0b497586e"
             y="273.31201"
             id="use916" />
        </g>
      </g>
    </g>
    <g
       id="xtick_29">
      <g
         id="line2d_29">
        <g
           id="g924">
          <use
             style="stroke:#000000;stroke-width:0.6"
             x="414.19061"
             xlink:href="#mb0b497586e"
             y="273.31201"
             id="use922" />
        </g>
      </g>
    </g>
    <g
       id="xtick_30">
      <g
         id="line2d_30">
        <g
           id="g930">
          <use
             style="stroke:#000000;stroke-width:0.6"
             x="421.71811"
             xlink:href="#mb0b497586e"
             y="273.31201"
             id="use928" />
        </g>
      </g>
    </g>
    <g
       id="text_4">
      <!-- $L / \log(N)$ -->
      <g
         transform="matrix(0.15,0,0,-0.15,216.90219,310.22919)"
         id="g960">
        <defs
           id="defs942">
          <path
             d="m 16.796875,72.90625 h 9.90625 l -12.5,-64.703125 h 35.5 L 48.09375,0 H 2.6875 Z"
             id="DejaVuSans-Oblique-76" />
          <path
             d="M 25.390625,72.90625 H 33.6875 L 8.296875,-9.28125 H 0 Z"
             id="DejaVuSans-47" />
          <path
             d="M 9.421875,75.984375 H 18.40625 V 0 H 9.421875 Z"
             id="DejaVuSans-108" />
          <path
             d="m 30.609375,48.390625 q -7.21875,0 -11.421875,-5.640625 -4.203125,-5.640625 -4.203125,-15.453125 0,-9.8125 4.171875,-15.453125 4.1875,-5.640625 11.453125,-5.640625 7.1875,0 11.375,5.65625 4.203125,5.671875 4.203125,15.4375 0,9.71875 -4.203125,15.40625 -4.1875,5.6875 -11.375,5.6875 z m 0,7.609375 q 11.71875,0 18.40625,-7.625 6.703125,-7.609375 6.703125,-21.078125 0,-13.421875 -6.703125,-21.078125 -6.6875,-7.640625 -18.40625,-7.640625 -11.765625,0 -18.4375,7.640625 -6.65625,7.65625 -6.65625,21.078125 0,13.46875 6.65625,21.078125 Q 18.84375,56 30.609375,56 Z"
             id="DejaVuSans-111" />
          <path
             d="m 45.40625,27.984375 q 0,9.765625 -4.03125,15.125 -4.015625,5.375 -11.296875,5.375 -7.21875,0 -11.25,-5.375 -4.03125,-5.359375 -4.03125,-15.125 0,-9.71875 4.03125,-15.09375 4.03125,-5.375 11.25,-5.375 7.28125,0 11.296875,5.375 4.03125,5.375 4.03125,15.09375 z M 54.390625,6.78125 q 0,-13.953125 -6.203125,-20.765625 -6.1875,-6.8125 -18.984375,-6.8125 -4.734375,0 -8.9375,0.703125 -4.203125,0.703125 -8.15625,2.171875 V -9.1875 q 3.953125,-2.140625 7.8125,-3.15625 3.859375,-1.03125 7.859375,-1.03125 8.84375,0 13.234375,4.609375 4.390625,4.609375 4.390625,13.9375 V 9.625 Q 42.625,4.78125 38.28125,2.390625 33.9375,0 27.875,0 17.828125,0 11.671875,7.65625 q -6.15625,7.671875 -6.15625,20.328125 0,12.6875 6.15625,20.34375 Q 17.828125,56 27.875,56 q 6.0625,0 10.40625,-2.390625 4.34375,-2.390625 7.125,-7.21875 V 54.6875 h 8.984375 z"
             id="DejaVuSans-103" />
          <path
             d="M 31,75.875 Q 24.46875,64.65625 21.28125,53.65625 18.109375,42.671875 18.109375,31.390625 18.109375,20.125 21.3125,9.0625 24.515625,-2 31,-13.1875 H 23.1875 Q 15.875,-1.703125 12.234375,9.375 8.59375,20.453125 8.59375,31.390625 q 0,10.890625 3.609375,21.921875 3.625,11.046875 10.984375,22.5625 z"
             id="DejaVuSans-40" />
          <path
             d="m 16.890625,72.90625 h 13.28125 l 20.125,-62.5 12.203125,62.5 h 9.625 L 57.90625,0 H 44.578125 L 24.515625,62.890625 12.3125,0 h -9.625 z"
             id="DejaVuSans-Oblique-78" />
          <path
             d="m 8.015625,75.875 h 7.8125 q 7.3125,-11.515625 10.953125,-22.5625 3.640625,-11.03125 3.640625,-21.921875 0,-10.9375 -3.640625,-22.015625 -3.640625,-11.078125 -10.953125,-22.5625 h -7.8125 Q 14.5,-2 17.703125,9.0625 20.90625,20.125 20.90625,31.390625 q 0,11.28125 -3.203125,22.265625 -3.203125,11 -9.6875,22.21875 z"
             id="DejaVuSans-41" />
        </defs>
        <use
           transform="translate(0,0.015625)"
           xlink:href="#DejaVuSans-Oblique-76"
           id="use944" />
        <use
           transform="translate(55.712891,0.015625)"
           xlink:href="#DejaVuSans-47"
           id="use946" />
        <use
           transform="translate(89.404297,0.015625)"
           xlink:href="#DejaVuSans-108"
           id="use948" />
        <use
           transform="translate(117.1875,0.015625)"
           xlink:href="#DejaVuSans-111"
           id="use950" />
        <use
           transform="translate(178.36914,0.015625)"
           xlink:href="#DejaVuSans-103"
           id="use952" />
        <use
           transform="translate(241.8457,0.015625)"
           xlink:href="#DejaVuSans-40"
           id="use954" />
        <use
           transform="translate(280.85937,0.015625)"
           xlink:href="#DejaVuSans-Oblique-78"
           id="use956" />
        <use
           transform="translate(355.66406,0.015625)"
           xlink:href="#DejaVuSans-41"
           id="use958" />
      </g>
    </g>
  </g>
  <g
     id="matplotlib.axis_2">
    <g
       id="ytick_1">
      <g
         id="line2d_31">
        <defs
           id="defs965">
          <path
             d="M 0,0 H -3.5"
             id="m52bc387f50"
             style="stroke:#000000;stroke-width:0.8" />
        </defs>
        <g
           id="g969">
          <use
             style="stroke:#000000;stroke-width:0.8"
             x="67.967186"
             xlink:href="#m52bc387f50"
             y="273.31201"
             id="use967" />
        </g>
      </g>
      <g
         id="text_5">
        <!-- $\mathdefault{10^{-3}}$ -->
        <g
           transform="matrix(0.15,0,0,-0.15,25.717187,279.01083)"
           id="g984">
          <defs
             id="defs974">
            <path
               d="M 10.59375,35.5 H 73.1875 V 27.203125 H 10.59375 Z"
               id="DejaVuSans-8722" />
            <path
               d="M 40.578125,39.3125 Q 47.65625,37.796875 51.625,33 q 3.984375,-4.78125 3.984375,-11.8125 0,-10.78125 -7.421875,-16.703125 -7.421875,-5.90625 -21.09375,-5.90625 -4.578125,0 -9.4375,0.90625 -4.859375,0.90625 -10.03125,2.71875 v 9.515625 q 4.09375,-2.390625 8.96875,-3.609375 4.890625,-1.21875 10.21875,-1.21875 9.265625,0 14.125,3.65625 4.859375,3.65625 4.859375,10.640625 0,6.453125 -4.515625,10.078125 -4.515625,3.640625 -12.5625,3.640625 h -8.5 v 8.109375 h 8.890625 q 7.265625,0 11.125,2.90625 3.859375,2.90625 3.859375,8.375 0,5.609375 -3.984375,8.609375 -3.96875,3.015625 -11.390625,3.015625 -4.0625,0 -8.703125,-0.890625 Q 15.375,64.15625 9.8125,62.3125 v 8.78125 q 5.625,1.5625 10.53125,2.34375 4.90625,0.78125 9.25,0.78125 11.234375,0 17.765625,-5.109375 6.546875,-5.09375 6.546875,-13.78125 0,-6.0625 -3.46875,-10.234375 -3.46875,-4.171875 -9.859375,-5.78125 z"
               id="DejaVuSans-51" />
          </defs>
          <use
             transform="translate(0,0.765625)"
             xlink:href="#DejaVuSans-49"
             id="use976" />
          <use
             transform="translate(63.623047,0.765625)"
             xlink:href="#DejaVuSans-48"
             id="use978" />
          <use
             transform="matrix(0.7,0,0,0.7,128.20312,39.046875)"
             xlink:href="#DejaVuSans-8722"
             id="use980" />
          <use
             transform="matrix(0.7,0,0,0.7,186.85547,39.046875)"
             xlink:href="#DejaVuSans-51"
             id="use982" />
        </g>
      </g>
    </g>
    <g
       id="ytick_2">
      <g
         id="line2d_32">
        <g
           id="g990">
          <use
             style="stroke:#000000;stroke-width:0.8"
             x="67.967186"
             xlink:href="#m52bc387f50"
             y="237.8304"
             id="use988" />
        </g>
      </g>
      <g
         id="text_6">
        <!-- $\mathdefault{10^{-1}}$ -->
        <g
           transform="matrix(0.15,0,0,-0.15,25.717187,243.52923)"
           id="g1001">
          <use
             transform="translate(0,0.684375)"
             xlink:href="#DejaVuSans-49"
             id="use993" />
          <use
             transform="translate(63.623047,0.684375)"
             xlink:href="#DejaVuSans-48"
             id="use995" />
          <use
             transform="matrix(0.7,0,0,0.7,128.20312,38.965625)"
             xlink:href="#DejaVuSans-8722"
             id="use997" />
          <use
             transform="matrix(0.7,0,0,0.7,186.85547,38.965625)"
             xlink:href="#DejaVuSans-49"
             id="use999" />
        </g>
      </g>
    </g>
    <g
       id="ytick_3">
      <g
         id="line2d_33">
        <g
           id="g1007">
          <use
             style="stroke:#000000;stroke-width:0.8"
             x="67.967186"
             xlink:href="#m52bc387f50"
             y="202.3488"
             id="use1005" />
        </g>
      </g>
      <g
         id="text_7">
        <!-- $\mathdefault{10^{1}}$ -->
        <g
           transform="matrix(0.15,0,0,-0.15,34.567187,208.04763)"
           id="g1016">
          <use
             transform="translate(0,0.684375)"
             xlink:href="#DejaVuSans-49"
             id="use1010" />
          <use
             transform="translate(63.623047,0.684375)"
             xlink:href="#DejaVuSans-48"
             id="use1012" />
          <use
             transform="matrix(0.7,0,0,0.7,128.20312,38.965625)"
             xlink:href="#DejaVuSans-49"
             id="use1014" />
        </g>
      </g>
    </g>
    <g
       id="ytick_4">
      <g
         id="line2d_34">
        <g
           id="g1022">
          <use
             style="stroke:#000000;stroke-width:0.8"
             x="67.967186"
             xlink:href="#m52bc387f50"
             y="166.8672"
             id="use1020" />
        </g>
      </g>
      <g
         id="text_8">
        <!-- $\mathdefault{10^{3}}$ -->
        <g
           transform="matrix(0.15,0,0,-0.15,34.567187,172.56603)"
           id="g1031">
          <use
             transform="translate(0,0.765625)"
             xlink:href="#DejaVuSans-49"
             id="use1025" />
          <use
             transform="translate(63.623047,0.765625)"
             xlink:href="#DejaVuSans-48"
             id="use1027" />
          <use
             transform="matrix(0.7,0,0,0.7,128.20312,39.046875)"
             xlink:href="#DejaVuSans-51"
             id="use1029" />
        </g>
      </g>
    </g>
    <g
       id="ytick_5">
      <g
         id="line2d_35">
        <g
           id="g1037">
          <use
             style="stroke:#000000;stroke-width:0.8"
             x="67.967186"
             xlink:href="#m52bc387f50"
             y="131.3856"
             id="use1035" />
        </g>
      </g>
      <g
         id="text_9">
        <!-- $\mathdefault{10^{5}}$ -->
        <g
           transform="matrix(0.15,0,0,-0.15,34.567187,137.08443)"
           id="g1049">
          <defs
             id="defs1041">
            <path
               d="m 10.796875,72.90625 h 38.71875 v -8.3125 h -29.6875 V 46.734375 q 2.140625,0.734375 4.28125,1.09375 2.15625,0.359375 4.3125,0.359375 Q 40.625,48.1875 47.75,41.5 54.890625,34.8125 54.890625,23.390625 54.890625,11.625 47.5625,5.09375 40.234375,-1.421875 26.90625,-1.421875 q -4.59375,0 -9.359375,0.78125 -4.75,0.78125 -9.828125,2.34375 V 11.625 q 4.390625,-2.390625 9.078125,-3.5625 4.6875,-1.171875 9.90625,-1.171875 8.453125,0 13.375,4.4375 4.9375,4.4375 4.9375,12.0625 0,7.609375 -4.9375,12.046875 -4.921875,4.453125 -13.375,4.453125 -3.953125,0 -7.890625,-0.875 -3.921875,-0.875 -8.015625,-2.734375 z"
               id="DejaVuSans-53" />
          </defs>
          <use
             transform="translate(0,0.684375)"
             xlink:href="#DejaVuSans-49"
             id="use1043" />
          <use
             transform="translate(63.623047,0.684375)"
             xlink:href="#DejaVuSans-48"
             id="use1045" />
          <use
             transform="matrix(0.7,0,0,0.7,128.20312,38.965625)"
             xlink:href="#DejaVuSans-53"
             id="use1047" />
        </g>
      </g>
    </g>
    <g
       id="ytick_6">
      <g
         id="line2d_36">
        <g
           id="g1055">
          <use
             style="stroke:#000000;stroke-width:0.8"
             x="67.967186"
             xlink:href="#m52bc387f50"
             y="95.903999"
             id="use1053" />
        </g>
      </g>
      <g
         id="text_10">
        <!-- $\mathdefault{10^{7}}$ -->
        <g
           transform="matrix(0.15,0,0,-0.15,34.567187,101.60283)"
           id="g1067">
          <defs
             id="defs1059">
            <path
               d="m 8.203125,72.90625 h 46.875 V 68.703125 L 28.609375,0 H 18.3125 L 43.21875,64.59375 H 8.203125 Z"
               id="DejaVuSans-55" />
          </defs>
          <use
             transform="translate(0,0.684375)"
             xlink:href="#DejaVuSans-49"
             id="use1061" />
          <use
             transform="translate(63.623047,0.684375)"
             xlink:href="#DejaVuSans-48"
             id="use1063" />
          <use
             transform="matrix(0.7,0,0,0.7,128.20312,38.965625)"
             xlink:href="#DejaVuSans-55"
             id="use1065" />
        </g>
      </g>
    </g>
    <g
       id="ytick_7">
      <g
         id="line2d_37">
        <g
           id="g1073">
          <use
             style="stroke:#000000;stroke-width:0.8"
             x="67.967186"
             xlink:href="#m52bc387f50"
             y="60.422401"
             id="use1071" />
        </g>
      </g>
      <g
         id="text_11">
        <!-- $\mathdefault{10^{9}}$ -->
        <g
           transform="matrix(0.15,0,0,-0.15,34.567187,66.121228)"
           id="g1085">
          <defs
             id="defs1077">
            <path
               d="M 10.984375,1.515625 V 10.5 Q 14.703125,8.734375 18.5,7.8125 q 3.8125,-0.921875 7.484375,-0.921875 9.765625,0 14.90625,6.5625 5.15625,6.5625 5.890625,19.953125 -2.828125,-4.203125 -7.1875,-6.453125 -4.34375,-2.25 -9.609375,-2.25 -10.9375,0 -17.3125,6.609375 -6.375,6.625 -6.375,18.109375 0,11.21875 6.640625,18 6.640625,6.796875 17.671875,6.796875 12.65625,0 19.3125,-9.703125 6.671875,-9.6875 6.671875,-28.140625 0,-17.234375 -8.1875,-27.515625 -8.171875,-10.28125 -21.984375,-10.28125 -3.71875,0 -7.53125,0.734375 -3.796875,0.734375 -7.90625,2.203125 z m 19.625,30.90625 q 6.640625,0 10.515625,4.53125 3.890625,4.546875 3.890625,12.46875 0,7.859375 -3.890625,12.421875 -3.875,4.5625 -10.515625,4.5625 -6.640625,0 -10.515625,-4.5625 -3.875,-4.5625 -3.875,-12.421875 0,-7.921875 3.875,-12.46875 3.875,-4.53125 10.515625,-4.53125 z"
               id="DejaVuSans-57" />
          </defs>
          <use
             transform="translate(0,0.765625)"
             xlink:href="#DejaVuSans-49"
             id="use1079" />
          <use
             transform="translate(63.623047,0.765625)"
             xlink:href="#DejaVuSans-48"
             id="use1081" />
          <use
             transform="matrix(0.7,0,0,0.7,128.20312,39.046875)"
             xlink:href="#DejaVuSans-57"
             id="use1083" />
        </g>
      </g>
    </g>
    <g
       id="ytick_8">
      <g
         id="line2d_38">
        <g
           id="g1091">
          <use
             style="stroke:#000000;stroke-width:0.8"
             x="67.967186"
             xlink:href="#m52bc387f50"
             y="24.9408"
             id="use1089" />
        </g>
      </g>
      <g
         id="text_12">
        <!-- $\mathdefault{10^{11}}$ -->
        <g
           transform="matrix(0.15,0,0,-0.15,27.817187,30.639628)"
           id="g1102">
          <use
             transform="translate(0,0.684375)"
             xlink:href="#DejaVuSans-49"
             id="use1094" />
          <use
             transform="translate(63.623047,0.684375)"
             xlink:href="#DejaVuSans-48"
             id="use1096" />
          <use
             transform="matrix(0.7,0,0,0.7,128.20312,38.965625)"
             xlink:href="#DejaVuSans-49"
             id="use1098" />
          <use
             transform="matrix(0.7,0,0,0.7,172.73926,38.965625)"
             xlink:href="#DejaVuSans-49"
             id="use1100" />
        </g>
      </g>
    </g>
    <g
       id="text_13">
      <!-- $\mathrm{Var}(\tau_{\mathrm{Env}})$ -->
      <g
         transform="matrix(0,-0.15,-0.15,0,18.597656,173.406)"
         id="g1133">
        <defs
           id="defs1113">
          <path
             d="M 28.609375,0 0.78125,72.90625 h 10.296875 l 23.109375,-61.375 23.140625,61.375 h 10.25 L 39.796875,0 Z"
             id="DejaVuSans-86" />
          <path
             d="m 34.28125,27.484375 q -10.890625,0 -15.09375,-2.484375 -4.203125,-2.484375 -4.203125,-8.5 0,-4.78125 3.15625,-7.59375 3.15625,-2.796875 8.5625,-2.796875 7.484375,0 12,5.296875 4.515625,5.296875 4.515625,14.078125 v 2 z m 17.921875,3.71875 V 0 H 43.21875 v 8.296875 q -3.078125,-4.96875 -7.671875,-7.34375 -4.59375,-2.375 -11.234375,-2.375 -8.390625,0 -13.359375,4.71875 Q 6,8.015625 6,15.921875 q 0,9.21875 6.171875,13.90625 6.1875,4.6875 18.4375,4.6875 H 43.21875 v 0.890625 q 0,6.203125 -4.078125,9.59375 -4.078125,3.390625 -11.453125,3.390625 -4.6875,0 -9.140625,-1.125 -4.4375,-1.125 -8.53125,-3.375 v 8.3125 q 4.921875,1.90625 9.5625,2.84375 Q 24.21875,56 28.609375,56 q 11.875,0 17.734375,-6.15625 5.859375,-6.140625 5.859375,-18.640625 z"
             id="DejaVuSans-97" />
          <path
             d="m 41.109375,46.296875 q -1.515625,0.875 -3.296875,1.28125 Q 36.03125,48 33.890625,48 26.265625,48 22.1875,43.046875 18.109375,38.09375 18.109375,28.8125 V 0 h -9.03125 v 54.6875 h 9.03125 v -8.5 q 2.84375,4.984375 7.375,7.390625 Q 30.03125,56 36.53125,56 q 0.921875,0 2.046875,-0.125 1.125,-0.109375 2.484375,-0.359375 z"
             id="DejaVuSans-114" />
          <path
             d="M 32.859375,9.96875 Q 34.1875,7.625 39.453125,7.625 H 43.75 L 42.28125,0 H 36.921875 Q 28.125,0 25,4.6875 21.921875,9.46875 23.96875,19.828125 L 29,45.703125 H 8.453125 l 1.75,8.984375 h 50.4375 l -1.75,-8.984375 H 38.1875 L 33.015625,19.28125 q -1.375,-7.078125 -0.15625,-9.3125 z"
             id="DejaVuSans-Oblique-964" />
          <path
             d="m 9.8125,72.90625 h 46.09375 v -8.3125 H 19.671875 V 43.015625 h 34.71875 V 34.71875 H 19.671875 V 8.296875 H 56.78125 V 0 H 9.8125 Z"
             id="DejaVuSans-69" />
          <path
             d="M 54.890625,33.015625 V 0 H 45.90625 v 32.71875 q 0,7.765625 -3.03125,11.609375 -3.03125,3.859375 -9.078125,3.859375 -7.28125,0 -11.484375,-4.640625 -4.203125,-4.625 -4.203125,-12.640625 V 0 h -9.03125 v 54.6875 h 9.03125 v -8.5 q 3.234375,4.9375 7.59375,7.375 4.375,2.4375 10.09375,2.4375 9.421875,0 14.25,-5.828125 4.84375,-5.828125 4.84375,-17.15625 z"
             id="DejaVuSans-110" />
          <path
             d="M 2.984375,54.6875 H 12.5 L 29.59375,8.796875 46.6875,54.6875 h 9.515625 L 35.6875,0 H 23.484375 Z"
             id="DejaVuSans-118" />
        </defs>
        <use
           transform="translate(0,0.125)"
           xlink:href="#DejaVuSans-86"
           id="use1115" />
        <use
           transform="translate(68.408203,0.125)"
           xlink:href="#DejaVuSans-97"
           id="use1117" />
        <use
           transform="translate(129.6875,0.125)"
           xlink:href="#DejaVuSans-114"
           id="use1119" />
        <use
           transform="translate(170.80078,0.125)"
           xlink:href="#DejaVuSans-40"
           id="use1121" />
        <use
           transform="translate(209.81445,0.125)"
           xlink:href="#DejaVuSans-Oblique-964"
           id="use1123" />
        <use
           transform="matrix(0.7,0,0,0.7,270.01953,-16.28125)"
           xlink:href="#DejaVuSans-69"
           id="use1125" />
        <use
           transform="matrix(0.7,0,0,0.7,314.24805,-16.28125)"
           xlink:href="#DejaVuSans-110"
           id="use1127" />
        <use
           transform="matrix(0.7,0,0,0.7,358.61328,-16.28125)"
           xlink:href="#DejaVuSans-118"
           id="use1129" />
        <use
           transform="translate(402.77344,0.125)"
           xlink:href="#DejaVuSans-41"
           id="use1131" />
      </g>
    </g>
  </g>
  <g
     id="line2d_40">
    <path
       clip-path="url(#p6421db649f)"
       d="m 102.45806,321.57919 0.005,-73.84485 1.71358,-13.76008 1.65548,-5.6724 1.6012,-3.692 1.55036,-2.89869 1.50264,-2.35247 2.87331,-3.47492 4.01586,-3.88816 1.26844,-1.48286 1.23632,-0.67701 5.75159,-4.39005 1.07328,-0.6469 1.05019,-0.3892 1.02808,-0.78047 1.99343,-1.17697 1.91523,-1.23779 0.93016,-0.50327 0.91278,-0.19651 0.89603,-0.81919 0.87988,-0.39268 0.86431,-0.67918 0.84927,-0.44779 0.83476,-0.20585 0.82072,-0.45192 0.80717,-0.62212 0.79403,-0.46353 2.30746,-0.84439 1.47987,-0.81884 2.83164,-1.42249 0.68298,-0.47091 1.33795,-0.37317 0.65548,-0.45483 1.91523,-0.78264 1.23632,-0.50752 0.60662,-0.52184 0.59917,-0.17786 0.59191,-0.61326 0.58483,-0.0277 0.5779,-0.35523 0.57114,-0.0356 1.12263,-0.39924 1.09739,-0.66986 0.53959,-0.22717 1.06161,-0.58549 0.52227,-0.0591 1.02809,-0.74639 1.50264,-0.32724 0.49078,-0.44777 0.967,-0.33737 0.47642,-0.39016 0.93911,-0.20056 0.46286,-0.36979 2.25073,-0.89853 0.43796,-0.0883 0.86431,-0.56718 0.42648,0.15878 1.25755,-0.86744 0.82073,-0.12128 1.20579,-0.62239 1.56276,-0.45485 0.76302,-0.54022 0.37708,0.0334 1.47987,-0.81741 0.72346,-0.11398 0.71289,-0.55029 0.70263,-0.10559 0.69267,-0.42206 0.68297,-0.21547 0.67356,-0.37173 1.31987,-0.42166 0.64679,-0.47846 0.63834,0.1515 0.6301,-0.62968 0.62207,-0.11323 1.22087,-0.61667 0.89602,-0.16964 0.58835,-0.5442 2.56321,-0.73861 0.82535,-0.72307 0.54258,0.067 0.80274,-0.47485 0.52792,0.11127 0.78133,-0.36106 0.51403,-0.45711 5.32361,-2.10511 0.68298,-0.56111 0.67356,-0.10373 1.53642,-0.64933 0.64395,-0.0575 1.26296,-0.64058 0.61945,-0.16878 0.61168,-0.44546 0.80384,-0.22535 0.59431,-0.3064 0.78133,-0.25317 1.33795,-0.72346 0.56238,0.10578 0.73989,-0.51151 0.54766,-0.23543 0.72078,-0.0769 0.7103,-0.50772 0.70011,-0.20924 0.69022,-0.49359 1.84928,-0.4917 0.81798,-0.48576 0.64466,-0.17818 1.26433,-0.76307 0.6201,-0.0108 2.11036,-1.04457 0.58658,3.9e-4 1.99925,-0.82355 0.69464,-0.23738 0.68489,-0.4791 0.67542,-0.0694 1.32345,-0.53052 1.28852,-0.51277 0.7571,-0.58468 0.62207,-0.0785 0.73618,-0.44521 0.60511,-0.12709 1.30544,-0.50702 1.3854,-0.30457 2.00708,-1.19338 0.6511,-0.084 2.00636,-1.05473 0.61684,0.0496 0.70992,-0.60588 1.29167,-0.25619 0.68162,-0.5104 0.67223,-0.15569 0.6631,-0.017 0.65422,-0.57532 0.73711,-0.32082 0.63596,-0.10817 0.62778,-0.37252 1.40534,-0.39982 0.60234,-0.53121 0.67942,-0.0431 2.06422,-0.98379 0.64253,0.0373 0.6342,-0.27693 0.70375,-0.57673 1.30227,-0.42661 1.34204,-0.68315 0.65743,-0.18107 0.72025,-0.37181 0.63927,-0.13942 0.631,-0.36314 1.37371,-0.30655 0.67263,-0.44122 0.66349,-0.21918 0.6546,-0.51374 0.64593,-0.10332 0.7008,-0.38715 0.62848,-0.0333 0.68211,-0.23156 0.67272,-0.44286 2.65939,-1.15034 0.68537,-0.0868 0.67589,-0.60942 0.66666,-0.38679 2.68376,-0.51969 0.62273,-0.7967 0.66579,0.0295 0.70699,-0.62771 0.64745,0.13161 1.98749,-0.99708 2.00102,-0.62721 1.34904,-0.84809 0.6608,-0.0928 0.65197,-0.51622 0.68598,-0.0309 0.67647,-0.24058 0.66723,-0.54349 0.65824,0.1315 0.64948,-0.65591 1.35211,-0.33854 0.66228,-0.40338 1.33585,-0.52545 0.67305,-0.44686 0.66389,-0.22676 0.65498,0.0342 0.68198,-0.0913 0.67258,-0.65879 1.31799,-0.43384 1.34997,-0.55688 0.66124,-0.57149 0.65241,0.0378 0.67578,-0.4898 0.66655,-0.10141 0.65758,-0.45836 0.67952,-0.0346 0.6702,-0.40155 0.66112,-0.0882 0.68173,-0.52008 0.64331,-0.11355 1.34658,-0.7169 1.33795,-0.47131 1.32903,-0.45598 1.99236,-1.17173 0.66335,0.0959 0.67946,-0.4424 1.33119,-0.37753 0.67623,-0.56346 0.66698,-0.0982 6.00331,-2.56054 0.66496,-0.11379 1.32344,-0.67402 0.67824,-0.36007 1.32884,-0.38857 3.33436,-1.44554 0.66171,-0.19694 2.00124,-1.06663 1.32873,-0.4208 0.67561,-0.36214 0.66638,-0.0478 0.65741,-0.40462 0.6801,-0.15166 0.65527,-0.43152 1.34507,-0.51691 0.65889,-0.0536 0.66479,-0.65621 0.67035,-0.18949 0.66126,-0.37578 0.66652,-0.1453 2.00074,-0.7944 0.67134,-0.45887 0.66223,-0.0598 5.34059,-2.22597 0.66758,-0.45707 0.67006,-0.23568 0.66098,-0.0101 0.66332,-0.59157 0.67646,-0.0915 0.66722,-0.47755 2.00081,-0.70745 0.66285,-0.40552 0.66411,-0.0738 0.66522,-0.46549 0.66615,-0.15514 2.67087,-1.25271 0.66856,-0.1728 0.66863,-0.49905 0.6596,-0.0426 0.66851,-0.43769 0.66823,-0.24833 0.66781,-0.0881 1.33399,-0.73738 0.66598,-0.0703 0.66518,-0.21282 0.67232,-0.71855 0.6632,0.1052 0.66997,-0.39291 0.6609,0.0425 2.00485,-1.31237 0.66259,-0.14954 1.3344,-0.670655 0.67131,0.0024 0.66221,-0.620487 0.66702,-0.213998 0.67149,0.0791 0.66239,-0.436771 0.66664,-0.254669 0.6706,-0.39976 1.33305,-0.360318 0.66244,-0.461625 1.33476,-0.558234 0.66586,-0.390987 0.66866,-0.166595 1.33335,-0.635749 2.00005,-0.600121 0.66514,-0.608107 0.66688,0.02516 4.00307,-1.951307 0.66472,-0.08749 1.33598,-0.659486 0.66618,-0.11489 0.66641,-0.432337 0.6665,-0.09001 0.66648,-0.325089 0.66633,-0.14117 0.67041,-0.690015 1.33078,-0.200469 0.66874,-0.502738 0.66383,-0.244071 0.66712,-0.440498 0.66615,-0.04324 0.66905,-0.341695 0.66781,-0.16369 0.66651,-0.452626 0.66512,0.02375 0.66742,-0.528516 2.66721,-1.120441 0.66564,-0.03372 0.66704,-0.642288 0.66826,-0.266157 0.66596,-0.0457 1.99987,-1.005941 0.66578,-0.168158 0.66938,-0.403371 0.66651,-0.138999 2.00011,-0.958804 0.66648,-0.180456 0.66617,-0.465314 0.66576,-0.191769 0.66805,-0.397374 0.66736,-0.151932 1.33225,-0.582984 0.66738,-0.19205 0.66627,-0.444939 2.0014,-0.638746 0.66589,-0.442257 0.66675,-0.267281 0.66744,-0.105404 0.6656,-0.456321 v 0"
       style="fill:none;stroke:#ff7f0e;stroke-width:1.5;stroke-dasharray:5.55, 2.4;stroke-dashoffset:0"
       id="path1140" />
  </g>
  <g
     id="line2d_42">
    <path
       clip-path="url(#p6421db649f)"
       d="m 326.69522,125.472 87.4954,-36.813402"
       style="fill:none;stroke:#000000;stroke-width:1.5;stroke-dasharray:5.55, 2.4;stroke-dashoffset:0"
       id="path1146" />
  </g>
  <g
     id="patch_3">
    <path
       d="M 67.967187,273.312 V 7.2"
       style="fill:none;stroke:#000000;stroke-width:0.8;stroke-linecap:square;stroke-linejoin:miter"
       id="path1152" />
  </g>
  <g
     id="patch_4">
    <path
       d="M 425.08719,273.312 V 7.2"
       style="fill:none;stroke:#000000;stroke-width:0.8;stroke-linecap:square;stroke-linejoin:miter"
       id="path1155" />
  </g>
  <g
     id="patch_5">
    <path
       d="M 67.967187,273.312 H 425.08719"
       style="fill:none;stroke:#000000;stroke-width:0.8;stroke-linecap:square;stroke-linejoin:miter"
       id="path1158" />
  </g>
  <g
     id="patch_6">
    <path
       d="M 67.967187,7.2 H 425.08719"
       style="fill:none;stroke:#000000;stroke-width:0.8;stroke-linecap:square;stroke-linejoin:miter"
       id="path1161" />
  </g>
  <g
     id="text_14">
    <!-- $L^{8/3}$ -->
    <g
       transform="matrix(0.10875693,-0.05071419,-0.05071419,-0.10875693,375.29311,126.27891)"
       id="g1175">
      <defs
         id="defs1165">
        <path
           d="m 31.78125,34.625 q -7.03125,0 -11.0625,-3.765625 -4.015625,-3.765625 -4.015625,-10.34375 0,-6.59375 4.015625,-10.359375 4.03125,-3.765625 11.0625,-3.765625 7.03125,0 11.078125,3.78125 4.0625,3.796875 4.0625,10.34375 0,6.578125 -4.03125,10.34375 Q 38.875,34.625 31.78125,34.625 Z m -9.859375,4.1875 Q 15.578125,40.375 12.03125,44.71875 8.5,49.078125 8.5,55.328125 q 0,8.734375 6.21875,13.8125 6.234375,5.078125 17.0625,5.078125 10.890625,0 17.09375,-5.078125 6.203125,-5.078125 6.203125,-13.8125 0,-6.25 -3.546875,-10.609375 Q 48,40.375 41.703125,38.8125 q 7.125,-1.65625 11.09375,-6.5 3.984375,-4.828125 3.984375,-11.796875 0,-10.609375 -6.46875,-16.28125 -6.46875,-5.65625 -18.53125,-5.65625 -12.046875,0 -18.53125,5.65625 -6.46875,5.671875 -6.46875,16.28125 0,6.96875 4,11.796875 4.015625,4.84375 11.140625,6.5 z M 18.3125,54.390625 q 0,-5.65625 3.53125,-8.828125 3.546875,-3.171875 9.9375,-3.171875 6.359375,0 9.9375,3.171875 3.59375,3.171875 3.59375,8.828125 0,5.671875 -3.59375,8.84375 -3.578125,3.171875 -9.9375,3.171875 -6.390625,0 -9.9375,-3.171875 Q 18.3125,60.0625 18.3125,54.390625 Z"
           id="DejaVuSans-56" />
      </defs>
      <use
         transform="translate(0,0.765625)"
         xlink:href="#DejaVuSans-Oblique-76"
         id="use1167" />
      <use
         transform="matrix(0.7,0,0,0.7,62.729661,39.046875)"
         xlink:href="#DejaVuSans-56"
         id="use1169" />
      <use
         transform="matrix(0.7,0,0,0.7,107.26579,39.046875)"
         xlink:href="#DejaVuSans-47"
         id="use1171" />
      <use
         transform="matrix(0.7,0,0,0.7,130.84978,39.046875)"
         xlink:href="#DejaVuSans-51"
         id="use1173" />
    </g>
  </g>
  <defs
     id="defs1216">
    <clipPath
       id="p6421db649f">
      <rect
         height="266.112"
         width="357.12"
         x="67.967187"
         y="7.2"
         id="rect1213" />
    </clipPath>
  </defs>
</svg>
