<?xml version="1.0" encoding="UTF-8" standalone="no"?>
<!-- Created with matplotlib (https://matplotlib.org/) -->

<svg
   height="320.546375pt"
   version="1.1"
   viewBox="0 0 432.32 320.546375"
   width="432.32pt"
   id="svg1375"
   sodipodi:docname="ProbabilityDistribution.svg"
   inkscape:version="1.2.2 (732a01da63, 2022-12-09, custom)"
   xmlns:inkscape="http://www.inkscape.org/namespaces/inkscape"
   xmlns:sodipodi="http://sodipodi.sourceforge.net/DTD/sodipodi-0.dtd"
   xmlns:xlink="http://www.w3.org/1999/xlink"
   xmlns="http://www.w3.org/2000/svg"
   xmlns:svg="http://www.w3.org/2000/svg"
   xmlns:rdf="http://www.w3.org/1999/02/22-rdf-syntax-ns#"
   xmlns:cc="http://creativecommons.org/ns#"
   xmlns:dc="http://purl.org/dc/elements/1.1/">
  <sodipodi:namedview
     id="namedview1377"
     pagecolor="#505050"
     bordercolor="#eeeeee"
     borderopacity="1"
     inkscape:showpageshadow="0"
     inkscape:pageopacity="0"
     inkscape:pagecheckerboard="0"
     inkscape:deskcolor="#505050"
     inkscape:document-units="pt"
     showgrid="false"
     inkscape:zoom="2.0613241"
     inkscape:cx="288.16429"
     inkscape:cy="213.69759"
     inkscape:window-width="1920"
     inkscape:window-height="1052"
     inkscape:window-x="1920"
     inkscape:window-y="0"
     inkscape:window-maximized="1"
     inkscape:current-layer="svg1375" />
  <metadata
     id="metadata702">
    <rdf:RDF>
      <cc:Work>
        <dc:type
           rdf:resource="http://purl.org/dc/dcmitype/StillImage" />
        <dc:date>2023-02-28T09:48:46.111096</dc:date>
        <dc:format>image/svg+xml</dc:format>
        <dc:creator>
          <cc:Agent>
            <dc:title>Matplotlib v3.3.4, https://matplotlib.org/</dc:title>
          </cc:Agent>
        </dc:creator>
      </cc:Work>
    </rdf:RDF>
  </metadata>
  <defs
     id="defs706">
    <style
       type="text/css"
       id="style704">*{stroke-linecap:butt;stroke-linejoin:round;}</style>
  </defs>
  <g
     id="patch_1">
    <path
       d="M 0,320.54637 H 432.32 V 0 H 0 Z"
       style="fill:#ffffff"
       id="path708" />
  </g>
  <g
     id="patch_2">
    <path
       d="M 68,273.312 H 425.12 V 7.2 H 68 Z"
       style="fill:#ffffff"
       id="path711" />
  </g>
  <g
     id="matplotlib.axis_1">
    <g
       id="xtick_1">
      <g
         id="line2d_1">
        <defs
           id="defs715">
          <path
             d="M 0,0 V 3.5"
             id="m25a7e8af3c"
             style="stroke:#000000;stroke-width:0.8" />
        </defs>
        <g
           id="g719">
          <use
             style="stroke:#000000;stroke-width:0.8"
             x="107.87262"
             xlink:href="#m25a7e8af3c"
             y="273.31201"
             id="use717" />
        </g>
      </g>
      <g
         id="text_1">
        <!-- −400 -->
        <g
           transform="matrix(0.15,0,0,-0.15,87.272231,291.70966)"
           id="g735">
          <defs
             id="defs725">
            <path
               d="M 10.59375,35.5 H 73.1875 V 27.203125 H 10.59375 Z"
               id="DejaVuSans-8722" />
            <path
               d="M 37.796875,64.3125 12.890625,25.390625 h 24.90625 z m -2.59375,8.59375 h 12.40625 V 25.390625 h 10.40625 V 17.1875 H 47.609375 V 0 h -9.8125 V 17.1875 H 4.890625 v 9.515625 z"
               id="DejaVuSans-52" />
            <path
               d="m 31.78125,66.40625 q -7.609375,0 -11.453125,-7.5 Q 16.5,51.421875 16.5,36.375 q 0,-14.984375 3.828125,-22.484375 3.84375,-7.5 11.453125,-7.5 7.671875,0 11.5,7.5 3.84375,7.5 3.84375,22.484375 0,15.046875 -3.84375,22.53125 -3.828125,7.5 -11.5,7.5 z m 0,7.8125 q 12.265625,0 18.734375,-9.703125 6.46875,-9.6875 6.46875,-28.140625 0,-18.40625 -6.46875,-28.109375 -6.46875,-9.6875 -18.734375,-9.6875 -12.25,0 -18.71875,9.6875 Q 6.59375,17.96875 6.59375,36.375 q 0,18.453125 6.46875,28.140625 6.46875,9.703125 18.71875,9.703125 z"
               id="DejaVuSans-48" />
          </defs>
          <use
             xlink:href="#DejaVuSans-8722"
             id="use727" />
          <use
             x="83.789062"
             xlink:href="#DejaVuSans-52"
             id="use729" />
          <use
             x="147.41211"
             xlink:href="#DejaVuSans-48"
             id="use731" />
          <use
             x="211.03516"
             xlink:href="#DejaVuSans-48"
             id="use733" />
        </g>
      </g>
    </g>
    <g
       id="xtick_2">
      <g
         id="line2d_2">
        <g
           id="g741">
          <use
             style="stroke:#000000;stroke-width:0.8"
             x="177.21631"
             xlink:href="#m25a7e8af3c"
             y="273.31201"
             id="use739" />
        </g>
      </g>
      <g
         id="text_2">
        <!-- −200 -->
        <g
           transform="matrix(0.15,0,0,-0.15,156.61592,291.70966)"
           id="g755">
          <defs
             id="defs745">
            <path
               d="M 19.1875,8.296875 H 53.609375 V 0 H 7.328125 v 8.296875 q 5.609375,5.8125 15.296875,15.59375 9.703125,9.796875 12.1875,12.640625 4.734375,5.3125 6.609375,9 1.890625,3.6875 1.890625,7.25 0,5.8125 -4.078125,9.46875 -4.078125,3.671875 -10.625,3.671875 -4.640625,0 -9.796875,-1.609375 -5.140625,-1.609375 -11,-4.890625 v 9.96875 Q 13.765625,71.78125 18.9375,73 q 5.1875,1.21875 9.484375,1.21875 11.328125,0 18.0625,-5.671875 6.734375,-5.65625 6.734375,-15.125 0,-4.5 -1.6875,-8.53125 Q 49.859375,40.875 45.40625,35.40625 44.1875,33.984375 37.640625,27.21875 31.109375,20.453125 19.1875,8.296875 Z"
               id="DejaVuSans-50" />
          </defs>
          <use
             xlink:href="#DejaVuSans-8722"
             id="use747" />
          <use
             x="83.789062"
             xlink:href="#DejaVuSans-50"
             id="use749" />
          <use
             x="147.41211"
             xlink:href="#DejaVuSans-48"
             id="use751" />
          <use
             x="211.03516"
             xlink:href="#DejaVuSans-48"
             id="use753" />
        </g>
      </g>
    </g>
    <g
       id="xtick_3">
      <g
         id="line2d_3">
        <g
           id="g761">
          <use
             style="stroke:#000000;stroke-width:0.8"
             x="246.56"
             xlink:href="#m25a7e8af3c"
             y="273.31201"
             id="use759" />
        </g>
      </g>
      <g
         id="text_3">
        <!-- 0 -->
        <g
           transform="matrix(0.15,0,0,-0.15,241.78812,291.70966)"
           id="g766">
          <use
             xlink:href="#DejaVuSans-48"
             id="use764" />
        </g>
      </g>
    </g>
    <g
       id="xtick_4">
      <g
         id="line2d_4">
        <g
           id="g772">
          <use
             style="stroke:#000000;stroke-width:0.8"
             x="315.90369"
             xlink:href="#m25a7e8af3c"
             y="273.31201"
             id="use770" />
        </g>
      </g>
      <g
         id="text_4">
        <!-- 200 -->
        <g
           transform="matrix(0.15,0,0,-0.15,301.58806,291.70966)"
           id="g781">
          <use
             xlink:href="#DejaVuSans-50"
             id="use775" />
          <use
             x="63.623047"
             xlink:href="#DejaVuSans-48"
             id="use777" />
          <use
             x="127.24609"
             xlink:href="#DejaVuSans-48"
             id="use779" />
        </g>
      </g>
    </g>
    <g
       id="xtick_5">
      <g
         id="line2d_5">
        <g
           id="g787">
          <use
             style="stroke:#000000;stroke-width:0.8"
             x="385.24738"
             xlink:href="#m25a7e8af3c"
             y="273.31201"
             id="use785" />
        </g>
      </g>
      <g
         id="text_5">
        <!-- 400 -->
        <g
           transform="matrix(0.15,0,0,-0.15,370.93175,291.70966)"
           id="g796">
          <use
             xlink:href="#DejaVuSans-52"
             id="use790" />
          <use
             x="63.623047"
             xlink:href="#DejaVuSans-48"
             id="use792" />
          <use
             x="127.24609"
             xlink:href="#DejaVuSans-48"
             id="use794" />
        </g>
      </g>
    </g>
    <g
       id="text_6">
      <!-- $x$ -->
      <g
         transform="matrix(0.15,0,0,-0.15,242.06,310.22684)"
         id="g805">
        <defs
           id="defs801">
          <path
             d="M 60.015625,54.6875 34.90625,27.875 50.296875,0 h -10.3125 L 28.421875,21.6875 8.296875,0 H -2.59375 L 24.3125,28.8125 10.015625,54.6875 H 20.3125 l 10.5,-19.78125 18.3125,19.78125 z"
             id="DejaVuSans-Oblique-120" />
        </defs>
        <use
           transform="translate(0,0.3125)"
           xlink:href="#DejaVuSans-Oblique-120"
           id="use803" />
      </g>
    </g>
  </g>
  <g
     id="matplotlib.axis_2">
    <g
       id="ytick_1">
      <g
         id="line2d_6">
        <defs
           id="defs810">
          <path
             d="M 0,0 H -3.5"
             id="meda9cb1239"
             style="stroke:#000000;stroke-width:0.8" />
        </defs>
        <g
           id="g814">
          <use
             style="stroke:#000000;stroke-width:0.8"
             x="68"
             xlink:href="#meda9cb1239"
             y="273.31201"
             id="use812" />
        </g>
      </g>
      <g
         id="text_7">
        <!-- $\mathdefault{10^{-9}}$ -->
        <g
           transform="matrix(0.15,0,0,-0.15,25.75,279.01083)"
           id="g829">
          <defs
             id="defs819">
            <path
               d="m 12.40625,8.296875 h 16.109375 v 55.625 L 10.984375,60.40625 v 8.984375 l 17.4375,3.515625 H 38.28125 V 8.296875 H 54.390625 V 0 H 12.40625 Z"
               id="DejaVuSans-49" />
            <path
               d="M 10.984375,1.515625 V 10.5 Q 14.703125,8.734375 18.5,7.8125 q 3.8125,-0.921875 7.484375,-0.921875 9.765625,0 14.90625,6.5625 5.15625,6.5625 5.890625,19.953125 -2.828125,-4.203125 -7.1875,-6.453125 -4.34375,-2.25 -9.609375,-2.25 -10.9375,0 -17.3125,6.609375 -6.375,6.625 -6.375,18.109375 0,11.21875 6.640625,18 6.640625,6.796875 17.671875,6.796875 12.65625,0 19.3125,-9.703125 6.671875,-9.6875 6.671875,-28.140625 0,-17.234375 -8.1875,-27.515625 -8.171875,-10.28125 -21.984375,-10.28125 -3.71875,0 -7.53125,0.734375 -3.796875,0.734375 -7.90625,2.203125 z m 19.625,30.90625 q 6.640625,0 10.515625,4.53125 3.890625,4.546875 3.890625,12.46875 0,7.859375 -3.890625,12.421875 -3.875,4.5625 -10.515625,4.5625 -6.640625,0 -10.515625,-4.5625 -3.875,-4.5625 -3.875,-12.421875 0,-7.921875 3.875,-12.46875 3.875,-4.53125 10.515625,-4.53125 z"
               id="DejaVuSans-57" />
          </defs>
          <use
             transform="translate(0,0.765625)"
             xlink:href="#DejaVuSans-49"
             id="use821" />
          <use
             transform="translate(63.623047,0.765625)"
             xlink:href="#DejaVuSans-48"
             id="use823" />
          <use
             transform="matrix(0.7,0,0,0.7,128.20312,39.046875)"
             xlink:href="#DejaVuSans-8722"
             id="use825" />
          <use
             transform="matrix(0.7,0,0,0.7,186.85547,39.046875)"
             xlink:href="#DejaVuSans-57"
             id="use827" />
        </g>
      </g>
    </g>
    <g
       id="ytick_2">
      <g
         id="line2d_7">
        <g
           id="g835">
          <use
             style="stroke:#000000;stroke-width:0.8"
             x="68"
             xlink:href="#meda9cb1239"
             y="238.30675"
             id="use833" />
        </g>
      </g>
      <g
         id="text_8">
        <!-- $\mathdefault{10^{-8}}$ -->
        <g
           transform="matrix(0.15,0,0,-0.15,25.75,244.00558)"
           id="g849">
          <defs
             id="defs839">
            <path
               d="m 31.78125,34.625 q -7.03125,0 -11.0625,-3.765625 -4.015625,-3.765625 -4.015625,-10.34375 0,-6.59375 4.015625,-10.359375 4.03125,-3.765625 11.0625,-3.765625 7.03125,0 11.078125,3.78125 4.0625,3.796875 4.0625,10.34375 0,6.578125 -4.03125,10.34375 Q 38.875,34.625 31.78125,34.625 Z m -9.859375,4.1875 Q 15.578125,40.375 12.03125,44.71875 8.5,49.078125 8.5,55.328125 q 0,8.734375 6.21875,13.8125 6.234375,5.078125 17.0625,5.078125 10.890625,0 17.09375,-5.078125 6.203125,-5.078125 6.203125,-13.8125 0,-6.25 -3.546875,-10.609375 Q 48,40.375 41.703125,38.8125 q 7.125,-1.65625 11.09375,-6.5 3.984375,-4.828125 3.984375,-11.796875 0,-10.609375 -6.46875,-16.28125 -6.46875,-5.65625 -18.53125,-5.65625 -12.046875,0 -18.53125,5.65625 -6.46875,5.671875 -6.46875,16.28125 0,6.96875 4,11.796875 4.015625,4.84375 11.140625,6.5 z M 18.3125,54.390625 q 0,-5.65625 3.53125,-8.828125 3.546875,-3.171875 9.9375,-3.171875 6.359375,0 9.9375,3.171875 3.59375,3.171875 3.59375,8.828125 0,5.671875 -3.59375,8.84375 -3.578125,3.171875 -9.9375,3.171875 -6.390625,0 -9.9375,-3.171875 Q 18.3125,60.0625 18.3125,54.390625 Z"
               id="DejaVuSans-56" />
          </defs>
          <use
             transform="translate(0,0.765625)"
             xlink:href="#DejaVuSans-49"
             id="use841" />
          <use
             transform="translate(63.623047,0.765625)"
             xlink:href="#DejaVuSans-48"
             id="use843" />
          <use
             transform="matrix(0.7,0,0,0.7,128.20312,39.046875)"
             xlink:href="#DejaVuSans-8722"
             id="use845" />
          <use
             transform="matrix(0.7,0,0,0.7,186.85547,39.046875)"
             xlink:href="#DejaVuSans-56"
             id="use847" />
        </g>
      </g>
    </g>
    <g
       id="ytick_3">
      <g
         id="line2d_8">
        <g
           id="g855">
          <use
             style="stroke:#000000;stroke-width:0.8"
             x="68"
             xlink:href="#meda9cb1239"
             y="203.3015"
             id="use853" />
        </g>
      </g>
      <g
         id="text_9">
        <!-- $\mathdefault{10^{-7}}$ -->
        <g
           transform="matrix(0.15,0,0,-0.15,25.75,209.00033)"
           id="g869">
          <defs
             id="defs859">
            <path
               d="m 8.203125,72.90625 h 46.875 V 68.703125 L 28.609375,0 H 18.3125 L 43.21875,64.59375 H 8.203125 Z"
               id="DejaVuSans-55" />
          </defs>
          <use
             transform="translate(0,0.684375)"
             xlink:href="#DejaVuSans-49"
             id="use861" />
          <use
             transform="translate(63.623047,0.684375)"
             xlink:href="#DejaVuSans-48"
             id="use863" />
          <use
             transform="matrix(0.7,0,0,0.7,128.20312,38.965625)"
             xlink:href="#DejaVuSans-8722"
             id="use865" />
          <use
             transform="matrix(0.7,0,0,0.7,186.85547,38.965625)"
             xlink:href="#DejaVuSans-55"
             id="use867" />
        </g>
      </g>
    </g>
    <g
       id="ytick_4">
      <g
         id="line2d_9">
        <g
           id="g875">
          <use
             style="stroke:#000000;stroke-width:0.8"
             x="68"
             xlink:href="#meda9cb1239"
             y="168.29625"
             id="use873" />
        </g>
      </g>
      <g
         id="text_10">
        <!-- $\mathdefault{10^{-6}}$ -->
        <g
           transform="matrix(0.15,0,0,-0.15,25.75,173.99508)"
           id="g889">
          <defs
             id="defs879">
            <path
               d="m 33.015625,40.375 q -6.640625,0 -10.53125,-4.546875 -3.875,-4.53125 -3.875,-12.4375 0,-7.859375 3.875,-12.4375 3.890625,-4.5625 10.53125,-4.5625 6.640625,0 10.515625,4.5625 3.875,4.578125 3.875,12.4375 0,7.90625 -3.875,12.4375 Q 39.65625,40.375 33.015625,40.375 Z M 52.59375,71.296875 V 62.3125 q -3.71875,1.75 -7.5,2.671875 -3.78125,0.9375 -7.5,0.9375 -9.765625,0 -14.921875,-6.59375 -5.140625,-6.59375 -5.875,-19.921875 2.875,4.25 7.21875,6.515625 4.359375,2.265625 9.578125,2.265625 10.984375,0 17.359375,-6.671875 6.375,-6.65625 6.375,-18.125 0,-11.234375 -6.640625,-18.03125 -6.640625,-6.78125 -17.671875,-6.78125 -12.65625,0 -19.34375,9.6875 -6.6875,9.703125 -6.6875,28.109375 0,17.28125 8.203125,27.5625 8.203125,10.28125 22.015625,10.28125 3.71875,0 7.5,-0.734375 3.78125,-0.734375 7.890625,-2.1875 z"
               id="DejaVuSans-54" />
          </defs>
          <use
             transform="translate(0,0.765625)"
             xlink:href="#DejaVuSans-49"
             id="use881" />
          <use
             transform="translate(63.623047,0.765625)"
             xlink:href="#DejaVuSans-48"
             id="use883" />
          <use
             transform="matrix(0.7,0,0,0.7,128.20312,39.046875)"
             xlink:href="#DejaVuSans-8722"
             id="use885" />
          <use
             transform="matrix(0.7,0,0,0.7,186.85547,39.046875)"
             xlink:href="#DejaVuSans-54"
             id="use887" />
        </g>
      </g>
    </g>
    <g
       id="ytick_5">
      <g
         id="line2d_10">
        <g
           id="g895">
          <use
             style="stroke:#000000;stroke-width:0.8"
             x="68"
             xlink:href="#meda9cb1239"
             y="133.291"
             id="use893" />
        </g>
      </g>
      <g
         id="text_11">
        <!-- $\mathdefault{10^{-5}}$ -->
        <g
           transform="matrix(0.15,0,0,-0.15,25.75,138.98983)"
           id="g909">
          <defs
             id="defs899">
            <path
               d="m 10.796875,72.90625 h 38.71875 v -8.3125 h -29.6875 V 46.734375 q 2.140625,0.734375 4.28125,1.09375 2.15625,0.359375 4.3125,0.359375 Q 40.625,48.1875 47.75,41.5 54.890625,34.8125 54.890625,23.390625 54.890625,11.625 47.5625,5.09375 40.234375,-1.421875 26.90625,-1.421875 q -4.59375,0 -9.359375,0.78125 -4.75,0.78125 -9.828125,2.34375 V 11.625 q 4.390625,-2.390625 9.078125,-3.5625 4.6875,-1.171875 9.90625,-1.171875 8.453125,0 13.375,4.4375 4.9375,4.4375 4.9375,12.0625 0,7.609375 -4.9375,12.046875 -4.921875,4.453125 -13.375,4.453125 -3.953125,0 -7.890625,-0.875 -3.921875,-0.875 -8.015625,-2.734375 z"
               id="DejaVuSans-53" />
          </defs>
          <use
             transform="translate(0,0.684375)"
             xlink:href="#DejaVuSans-49"
             id="use901" />
          <use
             transform="translate(63.623047,0.684375)"
             xlink:href="#DejaVuSans-48"
             id="use903" />
          <use
             transform="matrix(0.7,0,0,0.7,128.20312,38.965625)"
             xlink:href="#DejaVuSans-8722"
             id="use905" />
          <use
             transform="matrix(0.7,0,0,0.7,186.85547,38.965625)"
             xlink:href="#DejaVuSans-53"
             id="use907" />
        </g>
      </g>
    </g>
    <g
       id="ytick_6">
      <g
         id="line2d_11">
        <g
           id="g915">
          <use
             style="stroke:#000000;stroke-width:0.8"
             x="68"
             xlink:href="#meda9cb1239"
             y="98.285759"
             id="use913" />
        </g>
      </g>
      <g
         id="text_12">
        <!-- $\mathdefault{10^{-4}}$ -->
        <g
           transform="matrix(0.15,0,0,-0.15,25.75,103.98458)"
           id="g926">
          <use
             transform="translate(0,0.684375)"
             xlink:href="#DejaVuSans-49"
             id="use918" />
          <use
             transform="translate(63.623047,0.684375)"
             xlink:href="#DejaVuSans-48"
             id="use920" />
          <use
             transform="matrix(0.7,0,0,0.7,128.20312,38.965625)"
             xlink:href="#DejaVuSans-8722"
             id="use922" />
          <use
             transform="matrix(0.7,0,0,0.7,186.85547,38.965625)"
             xlink:href="#DejaVuSans-52"
             id="use924" />
        </g>
      </g>
    </g>
    <g
       id="ytick_7">
      <g
         id="line2d_12">
        <g
           id="g932">
          <use
             style="stroke:#000000;stroke-width:0.8"
             x="68"
             xlink:href="#meda9cb1239"
             y="63.280506"
             id="use930" />
        </g>
      </g>
      <g
         id="text_13">
        <!-- $\mathdefault{10^{-3}}$ -->
        <g
           transform="matrix(0.15,0,0,-0.15,25.75,68.979336)"
           id="g946">
          <defs
             id="defs936">
            <path
               d="M 40.578125,39.3125 Q 47.65625,37.796875 51.625,33 q 3.984375,-4.78125 3.984375,-11.8125 0,-10.78125 -7.421875,-16.703125 -7.421875,-5.90625 -21.09375,-5.90625 -4.578125,0 -9.4375,0.90625 -4.859375,0.90625 -10.03125,2.71875 v 9.515625 q 4.09375,-2.390625 8.96875,-3.609375 4.890625,-1.21875 10.21875,-1.21875 9.265625,0 14.125,3.65625 4.859375,3.65625 4.859375,10.640625 0,6.453125 -4.515625,10.078125 -4.515625,3.640625 -12.5625,3.640625 h -8.5 v 8.109375 h 8.890625 q 7.265625,0 11.125,2.90625 3.859375,2.90625 3.859375,8.375 0,5.609375 -3.984375,8.609375 -3.96875,3.015625 -11.390625,3.015625 -4.0625,0 -8.703125,-0.890625 Q 15.375,64.15625 9.8125,62.3125 v 8.78125 q 5.625,1.5625 10.53125,2.34375 4.90625,0.78125 9.25,0.78125 11.234375,0 17.765625,-5.109375 6.546875,-5.09375 6.546875,-13.78125 0,-6.0625 -3.46875,-10.234375 -3.46875,-4.171875 -9.859375,-5.78125 z"
               id="DejaVuSans-51" />
          </defs>
          <use
             transform="translate(0,0.765625)"
             xlink:href="#DejaVuSans-49"
             id="use938" />
          <use
             transform="translate(63.623047,0.765625)"
             xlink:href="#DejaVuSans-48"
             id="use940" />
          <use
             transform="matrix(0.7,0,0,0.7,128.20312,39.046875)"
             xlink:href="#DejaVuSans-8722"
             id="use942" />
          <use
             transform="matrix(0.7,0,0,0.7,186.85547,39.046875)"
             xlink:href="#DejaVuSans-51"
             id="use944" />
        </g>
      </g>
    </g>
    <g
       id="ytick_8">
      <g
         id="line2d_13">
        <g
           id="g952">
          <use
             style="stroke:#000000;stroke-width:0.8"
             x="68"
             xlink:href="#meda9cb1239"
             y="28.275261"
             id="use950" />
        </g>
      </g>
      <g
         id="text_14">
        <!-- $\mathdefault{10^{-2}}$ -->
        <g
           transform="matrix(0.15,0,0,-0.15,25.75,33.974088)"
           id="g963">
          <use
             transform="translate(0,0.765625)"
             xlink:href="#DejaVuSans-49"
             id="use955" />
          <use
             transform="translate(63.623047,0.765625)"
             xlink:href="#DejaVuSans-48"
             id="use957" />
          <use
             transform="matrix(0.7,0,0,0.7,128.20312,39.046875)"
             xlink:href="#DejaVuSans-8722"
             id="use959" />
          <use
             transform="matrix(0.7,0,0,0.7,186.85547,39.046875)"
             xlink:href="#DejaVuSans-50"
             id="use961" />
        </g>
      </g>
    </g>
    <g
       id="ytick_9">
      <g
         id="line2d_14">
        <defs
           id="defs968">
          <path
             d="M 0,0 H -2"
             id="m13bddec885"
             style="stroke:#000000;stroke-width:0.6" />
        </defs>
        <g
           id="g972">
          <use
             style="stroke:#000000;stroke-width:0.6"
             x="68"
             xlink:href="#m13bddec885"
             y="262.77438"
             id="use970" />
        </g>
      </g>
    </g>
    <g
       id="ytick_10">
      <g
         id="line2d_15">
        <g
           id="g978">
          <use
             style="stroke:#000000;stroke-width:0.6"
             x="68"
             xlink:href="#m13bddec885"
             y="256.61026"
             id="use976" />
        </g>
      </g>
    </g>
    <g
       id="ytick_11">
      <g
         id="line2d_16">
        <g
           id="g984">
          <use
             style="stroke:#000000;stroke-width:0.6"
             x="68"
             xlink:href="#m13bddec885"
             y="252.23674"
             id="use982" />
        </g>
      </g>
    </g>
    <g
       id="ytick_12">
      <g
         id="line2d_17">
        <g
           id="g990">
          <use
             style="stroke:#000000;stroke-width:0.6"
             x="68"
             xlink:href="#m13bddec885"
             y="248.84438"
             id="use988" />
        </g>
      </g>
    </g>
    <g
       id="ytick_13">
      <g
         id="line2d_18">
        <g
           id="g996">
          <use
             style="stroke:#000000;stroke-width:0.6"
             x="68"
             xlink:href="#m13bddec885"
             y="246.07262"
             id="use994" />
        </g>
      </g>
    </g>
    <g
       id="ytick_14">
      <g
         id="line2d_19">
        <g
           id="g1002">
          <use
             style="stroke:#000000;stroke-width:0.6"
             x="68"
             xlink:href="#m13bddec885"
             y="243.72913"
             id="use1000" />
        </g>
      </g>
    </g>
    <g
       id="ytick_15">
      <g
         id="line2d_20">
        <g
           id="g1008">
          <use
             style="stroke:#000000;stroke-width:0.6"
             x="68"
             xlink:href="#m13bddec885"
             y="241.69911"
             id="use1006" />
        </g>
      </g>
    </g>
    <g
       id="ytick_16">
      <g
         id="line2d_21">
        <g
           id="g1014">
          <use
             style="stroke:#000000;stroke-width:0.6"
             x="68"
             xlink:href="#m13bddec885"
             y="239.90851"
             id="use1012" />
        </g>
      </g>
    </g>
    <g
       id="ytick_17">
      <g
         id="line2d_22">
        <g
           id="g1020">
          <use
             style="stroke:#000000;stroke-width:0.6"
             x="68"
             xlink:href="#m13bddec885"
             y="227.76912"
             id="use1018" />
        </g>
      </g>
    </g>
    <g
       id="ytick_18">
      <g
         id="line2d_23">
        <g
           id="g1026">
          <use
             style="stroke:#000000;stroke-width:0.6"
             x="68"
             xlink:href="#m13bddec885"
             y="221.605"
             id="use1024" />
        </g>
      </g>
    </g>
    <g
       id="ytick_19">
      <g
         id="line2d_24">
        <g
           id="g1032">
          <use
             style="stroke:#000000;stroke-width:0.6"
             x="68"
             xlink:href="#m13bddec885"
             y="217.23149"
             id="use1030" />
        </g>
      </g>
    </g>
    <g
       id="ytick_20">
      <g
         id="line2d_25">
        <g
           id="g1038">
          <use
             style="stroke:#000000;stroke-width:0.6"
             x="68"
             xlink:href="#m13bddec885"
             y="213.83913"
             id="use1036" />
        </g>
      </g>
    </g>
    <g
       id="ytick_21">
      <g
         id="line2d_26">
        <g
           id="g1044">
          <use
             style="stroke:#000000;stroke-width:0.6"
             x="68"
             xlink:href="#m13bddec885"
             y="211.06737"
             id="use1042" />
        </g>
      </g>
    </g>
    <g
       id="ytick_22">
      <g
         id="line2d_27">
        <g
           id="g1050">
          <use
             style="stroke:#000000;stroke-width:0.6"
             x="68"
             xlink:href="#m13bddec885"
             y="208.72388"
             id="use1048" />
        </g>
      </g>
    </g>
    <g
       id="ytick_23">
      <g
         id="line2d_28">
        <g
           id="g1056">
          <use
             style="stroke:#000000;stroke-width:0.6"
             x="68"
             xlink:href="#m13bddec885"
             y="206.69386"
             id="use1054" />
        </g>
      </g>
    </g>
    <g
       id="ytick_24">
      <g
         id="line2d_29">
        <g
           id="g1062">
          <use
             style="stroke:#000000;stroke-width:0.6"
             x="68"
             xlink:href="#m13bddec885"
             y="204.90326"
             id="use1060" />
        </g>
      </g>
    </g>
    <g
       id="ytick_25">
      <g
         id="line2d_30">
        <g
           id="g1068">
          <use
             style="stroke:#000000;stroke-width:0.6"
             x="68"
             xlink:href="#m13bddec885"
             y="192.76387"
             id="use1066" />
        </g>
      </g>
    </g>
    <g
       id="ytick_26">
      <g
         id="line2d_31">
        <g
           id="g1074">
          <use
             style="stroke:#000000;stroke-width:0.6"
             x="68"
             xlink:href="#m13bddec885"
             y="186.59976"
             id="use1072" />
        </g>
      </g>
    </g>
    <g
       id="ytick_27">
      <g
         id="line2d_32">
        <g
           id="g1080">
          <use
             style="stroke:#000000;stroke-width:0.6"
             x="68"
             xlink:href="#m13bddec885"
             y="182.22624"
             id="use1078" />
        </g>
      </g>
    </g>
    <g
       id="ytick_28">
      <g
         id="line2d_33">
        <g
           id="g1086">
          <use
             style="stroke:#000000;stroke-width:0.6"
             x="68"
             xlink:href="#m13bddec885"
             y="178.83388"
             id="use1084" />
        </g>
      </g>
    </g>
    <g
       id="ytick_29">
      <g
         id="line2d_34">
        <g
           id="g1092">
          <use
             style="stroke:#000000;stroke-width:0.6"
             x="68"
             xlink:href="#m13bddec885"
             y="176.06212"
             id="use1090" />
        </g>
      </g>
    </g>
    <g
       id="ytick_30">
      <g
         id="line2d_35">
        <g
           id="g1098">
          <use
             style="stroke:#000000;stroke-width:0.6"
             x="68"
             xlink:href="#m13bddec885"
             y="173.71864"
             id="use1096" />
        </g>
      </g>
    </g>
    <g
       id="ytick_31">
      <g
         id="line2d_36">
        <g
           id="g1104">
          <use
             style="stroke:#000000;stroke-width:0.6"
             x="68"
             xlink:href="#m13bddec885"
             y="171.68861"
             id="use1102" />
        </g>
      </g>
    </g>
    <g
       id="ytick_32">
      <g
         id="line2d_37">
        <g
           id="g1110">
          <use
             style="stroke:#000000;stroke-width:0.6"
             x="68"
             xlink:href="#m13bddec885"
             y="169.89801"
             id="use1108" />
        </g>
      </g>
    </g>
    <g
       id="ytick_33">
      <g
         id="line2d_38">
        <g
           id="g1116">
          <use
             style="stroke:#000000;stroke-width:0.6"
             x="68"
             xlink:href="#m13bddec885"
             y="157.75862"
             id="use1114" />
        </g>
      </g>
    </g>
    <g
       id="ytick_34">
      <g
         id="line2d_39">
        <g
           id="g1122">
          <use
             style="stroke:#000000;stroke-width:0.6"
             x="68"
             xlink:href="#m13bddec885"
             y="151.59451"
             id="use1120" />
        </g>
      </g>
    </g>
    <g
       id="ytick_35">
      <g
         id="line2d_40">
        <g
           id="g1128">
          <use
             style="stroke:#000000;stroke-width:0.6"
             x="68"
             xlink:href="#m13bddec885"
             y="147.22099"
             id="use1126" />
        </g>
      </g>
    </g>
    <g
       id="ytick_36">
      <g
         id="line2d_41">
        <g
           id="g1134">
          <use
             style="stroke:#000000;stroke-width:0.6"
             x="68"
             xlink:href="#m13bddec885"
             y="143.82863"
             id="use1132" />
        </g>
      </g>
    </g>
    <g
       id="ytick_37">
      <g
         id="line2d_42">
        <g
           id="g1140">
          <use
             style="stroke:#000000;stroke-width:0.6"
             x="68"
             xlink:href="#m13bddec885"
             y="141.05687"
             id="use1138" />
        </g>
      </g>
    </g>
    <g
       id="ytick_38">
      <g
         id="line2d_43">
        <g
           id="g1146">
          <use
             style="stroke:#000000;stroke-width:0.6"
             x="68"
             xlink:href="#m13bddec885"
             y="138.71339"
             id="use1144" />
        </g>
      </g>
    </g>
    <g
       id="ytick_39">
      <g
         id="line2d_44">
        <g
           id="g1152">
          <use
             style="stroke:#000000;stroke-width:0.6"
             x="68"
             xlink:href="#m13bddec885"
             y="136.68336"
             id="use1150" />
        </g>
      </g>
    </g>
    <g
       id="ytick_40">
      <g
         id="line2d_45">
        <g
           id="g1158">
          <use
             style="stroke:#000000;stroke-width:0.6"
             x="68"
             xlink:href="#m13bddec885"
             y="134.89276"
             id="use1156" />
        </g>
      </g>
    </g>
    <g
       id="ytick_41">
      <g
         id="line2d_46">
        <g
           id="g1164">
          <use
             style="stroke:#000000;stroke-width:0.6"
             x="68"
             xlink:href="#m13bddec885"
             y="122.75337"
             id="use1162" />
        </g>
      </g>
    </g>
    <g
       id="ytick_42">
      <g
         id="line2d_47">
        <g
           id="g1170">
          <use
             style="stroke:#000000;stroke-width:0.6"
             x="68"
             xlink:href="#m13bddec885"
             y="116.58926"
             id="use1168" />
        </g>
      </g>
    </g>
    <g
       id="ytick_43">
      <g
         id="line2d_48">
        <g
           id="g1176">
          <use
             style="stroke:#000000;stroke-width:0.6"
             x="68"
             xlink:href="#m13bddec885"
             y="112.21574"
             id="use1174" />
        </g>
      </g>
    </g>
    <g
       id="ytick_44">
      <g
         id="line2d_49">
        <g
           id="g1182">
          <use
             style="stroke:#000000;stroke-width:0.6"
             x="68"
             xlink:href="#m13bddec885"
             y="108.82339"
             id="use1180" />
        </g>
      </g>
    </g>
    <g
       id="ytick_45">
      <g
         id="line2d_50">
        <g
           id="g1188">
          <use
             style="stroke:#000000;stroke-width:0.6"
             x="68"
             xlink:href="#m13bddec885"
             y="106.05163"
             id="use1186" />
        </g>
      </g>
    </g>
    <g
       id="ytick_46">
      <g
         id="line2d_51">
        <g
           id="g1194">
          <use
             style="stroke:#000000;stroke-width:0.6"
             x="68"
             xlink:href="#m13bddec885"
             y="103.70814"
             id="use1192" />
        </g>
      </g>
    </g>
    <g
       id="ytick_47">
      <g
         id="line2d_52">
        <g
           id="g1200">
          <use
             style="stroke:#000000;stroke-width:0.6"
             x="68"
             xlink:href="#m13bddec885"
             y="101.67812"
             id="use1198" />
        </g>
      </g>
    </g>
    <g
       id="ytick_48">
      <g
         id="line2d_53">
        <g
           id="g1206">
          <use
             style="stroke:#000000;stroke-width:0.6"
             x="68"
             xlink:href="#m13bddec885"
             y="99.887512"
             id="use1204" />
        </g>
      </g>
    </g>
    <g
       id="ytick_49">
      <g
         id="line2d_54">
        <g
           id="g1212">
          <use
             style="stroke:#000000;stroke-width:0.6"
             x="68"
             xlink:href="#m13bddec885"
             y="87.748131"
             id="use1210" />
        </g>
      </g>
    </g>
    <g
       id="ytick_50">
      <g
         id="line2d_55">
        <g
           id="g1218">
          <use
             style="stroke:#000000;stroke-width:0.6"
             x="68"
             xlink:href="#m13bddec885"
             y="81.584007"
             id="use1216" />
        </g>
      </g>
    </g>
    <g
       id="ytick_51">
      <g
         id="line2d_56">
        <g
           id="g1224">
          <use
             style="stroke:#000000;stroke-width:0.6"
             x="68"
             xlink:href="#m13bddec885"
             y="77.210495"
             id="use1222" />
        </g>
      </g>
    </g>
    <g
       id="ytick_52">
      <g
         id="line2d_57">
        <g
           id="g1230">
          <use
             style="stroke:#000000;stroke-width:0.6"
             x="68"
             xlink:href="#m13bddec885"
             y="73.818138"
             id="use1228" />
        </g>
      </g>
    </g>
    <g
       id="ytick_53">
      <g
         id="line2d_58">
        <g
           id="g1236">
          <use
             style="stroke:#000000;stroke-width:0.6"
             x="68"
             xlink:href="#m13bddec885"
             y="71.046379"
             id="use1234" />
        </g>
      </g>
    </g>
    <g
       id="ytick_54">
      <g
         id="line2d_59">
        <g
           id="g1242">
          <use
             style="stroke:#000000;stroke-width:0.6"
             x="68"
             xlink:href="#m13bddec885"
             y="68.702888"
             id="use1240" />
        </g>
      </g>
    </g>
    <g
       id="ytick_55">
      <g
         id="line2d_60">
        <g
           id="g1248">
          <use
             style="stroke:#000000;stroke-width:0.6"
             x="68"
             xlink:href="#m13bddec885"
             y="66.672867"
             id="use1246" />
        </g>
      </g>
    </g>
    <g
       id="ytick_56">
      <g
         id="line2d_61">
        <g
           id="g1254">
          <use
             style="stroke:#000000;stroke-width:0.6"
             x="68"
             xlink:href="#m13bddec885"
             y="64.882263"
             id="use1252" />
        </g>
      </g>
    </g>
    <g
       id="ytick_57">
      <g
         id="line2d_62">
        <g
           id="g1260">
          <use
             style="stroke:#000000;stroke-width:0.6"
             x="68"
             xlink:href="#m13bddec885"
             y="52.742878"
             id="use1258" />
        </g>
      </g>
    </g>
    <g
       id="ytick_58">
      <g
         id="line2d_63">
        <g
           id="g1266">
          <use
             style="stroke:#000000;stroke-width:0.6"
             x="68"
             xlink:href="#m13bddec885"
             y="46.578758"
             id="use1264" />
        </g>
      </g>
    </g>
    <g
       id="ytick_59">
      <g
         id="line2d_64">
        <g
           id="g1272">
          <use
             style="stroke:#000000;stroke-width:0.6"
             x="68"
             xlink:href="#m13bddec885"
             y="42.20525"
             id="use1270" />
        </g>
      </g>
    </g>
    <g
       id="ytick_60">
      <g
         id="line2d_65">
        <g
           id="g1278">
          <use
             style="stroke:#000000;stroke-width:0.6"
             x="68"
             xlink:href="#m13bddec885"
             y="38.812889"
             id="use1276" />
        </g>
      </g>
    </g>
    <g
       id="ytick_61">
      <g
         id="line2d_66">
        <g
           id="g1284">
          <use
             style="stroke:#000000;stroke-width:0.6"
             x="68"
             xlink:href="#m13bddec885"
             y="36.04113"
             id="use1282" />
        </g>
      </g>
    </g>
    <g
       id="ytick_62">
      <g
         id="line2d_67">
        <g
           id="g1290">
          <use
             style="stroke:#000000;stroke-width:0.6"
             x="68"
             xlink:href="#m13bddec885"
             y="33.697639"
             id="use1288" />
        </g>
      </g>
    </g>
    <g
       id="ytick_63">
      <g
         id="line2d_68">
        <g
           id="g1296">
          <use
             style="stroke:#000000;stroke-width:0.6"
             x="68"
             xlink:href="#m13bddec885"
             y="31.66762"
             id="use1294" />
        </g>
      </g>
    </g>
    <g
       id="ytick_64">
      <g
         id="line2d_69">
        <g
           id="g1302">
          <use
             style="stroke:#000000;stroke-width:0.6"
             x="68"
             xlink:href="#m13bddec885"
             y="29.877012"
             id="use1300" />
        </g>
      </g>
    </g>
    <g
       id="ytick_65">
      <g
         id="line2d_70">
        <g
           id="g1308">
          <use
             style="stroke:#000000;stroke-width:0.6"
             x="68"
             xlink:href="#m13bddec885"
             y="17.737631"
             id="use1306" />
        </g>
      </g>
    </g>
    <g
       id="ytick_66">
      <g
         id="line2d_71">
        <g
           id="g1314">
          <use
             style="stroke:#000000;stroke-width:0.6"
             x="68"
             xlink:href="#m13bddec885"
             y="11.573512"
             id="use1312" />
        </g>
      </g>
    </g>
    <g
       id="ytick_67">
      <g
         id="line2d_72">
        <g
           id="g1320">
          <use
             style="stroke:#000000;stroke-width:0.6"
             x="68"
             xlink:href="#m13bddec885"
             y="7.1999998"
             id="use1318" />
        </g>
      </g>
    </g>
    <g
       id="text_15">
      <!-- $p_{\bf{B}}(x, t)$ -->
      <g
         transform="matrix(0,-0.15,-0.15,0,18.6,166.356)"
         id="g1346">
        <defs
           id="defs1330">
          <path
             d="m 49.609375,33.6875 q 0,7.1875 -3.125,10.984375 -3.125,3.8125 -8.984375,3.8125 -4,0 -7.640625,-2.046875 Q 26.21875,44.390625 23.390625,40.484375 20.609375,36.625 18.9375,31.15625 17.28125,25.6875 17.28125,20.3125 q 0,-6.828125 3.125,-10.515625 3.125,-3.6875 8.890625,-3.6875 4.25,0 7.890625,2 3.640625,2 6.21875,5.8125 2.78125,4 4.484375,9.421875 1.71875,5.421875 1.71875,10.34375 z M 21.78125,46.390625 Q 25.390625,51.125 30.296875,53.5625 35.203125,56 41.21875,56 49.609375,56 54.25,50.5 58.890625,45.015625 58.890625,35.109375 58.890625,27 56,19.65625 53.125,12.3125 47.703125,6.5 44.09375,2.640625 39.546875,0.609375 q -4.53125,-2.03125 -9.5625,-2.03125 -5.8125,0 -9.765625,2.421875 -3.953125,2.421875 -5.90625,7.203125 l -5.625,-29 H -0.296875 L 14.40625,54.6875 h 8.984375 z"
             id="DejaVuSans-Oblique-112" />
          <path
             d="m 38.375,44.671875 q 4.453125,0 6.734375,1.953125 2.296875,1.953125 2.296875,5.765625 0,3.765625 -2.296875,5.734375 -2.28125,1.984375 -6.734375,1.984375 H 27.984375 v -15.4375 z m 0.640625,-31.875 q 5.65625,0 8.515625,2.390625 2.859375,2.390625 2.859375,7.21875 0,4.75 -2.828125,7.109375 -2.828125,2.375 -8.546875,2.375 H 27.984375 V 12.796875 Z M 56.5,39.015625 q 6.046875,-1.765625 9.359375,-6.5 Q 69.1875,27.78125 69.1875,20.90625 69.1875,10.359375 62.0625,5.171875 54.9375,0 40.375,0 H 9.1875 v 72.90625 h 28.21875 q 15.1875,0 22,-4.59375 6.8125,-4.59375 6.8125,-14.703125 0,-5.3125 -2.5,-9.046875 Q 61.234375,40.828125 56.5,39.015625 Z"
             id="DejaVuSans-Bold-66" />
          <path
             d="M 31,75.875 Q 24.46875,64.65625 21.28125,53.65625 18.109375,42.671875 18.109375,31.390625 18.109375,20.125 21.3125,9.0625 24.515625,-2 31,-13.1875 H 23.1875 Q 15.875,-1.703125 12.234375,9.375 8.59375,20.453125 8.59375,31.390625 q 0,10.890625 3.609375,21.921875 3.625,11.046875 10.984375,22.5625 z"
             id="DejaVuSans-40" />
          <path
             d="M 11.71875,12.40625 H 22.015625 V 4 l -8,-15.625 H 7.71875 l 4,15.625 z"
             id="DejaVuSans-44" />
          <path
             d="M 42.28125,54.6875 40.921875,47.703125 H 23 l -5.8125,-29.6875 q -0.296875,-1.65625 -0.4375,-2.78125 -0.140625,-1.125 -0.140625,-1.75 0,-3.125 1.875,-4.546875 1.875,-1.421875 6.03125,-1.421875 H 33.59375 L 32.078125,0 h -8.59375 q -8,0 -11.9375,3.125 Q 7.625,6.25 7.625,12.59375 q 0,1.125 0.140625,2.46875 0.140625,1.34375 0.4375,2.953125 l 5.8125,29.6875 h -7.625 L 7.8125,54.6875 h 7.46875 l 3.03125,15.53125 h 8.984375 L 24.3125,54.6875 Z"
             id="DejaVuSans-Oblique-116" />
          <path
             d="m 8.015625,75.875 h 7.8125 q 7.3125,-11.515625 10.953125,-22.5625 3.640625,-11.03125 3.640625,-21.921875 0,-10.9375 -3.640625,-22.015625 -3.640625,-11.078125 -10.953125,-22.5625 h -7.8125 Q 14.5,-2 17.703125,9.0625 20.90625,20.125 20.90625,31.390625 q 0,11.28125 -3.203125,22.265625 -3.203125,11 -9.6875,22.21875 z"
             id="DejaVuSans-41" />
        </defs>
        <use
           transform="translate(0,0.125)"
           xlink:href="#DejaVuSans-Oblique-112"
           id="use1332" />
        <use
           transform="matrix(0.7,0,0,0.7,63.476562,-16.28125)"
           xlink:href="#DejaVuSans-Bold-66"
           id="use1334" />
        <use
           transform="translate(119.56543,0.125)"
           xlink:href="#DejaVuSans-40"
           id="use1336" />
        <use
           transform="translate(158.5791,0.125)"
           xlink:href="#DejaVuSans-Oblique-120"
           id="use1338" />
        <use
           transform="translate(217.75879,0.125)"
           xlink:href="#DejaVuSans-44"
           id="use1340" />
        <use
           transform="translate(269.02832,0.125)"
           xlink:href="#DejaVuSans-Oblique-116"
           id="use1342" />
        <use
           transform="translate(308.2373,0.125)"
           xlink:href="#DejaVuSans-41"
           id="use1344" />
      </g>
    </g>
  </g>
  <g
     id="line2d_74">
    <path
       clip-path="url(#p6052e385b8)"
       d="m 73.200777,176.81326 0.693437,69.4217 0.693436,-10.60449 0.693437,-6.27521 0.693437,-4.52834 1.386874,-6.60207 1.386874,-4.97606 1.386874,-4.1498 2.08031,-5.39006 2.773748,-6.37606 3.467184,-7.34018 4.854059,-9.70311 5.547495,-10.59891 6.240928,-11.42426 6.24094,-10.92448 6.24093,-10.43015 5.54749,-8.85705 5.5475,-8.46738 5.54749,-8.07778 5.5475,-7.68822 5.54749,-7.298702 5.5475,-6.909223 5.54749,-6.51978 4.85406,-5.385367 4.85406,-5.087247 4.85406,-4.789144 4.85406,-4.491062 4.85405,-4.192998 4.85406,-3.894948 4.85406,-3.596915 4.85406,-3.298896 4.85406,-3.00089 4.85406,-2.702895 4.16062,-2.079597 4.16062,-1.860675 4.16062,-1.64176 4.16062,-1.422848 4.16062,-1.203942 4.16062,-0.985039 4.16063,-0.766139 4.16062,-0.54724 4.16062,-0.328343 4.16062,-0.109448 4.16062,0.109448 4.16062,0.328343 4.16062,0.54724 4.16063,0.766139 4.16062,0.985039 4.16062,1.203942 4.16062,1.422848 4.16062,1.64176 4.16062,1.860675 4.16062,2.079597 4.16063,2.298523 4.85405,2.958318 4.85406,3.256323 4.85406,3.55434 4.85406,3.852372 4.85406,4.150417 4.85405,4.448481 4.85406,4.74656 4.85406,5.044659 4.85406,5.342778 4.85406,5.640917 5.54749,6.811859 5.5475,7.20133 5.54749,7.59084 5.5475,7.98038 5.54749,8.36998 5.5475,8.75962 5.54749,9.14938 5.5475,9.53955 6.24093,11.20074 6.24093,11.71166 5.5475,10.90596 4.16062,8.65521 2.77375,6.22715 2.08031,5.1661 1.38687,3.88141 1.38687,4.50196 1.38688,5.63658 0.69344,3.59024 0.69343,4.52834 0.69344,6.27521 0.69344,10.60449 0.69343,-69.4217 v 0"
       style="fill:none;stroke:#000000;stroke-width:1.5;stroke-linecap:square"
       id="path1353" />
  </g>
  <g
     id="patch_3">
    <path
       d="M 68,273.312 V 7.2"
       style="fill:none;stroke:#000000;stroke-width:0.8;stroke-linecap:square;stroke-linejoin:miter"
       id="path1356" />
  </g>
  <g
     id="patch_4">
    <path
       d="M 425.12,273.312 V 7.2"
       style="fill:none;stroke:#000000;stroke-width:0.8;stroke-linecap:square;stroke-linejoin:miter"
       id="path1359" />
  </g>
  <g
     id="patch_5">
    <path
       d="M 68,273.312 H 425.12"
       style="fill:none;stroke:#000000;stroke-width:0.8;stroke-linecap:square;stroke-linejoin:miter"
       id="path1362" />
  </g>
  <g
     id="patch_6">
    <path
       d="M 68,7.2 H 425.12"
       style="fill:none;stroke:#000000;stroke-width:0.8;stroke-linecap:square;stroke-linejoin:miter"
       id="path1365" />
  </g>
  <defs
     id="defs1373">
    <clipPath
       id="p6052e385b8">
      <rect
         height="266.112"
         width="357.12"
         x="68"
         y="7.2"
         id="rect1370" />
    </clipPath>
  </defs>
</svg>
