<?xml version="1.0" encoding="utf-8" standalone="no"?>
<!DOCTYPE svg PUBLIC "-//W3C//DTD SVG 1.1//EN"
  "http://www.w3.org/Graphics/SVG/1.1/DTD/svg11.dtd">
<!-- Created with matplotlib (https://matplotlib.org/) -->
<svg height="345.6pt" version="1.1" viewBox="0 0 460.8 345.6" width="460.8pt" xmlns="http://www.w3.org/2000/svg" xmlns:xlink="http://www.w3.org/1999/xlink">
 <metadata>
  <rdf:RDF xmlns:cc="http://creativecommons.org/ns#" xmlns:dc="http://purl.org/dc/elements/1.1/" xmlns:rdf="http://www.w3.org/1999/02/22-rdf-syntax-ns#">
   <cc:Work>
    <dc:type rdf:resource="http://purl.org/dc/dcmitype/StillImage"/>
    <dc:date>2023-06-13T11:40:45.288736</dc:date>
    <dc:format>image/svg+xml</dc:format>
    <dc:creator>
     <cc:Agent>
      <dc:title>Matplotlib v3.3.4, https://matplotlib.org/</dc:title>
     </cc:Agent>
    </dc:creator>
   </cc:Work>
  </rdf:RDF>
 </metadata>
 <defs>
  <style type="text/css">*{stroke-linecap:butt;stroke-linejoin:round;}</style>
 </defs>
 <g id="figure_1">
  <g id="patch_1">
   <path d="M 0 345.6 
L 460.8 345.6 
L 460.8 0 
L 0 0 
z
" style="fill:#ffffff;"/>
  </g>
  <g id="axes_1">
   <g id="patch_2">
    <path d="M 57.6 307.584 
L 414.72 307.584 
L 414.72 41.472 
L 57.6 41.472 
z
" style="fill:#ffffff;"/>
   </g>
   <g id="matplotlib.axis_1">
    <g id="xtick_1">
     <g id="line2d_1">
      <defs>
       <path d="M 0 0 
L 0 3.5 
" id="macc308efce" style="stroke:#000000;stroke-width:0.8;"/>
      </defs>
      <g>
       <use style="stroke:#000000;stroke-width:0.8;" x="204.522057" xlink:href="#macc308efce" y="307.584"/>
      </g>
     </g>
     <g id="text_1">
      <!-- $\mathdefault{10^{1}}$ -->
      <g transform="translate(195.722057 322.182437)scale(0.1 -0.1)">
       <defs>
        <path d="M 12.40625 8.296875 
L 28.515625 8.296875 
L 28.515625 63.921875 
L 10.984375 60.40625 
L 10.984375 69.390625 
L 28.421875 72.90625 
L 38.28125 72.90625 
L 38.28125 8.296875 
L 54.390625 8.296875 
L 54.390625 0 
L 12.40625 0 
z
" id="DejaVuSans-49"/>
        <path d="M 31.78125 66.40625 
Q 24.171875 66.40625 20.328125 58.90625 
Q 16.5 51.421875 16.5 36.375 
Q 16.5 21.390625 20.328125 13.890625 
Q 24.171875 6.390625 31.78125 6.390625 
Q 39.453125 6.390625 43.28125 13.890625 
Q 47.125 21.390625 47.125 36.375 
Q 47.125 51.421875 43.28125 58.90625 
Q 39.453125 66.40625 31.78125 66.40625 
z
M 31.78125 74.21875 
Q 44.046875 74.21875 50.515625 64.515625 
Q 56.984375 54.828125 56.984375 36.375 
Q 56.984375 17.96875 50.515625 8.265625 
Q 44.046875 -1.421875 31.78125 -1.421875 
Q 19.53125 -1.421875 13.0625 8.265625 
Q 6.59375 17.96875 6.59375 36.375 
Q 6.59375 54.828125 13.0625 64.515625 
Q 19.53125 74.21875 31.78125 74.21875 
z
" id="DejaVuSans-48"/>
       </defs>
       <use transform="translate(0 0.684375)" xlink:href="#DejaVuSans-49"/>
       <use transform="translate(63.623047 0.684375)" xlink:href="#DejaVuSans-48"/>
       <use transform="translate(128.203125 38.965625)scale(0.7)" xlink:href="#DejaVuSans-49"/>
      </g>
     </g>
    </g>
    <g id="xtick_2">
     <g id="line2d_2">
      <g>
       <use style="stroke:#000000;stroke-width:0.8;" x="414.72" xlink:href="#macc308efce" y="307.584"/>
      </g>
     </g>
     <g id="text_2">
      <!-- $\mathdefault{10^{2}}$ -->
      <g transform="translate(405.92 322.182437)scale(0.1 -0.1)">
       <defs>
        <path d="M 19.1875 8.296875 
L 53.609375 8.296875 
L 53.609375 0 
L 7.328125 0 
L 7.328125 8.296875 
Q 12.9375 14.109375 22.625 23.890625 
Q 32.328125 33.6875 34.8125 36.53125 
Q 39.546875 41.84375 41.421875 45.53125 
Q 43.3125 49.21875 43.3125 52.78125 
Q 43.3125 58.59375 39.234375 62.25 
Q 35.15625 65.921875 28.609375 65.921875 
Q 23.96875 65.921875 18.8125 64.3125 
Q 13.671875 62.703125 7.8125 59.421875 
L 7.8125 69.390625 
Q 13.765625 71.78125 18.9375 73 
Q 24.125 74.21875 28.421875 74.21875 
Q 39.75 74.21875 46.484375 68.546875 
Q 53.21875 62.890625 53.21875 53.421875 
Q 53.21875 48.921875 51.53125 44.890625 
Q 49.859375 40.875 45.40625 35.40625 
Q 44.1875 33.984375 37.640625 27.21875 
Q 31.109375 20.453125 19.1875 8.296875 
z
" id="DejaVuSans-50"/>
       </defs>
       <use transform="translate(0 0.765625)" xlink:href="#DejaVuSans-49"/>
       <use transform="translate(63.623047 0.765625)" xlink:href="#DejaVuSans-48"/>
       <use transform="translate(128.203125 39.046875)scale(0.7)" xlink:href="#DejaVuSans-50"/>
      </g>
     </g>
    </g>
    <g id="xtick_3">
     <g id="line2d_3">
      <defs>
       <path d="M 0 0 
L 0 2 
" id="m05fae92f20" style="stroke:#000000;stroke-width:0.6;"/>
      </defs>
      <g>
       <use style="stroke:#000000;stroke-width:0.6;" x="57.6" xlink:href="#m05fae92f20" y="307.584"/>
      </g>
     </g>
    </g>
    <g id="xtick_4">
     <g id="line2d_4">
      <g>
       <use style="stroke:#000000;stroke-width:0.6;" x="94.61402" xlink:href="#m05fae92f20" y="307.584"/>
      </g>
     </g>
    </g>
    <g id="xtick_5">
     <g id="line2d_5">
      <g>
       <use style="stroke:#000000;stroke-width:0.6;" x="120.875886" xlink:href="#m05fae92f20" y="307.584"/>
      </g>
     </g>
    </g>
    <g id="xtick_6">
     <g id="line2d_6">
      <g>
       <use style="stroke:#000000;stroke-width:0.6;" x="141.246171" xlink:href="#m05fae92f20" y="307.584"/>
      </g>
     </g>
    </g>
    <g id="xtick_7">
     <g id="line2d_7">
      <g>
       <use style="stroke:#000000;stroke-width:0.6;" x="157.889906" xlink:href="#m05fae92f20" y="307.584"/>
      </g>
     </g>
    </g>
    <g id="xtick_8">
     <g id="line2d_8">
      <g>
       <use style="stroke:#000000;stroke-width:0.6;" x="171.961984" xlink:href="#m05fae92f20" y="307.584"/>
      </g>
     </g>
    </g>
    <g id="xtick_9">
     <g id="line2d_9">
      <g>
       <use style="stroke:#000000;stroke-width:0.6;" x="184.151772" xlink:href="#m05fae92f20" y="307.584"/>
      </g>
     </g>
    </g>
    <g id="xtick_10">
     <g id="line2d_10">
      <g>
       <use style="stroke:#000000;stroke-width:0.6;" x="194.903927" xlink:href="#m05fae92f20" y="307.584"/>
      </g>
     </g>
    </g>
    <g id="xtick_11">
     <g id="line2d_11">
      <g>
       <use style="stroke:#000000;stroke-width:0.6;" x="267.797943" xlink:href="#m05fae92f20" y="307.584"/>
      </g>
     </g>
    </g>
    <g id="xtick_12">
     <g id="line2d_12">
      <g>
       <use style="stroke:#000000;stroke-width:0.6;" x="304.811963" xlink:href="#m05fae92f20" y="307.584"/>
      </g>
     </g>
    </g>
    <g id="xtick_13">
     <g id="line2d_13">
      <g>
       <use style="stroke:#000000;stroke-width:0.6;" x="331.073829" xlink:href="#m05fae92f20" y="307.584"/>
      </g>
     </g>
    </g>
    <g id="xtick_14">
     <g id="line2d_14">
      <g>
       <use style="stroke:#000000;stroke-width:0.6;" x="351.444114" xlink:href="#m05fae92f20" y="307.584"/>
      </g>
     </g>
    </g>
    <g id="xtick_15">
     <g id="line2d_15">
      <g>
       <use style="stroke:#000000;stroke-width:0.6;" x="368.087849" xlink:href="#m05fae92f20" y="307.584"/>
      </g>
     </g>
    </g>
    <g id="xtick_16">
     <g id="line2d_16">
      <g>
       <use style="stroke:#000000;stroke-width:0.6;" x="382.159927" xlink:href="#m05fae92f20" y="307.584"/>
      </g>
     </g>
    </g>
    <g id="xtick_17">
     <g id="line2d_17">
      <g>
       <use style="stroke:#000000;stroke-width:0.6;" x="394.349715" xlink:href="#m05fae92f20" y="307.584"/>
      </g>
     </g>
    </g>
    <g id="xtick_18">
     <g id="line2d_18">
      <g>
       <use style="stroke:#000000;stroke-width:0.6;" x="405.10187" xlink:href="#m05fae92f20" y="307.584"/>
      </g>
     </g>
    </g>
    <g id="text_3">
     <!-- $t$ -->
     <g transform="translate(234.16 335.860562)scale(0.1 -0.1)">
      <defs>
       <path d="M 42.28125 54.6875 
L 40.921875 47.703125 
L 23 47.703125 
L 17.1875 18.015625 
Q 16.890625 16.359375 16.75 15.234375 
Q 16.609375 14.109375 16.609375 13.484375 
Q 16.609375 10.359375 18.484375 8.9375 
Q 20.359375 7.515625 24.515625 7.515625 
L 33.59375 7.515625 
L 32.078125 0 
L 23.484375 0 
Q 15.484375 0 11.546875 3.125 
Q 7.625 6.25 7.625 12.59375 
Q 7.625 13.71875 7.765625 15.0625 
Q 7.90625 16.40625 8.203125 18.015625 
L 14.015625 47.703125 
L 6.390625 47.703125 
L 7.8125 54.6875 
L 15.28125 54.6875 
L 18.3125 70.21875 
L 27.296875 70.21875 
L 24.3125 54.6875 
z
" id="DejaVuSans-Oblique-116"/>
      </defs>
      <use transform="translate(0 0.78125)" xlink:href="#DejaVuSans-Oblique-116"/>
     </g>
    </g>
   </g>
   <g id="matplotlib.axis_2">
    <g id="ytick_1">
     <g id="line2d_19">
      <defs>
       <path d="M 0 0 
L -3.5 0 
" id="m2ab5120a12" style="stroke:#000000;stroke-width:0.8;"/>
      </defs>
      <g>
       <use style="stroke:#000000;stroke-width:0.8;" x="57.6" xlink:href="#m2ab5120a12" y="280.640711"/>
      </g>
     </g>
     <g id="text_4">
      <!-- $\mathdefault{10^{-1}}$ -->
      <g transform="translate(27.1 284.43993)scale(0.1 -0.1)">
       <defs>
        <path d="M 10.59375 35.5 
L 73.1875 35.5 
L 73.1875 27.203125 
L 10.59375 27.203125 
z
" id="DejaVuSans-8722"/>
       </defs>
       <use transform="translate(0 0.684375)" xlink:href="#DejaVuSans-49"/>
       <use transform="translate(63.623047 0.684375)" xlink:href="#DejaVuSans-48"/>
       <use transform="translate(128.203125 38.965625)scale(0.7)" xlink:href="#DejaVuSans-8722"/>
       <use transform="translate(186.855469 38.965625)scale(0.7)" xlink:href="#DejaVuSans-49"/>
      </g>
     </g>
    </g>
    <g id="ytick_2">
     <g id="line2d_20">
      <g>
       <use style="stroke:#000000;stroke-width:0.8;" x="57.6" xlink:href="#m2ab5120a12" y="126.348134"/>
      </g>
     </g>
     <g id="text_5">
      <!-- $\mathdefault{10^{0}}$ -->
      <g transform="translate(33 130.147352)scale(0.1 -0.1)">
       <use transform="translate(0 0.765625)" xlink:href="#DejaVuSans-49"/>
       <use transform="translate(63.623047 0.765625)" xlink:href="#DejaVuSans-48"/>
       <use transform="translate(128.203125 39.046875)scale(0.7)" xlink:href="#DejaVuSans-48"/>
      </g>
     </g>
    </g>
    <g id="ytick_3">
     <g id="line2d_21">
      <defs>
       <path d="M 0 0 
L -2 0 
" id="m6f89cfecf6" style="stroke:#000000;stroke-width:0.6;"/>
      </defs>
      <g>
       <use style="stroke:#000000;stroke-width:0.6;" x="57.6" xlink:href="#m6f89cfecf6" y="304.540934"/>
      </g>
     </g>
    </g>
    <g id="ytick_4">
     <g id="line2d_22">
      <g>
       <use style="stroke:#000000;stroke-width:0.6;" x="57.6" xlink:href="#m6f89cfecf6" y="295.593207"/>
      </g>
     </g>
    </g>
    <g id="ytick_5">
     <g id="line2d_23">
      <g>
       <use style="stroke:#000000;stroke-width:0.6;" x="57.6" xlink:href="#m6f89cfecf6" y="287.700752"/>
      </g>
     </g>
    </g>
    <g id="ytick_6">
     <g id="line2d_24">
      <g>
       <use style="stroke:#000000;stroke-width:0.6;" x="57.6" xlink:href="#m6f89cfecf6" y="234.194017"/>
      </g>
     </g>
    </g>
    <g id="ytick_7">
     <g id="line2d_25">
      <g>
       <use style="stroke:#000000;stroke-width:0.6;" x="57.6" xlink:href="#m6f89cfecf6" y="207.024443"/>
      </g>
     </g>
    </g>
    <g id="ytick_8">
     <g id="line2d_26">
      <g>
       <use style="stroke:#000000;stroke-width:0.6;" x="57.6" xlink:href="#m6f89cfecf6" y="187.747323"/>
      </g>
     </g>
    </g>
    <g id="ytick_9">
     <g id="line2d_27">
      <g>
       <use style="stroke:#000000;stroke-width:0.6;" x="57.6" xlink:href="#m6f89cfecf6" y="172.794828"/>
      </g>
     </g>
    </g>
    <g id="ytick_10">
     <g id="line2d_28">
      <g>
       <use style="stroke:#000000;stroke-width:0.6;" x="57.6" xlink:href="#m6f89cfecf6" y="160.577749"/>
      </g>
     </g>
    </g>
    <g id="ytick_11">
     <g id="line2d_29">
      <g>
       <use style="stroke:#000000;stroke-width:0.6;" x="57.6" xlink:href="#m6f89cfecf6" y="150.248356"/>
      </g>
     </g>
    </g>
    <g id="ytick_12">
     <g id="line2d_30">
      <g>
       <use style="stroke:#000000;stroke-width:0.6;" x="57.6" xlink:href="#m6f89cfecf6" y="141.300629"/>
      </g>
     </g>
    </g>
    <g id="ytick_13">
     <g id="line2d_31">
      <g>
       <use style="stroke:#000000;stroke-width:0.6;" x="57.6" xlink:href="#m6f89cfecf6" y="133.408175"/>
      </g>
     </g>
    </g>
    <g id="ytick_14">
     <g id="line2d_32">
      <g>
       <use style="stroke:#000000;stroke-width:0.6;" x="57.6" xlink:href="#m6f89cfecf6" y="79.90144"/>
      </g>
     </g>
    </g>
    <g id="ytick_15">
     <g id="line2d_33">
      <g>
       <use style="stroke:#000000;stroke-width:0.6;" x="57.6" xlink:href="#m6f89cfecf6" y="52.731865"/>
      </g>
     </g>
    </g>
    <g id="text_6">
     <!-- $\mathrm{Var}(\ln(P_{\bf{B}}(X(t)&gt;vt^{3/4}, t)))$ -->
     <g transform="translate(21.020312 236.128)rotate(-90)scale(0.1 -0.1)">
      <defs>
       <path d="M 28.609375 0 
L 0.78125 72.90625 
L 11.078125 72.90625 
L 34.1875 11.53125 
L 57.328125 72.90625 
L 67.578125 72.90625 
L 39.796875 0 
z
" id="DejaVuSans-86"/>
       <path d="M 34.28125 27.484375 
Q 23.390625 27.484375 19.1875 25 
Q 14.984375 22.515625 14.984375 16.5 
Q 14.984375 11.71875 18.140625 8.90625 
Q 21.296875 6.109375 26.703125 6.109375 
Q 34.1875 6.109375 38.703125 11.40625 
Q 43.21875 16.703125 43.21875 25.484375 
L 43.21875 27.484375 
z
M 52.203125 31.203125 
L 52.203125 0 
L 43.21875 0 
L 43.21875 8.296875 
Q 40.140625 3.328125 35.546875 0.953125 
Q 30.953125 -1.421875 24.3125 -1.421875 
Q 15.921875 -1.421875 10.953125 3.296875 
Q 6 8.015625 6 15.921875 
Q 6 25.140625 12.171875 29.828125 
Q 18.359375 34.515625 30.609375 34.515625 
L 43.21875 34.515625 
L 43.21875 35.40625 
Q 43.21875 41.609375 39.140625 45 
Q 35.0625 48.390625 27.6875 48.390625 
Q 23 48.390625 18.546875 47.265625 
Q 14.109375 46.140625 10.015625 43.890625 
L 10.015625 52.203125 
Q 14.9375 54.109375 19.578125 55.046875 
Q 24.21875 56 28.609375 56 
Q 40.484375 56 46.34375 49.84375 
Q 52.203125 43.703125 52.203125 31.203125 
z
" id="DejaVuSans-97"/>
       <path d="M 41.109375 46.296875 
Q 39.59375 47.171875 37.8125 47.578125 
Q 36.03125 48 33.890625 48 
Q 26.265625 48 22.1875 43.046875 
Q 18.109375 38.09375 18.109375 28.8125 
L 18.109375 0 
L 9.078125 0 
L 9.078125 54.6875 
L 18.109375 54.6875 
L 18.109375 46.1875 
Q 20.953125 51.171875 25.484375 53.578125 
Q 30.03125 56 36.53125 56 
Q 37.453125 56 38.578125 55.875 
Q 39.703125 55.765625 41.0625 55.515625 
z
" id="DejaVuSans-114"/>
       <path d="M 31 75.875 
Q 24.46875 64.65625 21.28125 53.65625 
Q 18.109375 42.671875 18.109375 31.390625 
Q 18.109375 20.125 21.3125 9.0625 
Q 24.515625 -2 31 -13.1875 
L 23.1875 -13.1875 
Q 15.875 -1.703125 12.234375 9.375 
Q 8.59375 20.453125 8.59375 31.390625 
Q 8.59375 42.28125 12.203125 53.3125 
Q 15.828125 64.359375 23.1875 75.875 
z
" id="DejaVuSans-40"/>
       <path d="M 9.421875 75.984375 
L 18.40625 75.984375 
L 18.40625 0 
L 9.421875 0 
z
" id="DejaVuSans-108"/>
       <path d="M 54.890625 33.015625 
L 54.890625 0 
L 45.90625 0 
L 45.90625 32.71875 
Q 45.90625 40.484375 42.875 44.328125 
Q 39.84375 48.1875 33.796875 48.1875 
Q 26.515625 48.1875 22.3125 43.546875 
Q 18.109375 38.921875 18.109375 30.90625 
L 18.109375 0 
L 9.078125 0 
L 9.078125 54.6875 
L 18.109375 54.6875 
L 18.109375 46.1875 
Q 21.34375 51.125 25.703125 53.5625 
Q 30.078125 56 35.796875 56 
Q 45.21875 56 50.046875 50.171875 
Q 54.890625 44.34375 54.890625 33.015625 
z
" id="DejaVuSans-110"/>
       <path d="M 16.890625 72.90625 
L 39.703125 72.90625 
Q 49.65625 72.90625 54.875 68.265625 
Q 60.109375 63.625 60.109375 54.6875 
Q 60.109375 42.671875 52.390625 35.984375 
Q 44.671875 29.296875 30.71875 29.296875 
L 18.3125 29.296875 
L 12.59375 0 
L 2.6875 0 
z
M 25.203125 64.796875 
L 19.921875 37.40625 
L 32.328125 37.40625 
Q 40.71875 37.40625 45.203125 41.703125 
Q 49.703125 46 49.703125 54 
Q 49.703125 59.125 46.65625 61.953125 
Q 43.609375 64.796875 38.09375 64.796875 
z
" id="DejaVuSans-Oblique-80"/>
       <path d="M 38.375 44.671875 
Q 42.828125 44.671875 45.109375 46.625 
Q 47.40625 48.578125 47.40625 52.390625 
Q 47.40625 56.15625 45.109375 58.125 
Q 42.828125 60.109375 38.375 60.109375 
L 27.984375 60.109375 
L 27.984375 44.671875 
z
M 39.015625 12.796875 
Q 44.671875 12.796875 47.53125 15.1875 
Q 50.390625 17.578125 50.390625 22.40625 
Q 50.390625 27.15625 47.5625 29.515625 
Q 44.734375 31.890625 39.015625 31.890625 
L 27.984375 31.890625 
L 27.984375 12.796875 
z
M 56.5 39.015625 
Q 62.546875 37.25 65.859375 32.515625 
Q 69.1875 27.78125 69.1875 20.90625 
Q 69.1875 10.359375 62.0625 5.171875 
Q 54.9375 0 40.375 0 
L 9.1875 0 
L 9.1875 72.90625 
L 37.40625 72.90625 
Q 52.59375 72.90625 59.40625 68.3125 
Q 66.21875 63.71875 66.21875 53.609375 
Q 66.21875 48.296875 63.71875 44.5625 
Q 61.234375 40.828125 56.5 39.015625 
z
" id="DejaVuSans-Bold-66"/>
       <path d="M 13.71875 72.90625 
L 23.6875 72.90625 
L 36.1875 46.578125 
L 58.796875 72.90625 
L 70.3125 72.90625 
L 40.28125 38.09375 
L 58.40625 0 
L 48.484375 0 
L 33.796875 30.71875 
L 7.171875 0 
L -4.296875 0 
L 29.78125 39.203125 
z
" id="DejaVuSans-Oblique-88"/>
       <path d="M 8.015625 75.875 
L 15.828125 75.875 
Q 23.140625 64.359375 26.78125 53.3125 
Q 30.421875 42.28125 30.421875 31.390625 
Q 30.421875 20.453125 26.78125 9.375 
Q 23.140625 -1.703125 15.828125 -13.1875 
L 8.015625 -13.1875 
Q 14.5 -2 17.703125 9.0625 
Q 20.90625 20.125 20.90625 31.390625 
Q 20.90625 42.671875 17.703125 53.65625 
Q 14.5 64.65625 8.015625 75.875 
z
" id="DejaVuSans-41"/>
       <path d="M 10.59375 49.21875 
L 10.59375 58.109375 
L 73.1875 35.40625 
L 73.1875 27.296875 
L 10.59375 4.59375 
L 10.59375 13.484375 
L 60.890625 31.296875 
z
" id="DejaVuSans-62"/>
       <path d="M 7.171875 54.6875 
L 16.703125 54.6875 
L 24.703125 8.203125 
L 50.875 54.6875 
L 60.40625 54.6875 
L 29.296875 0 
L 17.1875 0 
z
" id="DejaVuSans-Oblique-118"/>
       <path d="M 40.578125 39.3125 
Q 47.65625 37.796875 51.625 33 
Q 55.609375 28.21875 55.609375 21.1875 
Q 55.609375 10.40625 48.1875 4.484375 
Q 40.765625 -1.421875 27.09375 -1.421875 
Q 22.515625 -1.421875 17.65625 -0.515625 
Q 12.796875 0.390625 7.625 2.203125 
L 7.625 11.71875 
Q 11.71875 9.328125 16.59375 8.109375 
Q 21.484375 6.890625 26.8125 6.890625 
Q 36.078125 6.890625 40.9375 10.546875 
Q 45.796875 14.203125 45.796875 21.1875 
Q 45.796875 27.640625 41.28125 31.265625 
Q 36.765625 34.90625 28.71875 34.90625 
L 20.21875 34.90625 
L 20.21875 43.015625 
L 29.109375 43.015625 
Q 36.375 43.015625 40.234375 45.921875 
Q 44.09375 48.828125 44.09375 54.296875 
Q 44.09375 59.90625 40.109375 62.90625 
Q 36.140625 65.921875 28.71875 65.921875 
Q 24.65625 65.921875 20.015625 65.03125 
Q 15.375 64.15625 9.8125 62.3125 
L 9.8125 71.09375 
Q 15.4375 72.65625 20.34375 73.4375 
Q 25.25 74.21875 29.59375 74.21875 
Q 40.828125 74.21875 47.359375 69.109375 
Q 53.90625 64.015625 53.90625 55.328125 
Q 53.90625 49.265625 50.4375 45.09375 
Q 46.96875 40.921875 40.578125 39.3125 
z
" id="DejaVuSans-51"/>
       <path d="M 25.390625 72.90625 
L 33.6875 72.90625 
L 8.296875 -9.28125 
L 0 -9.28125 
z
" id="DejaVuSans-47"/>
       <path d="M 37.796875 64.3125 
L 12.890625 25.390625 
L 37.796875 25.390625 
z
M 35.203125 72.90625 
L 47.609375 72.90625 
L 47.609375 25.390625 
L 58.015625 25.390625 
L 58.015625 17.1875 
L 47.609375 17.1875 
L 47.609375 0 
L 37.796875 0 
L 37.796875 17.1875 
L 4.890625 17.1875 
L 4.890625 26.703125 
z
" id="DejaVuSans-52"/>
       <path d="M 11.71875 12.40625 
L 22.015625 12.40625 
L 22.015625 4 
L 14.015625 -11.625 
L 7.71875 -11.625 
L 11.71875 4 
z
" id="DejaVuSans-44"/>
      </defs>
      <use transform="translate(0 0.765625)" xlink:href="#DejaVuSans-86"/>
      <use transform="translate(68.408203 0.765625)" xlink:href="#DejaVuSans-97"/>
      <use transform="translate(129.6875 0.765625)" xlink:href="#DejaVuSans-114"/>
      <use transform="translate(170.800781 0.765625)" xlink:href="#DejaVuSans-40"/>
      <use transform="translate(209.814453 0.765625)" xlink:href="#DejaVuSans-108"/>
      <use transform="translate(237.597656 0.765625)" xlink:href="#DejaVuSans-110"/>
      <use transform="translate(300.976562 0.765625)" xlink:href="#DejaVuSans-40"/>
      <use transform="translate(339.990234 0.765625)" xlink:href="#DejaVuSans-Oblique-80"/>
      <use transform="translate(400.292969 -15.640625)scale(0.7)" xlink:href="#DejaVuSans-Bold-66"/>
      <use transform="translate(456.381836 0.765625)" xlink:href="#DejaVuSans-40"/>
      <use transform="translate(495.395508 0.765625)" xlink:href="#DejaVuSans-Oblique-88"/>
      <use transform="translate(563.901367 0.765625)" xlink:href="#DejaVuSans-40"/>
      <use transform="translate(602.915039 0.765625)" xlink:href="#DejaVuSans-Oblique-116"/>
      <use transform="translate(642.124023 0.765625)" xlink:href="#DejaVuSans-41"/>
      <use transform="translate(700.620117 0.765625)" xlink:href="#DejaVuSans-62"/>
      <use transform="translate(803.891602 0.765625)" xlink:href="#DejaVuSans-Oblique-118"/>
      <use transform="translate(863.071289 0.765625)" xlink:href="#DejaVuSans-Oblique-116"/>
      <use transform="translate(908.920794 39.046875)scale(0.7)" xlink:href="#DejaVuSans-51"/>
      <use transform="translate(953.456927 39.046875)scale(0.7)" xlink:href="#DejaVuSans-47"/>
      <use transform="translate(977.040911 39.046875)scale(0.7)" xlink:href="#DejaVuSans-52"/>
      <use transform="translate(1024.311419 0.765625)" xlink:href="#DejaVuSans-44"/>
      <use transform="translate(1075.580951 0.765625)" xlink:href="#DejaVuSans-Oblique-116"/>
      <use transform="translate(1114.789935 0.765625)" xlink:href="#DejaVuSans-41"/>
      <use transform="translate(1153.803607 0.765625)" xlink:href="#DejaVuSans-41"/>
      <use transform="translate(1192.817279 0.765625)" xlink:href="#DejaVuSans-41"/>
     </g>
    </g>
   </g>
   <g id="LineCollection_1">
    <path clip-path="url(#p02cca2387a)" style="fill:none;stroke:#f05e18;stroke-dasharray:5.55,2.4;stroke-dashoffset:0;stroke-width:1.5;"/>
   </g>
   <g id="LineCollection_2">
    <path clip-path="url(#p02cca2387a)" style="fill:none;stroke:#e03d22;stroke-dasharray:5.55,2.4;stroke-dashoffset:0;stroke-width:1.5;"/>
   </g>
   <g id="LineCollection_3">
    <path clip-path="url(#p02cca2387a)" style="fill:none;stroke:#cd2f3b;stroke-dasharray:5.55,2.4;stroke-dashoffset:0;stroke-width:1.5;"/>
   </g>
   <g id="LineCollection_4">
    <path clip-path="url(#p02cca2387a)" style="fill:none;stroke:#b54773;stroke-dasharray:5.55,2.4;stroke-dashoffset:0;stroke-width:1.5;"/>
   </g>
   <g id="LineCollection_5">
    <path clip-path="url(#p02cca2387a)" style="fill:none;stroke:#9c5fab;stroke-dasharray:5.55,2.4;stroke-dashoffset:0;stroke-width:1.5;"/>
   </g>
   <g id="LineCollection_6">
    <path clip-path="url(#p02cca2387a)" style="fill:none;stroke:#766bbb;stroke-dasharray:5.55,2.4;stroke-dashoffset:0;stroke-width:1.5;"/>
   </g>
   <g id="LineCollection_7">
    <path clip-path="url(#p02cca2387a)" style="fill:none;stroke:#4a71b7;stroke-dasharray:5.55,2.4;stroke-dashoffset:0;stroke-width:1.5;"/>
   </g>
   <g id="line2d_34">
    <path clip-path="url(#p02cca2387a)" d="M -1 135.703073 
L 57.6 240.666508 
L 94.61402 172.536297 
L 120.875886 243.974488 
L 141.246171 194.577957 
L 157.889906 159.784241 
L 171.961984 211.008658 
L 184.151772 179.837442 
L 194.903927 221.675172 
L 204.522057 192.418352 
L 213.222714 231.182476 
L 221.165792 201.679619 
L 228.472715 181.067082 
L 235.23787 211.527471 
L 241.536077 191.522053 
L 247.427658 219.842807 
L 252.961946 199.846482 
L 258.179813 224.29317 
L 263.115491 204.316523 
L 267.797943 230.40666 
L 272.25189 211.137189 
L 276.4986 194.697898 
L 280.556504 218.124124 
L 284.441678 201.152354 
L 288.168228 220.60244 
L 291.748601 206.679976 
L 295.193833 225.480986 
L 298.513755 212.04562 
L 301.717165 228.792563 
L 304.811963 215.116951 
L 307.805274 232.889784 
L 310.703543 218.928639 
L 313.512621 206.499287 
L 316.237832 222.375845 
L 318.884041 209.529594 
L 321.455698 227.768024 
L 323.956891 214.503149 
L 326.391376 231.373078 
L 328.762622 218.871109 
L 331.073829 234.43125 
L 333.327963 222.594994 
L 335.527776 236.576256 
L 337.675823 224.912534 
L 339.774486 214.548011 
L 341.825984 227.924934 
L 343.83239 217.86563 
L 345.795644 231.510991 
L 347.717564 221.370676 
L 349.599853 234.567045 
L 351.444114 224.461657 
L 353.251853 236.781258 
L 355.024487 227.010246 
L 356.763355 239.572576 
L 358.469719 228.397166 
L 360.144771 219.831705 
L 361.789641 232.316863 
L 363.405397 223.111617 
L 364.993051 234.536123 
L 366.553564 225.998123 
L 368.087849 237.29287 
L 369.596773 227.637568 
L 371.08116 238.274214 
L 372.541796 229.880783 
L 373.979429 241.044652 
L 375.394772 232.711908 
L 376.788506 243.271756 
L 379.513718 225.035491 
L 380.84641 234.766519 
L 382.159927 227.068272 
L 383.454811 237.276814 
L 384.731584 228.702523 
L 385.990746 238.253482 
L 387.232776 228.823278 
L 388.458135 240.32249 
L 389.667262 232.721511 
L 390.860584 242.719431 
L 392.038507 235.039777 
L 393.201425 244.220708 
L 395.483739 227.09228 
L 396.603849 236.982416 
L 397.710381 229.201562 
L 398.803662 237.942965 
L 399.884003 230.708187 
L 400.951709 239.732247 
L 402.007071 231.446329 
L 403.050372 241.659004 
L 404.081884 232.813591 
L 405.10187 242.900961 
L 406.110585 234.31255 
L 407.108276 243.918271 
L 409.07153 229.289042 
L 410.037548 238.332945 
L 410.99345 230.653343 
L 411.939446 238.707549 
L 412.875739 231.832837 
L 413.802527 240.632473 
L 414.72 234.898256 
L 415.628344 243.003579 
L 416.527738 236.262351 
L 417.418358 244.301133 
L 418.300373 238.035565 
L 419.173947 246.062229 
L 420.039241 239.02464 
L 420.89641 247.762505 
L 422.586973 234.835417 
L 423.420657 241.871322 
L 424.246797 235.734021 
L 425.065527 243.705487 
L 425.87698 237.552198 
L 426.681283 245.037728 
L 427.478561 237.804739 
L 428.268937 245.999535 
L 429.052528 239.668438 
L 429.82945 246.356627 
L 430.599816 239.79203 
L 431.363735 247.326546 
L 432.121315 240.303722 
L 432.872659 234.784307 
L 433.617869 241.723068 
L 434.357046 235.895602 
L 435.090285 243.032476 
L 435.817682 236.820631 
L 436.539329 243.279991 
L 437.255315 237.585614 
L 437.96573 244.650105 
L 438.670658 239.455396 
L 439.370185 245.988441 
L 440.064392 241.280908 
L 440.75336 248.361219 
L 441.437167 242.040664 
L 442.11589 248.811011 
L 443.458382 239.125786 
L 444.122296 245.248828 
L 444.781417 239.227853 
L 445.435813 245.64519 
L 446.085551 240.729285 
L 446.730697 246.874526 
L 447.371316 242.035076 
L 448.00747 247.695236 
L 448.639222 242.737284 
L 449.266632 248.939656 
L 449.88976 243.673334 
L 450.508662 249.150428 
L 451.123397 243.751681 
L 451.73402 250.09324 
L 452.340586 243.961858 
L 452.943148 249.811796 
L 454.13647 239.628467 
L 454.727331 246.483162 
L 455.314393 241.44172 
L 455.897704 247.265343 
L 456.477311 242.480474 
L 457.053261 249.042918 
L 457.6256 242.705488 
L 458.194374 249.371521 
L 458.759625 243.622053 
L 459.321398 249.615093 
L 459.879735 244.065623 
L 460.434678 250.425307 
L 460.986267 245.199139 
L 461.534544 250.495286 
L 461.8 248.037946 
L 461.8 248.037946 
" style="fill:none;stroke:#f05e18;stroke-linecap:square;stroke-opacity:0.75;stroke-width:1.5;"/>
   </g>
   <g id="line2d_35">
    <path clip-path="url(#p02cca2387a)" d="M -1 135.713059 
L 57.6 240.639087 
L 94.61402 172.528691 
L 120.875886 133.676765 
L 141.246171 194.570827 
L 157.889906 159.793742 
L 171.961984 211.017467 
L 184.151772 179.851067 
L 194.903927 153.511635 
L 204.522057 192.427612 
L 213.222714 169.48531 
L 221.165792 201.684175 
L 228.472715 181.064805 
L 235.23787 211.527252 
L 241.536077 191.52395 
L 247.427658 173.37091 
L 252.961946 199.85926 
L 258.179813 182.317819 
L 263.115491 204.316729 
L 267.797943 188.476861 
L 272.25189 211.149547 
L 276.4986 194.7113 
L 280.556504 180.979404 
L 284.441678 201.166002 
L 288.168228 187.01554 
L 291.748601 206.667797 
L 295.193833 193.041496 
L 298.513755 212.048113 
L 304.811963 186.643327 
L 307.805274 203.173111 
L 310.703543 190.711807 
L 313.512621 206.512625 
L 316.237832 195.525635 
L 318.884041 209.54021 
L 321.455698 198.542476 
L 323.956891 189.291941 
L 326.391376 202.86788 
L 328.762622 192.307852 
L 331.073829 207.924177 
L 333.327963 196.594918 
L 335.527776 211.895101 
L 337.675823 201.67325 
L 339.774486 214.557207 
L 341.825984 203.648236 
L 343.83239 194.797712 
L 345.795644 207.960808 
L 347.717564 199.613303 
L 349.599853 210.226227 
L 351.444114 200.887758 
L 353.251853 214.520666 
L 355.024487 203.923205 
L 356.763355 216.495606 
L 358.469719 207.049477 
L 360.144771 198.667931 
L 361.789641 210.149475 
L 363.405397 201.658677 
L 364.993051 214.355163 
L 366.553564 205.105012 
L 368.087849 216.677662 
L 369.596773 207.2381 
L 371.08116 218.714338 
L 373.979429 201.547086 
L 375.394772 211.816767 
L 376.788506 203.602089 
L 378.161281 215.285458 
L 379.513718 207.629784 
L 380.84641 216.742072 
L 382.159927 208.881861 
L 383.454811 218.170933 
L 384.731584 211.937026 
L 385.990746 220.671448 
L 387.232776 214.275645 
L 388.458135 206.190012 
L 389.667262 215.367553 
L 390.860584 207.983472 
L 392.038507 216.91122 
L 393.201425 210.240922 
L 394.349715 219.624669 
L 395.483739 212.195942 
L 396.603849 220.063783 
L 398.803662 206.290429 
L 399.884003 214.78128 
L 400.951709 207.513316 
L 402.007071 216.325485 
L 403.050372 210.002106 
L 404.081884 217.275978 
L 405.10187 211.712605 
L 406.110585 218.75236 
L 407.108276 211.776766 
L 408.095181 221.132392 
L 410.037548 208.871793 
L 410.99345 217.147659 
L 411.939446 210.717649 
L 412.875739 218.504496 
L 413.802527 212.603929 
L 414.72 220.012695 
L 415.628344 213.344199 
L 416.527738 221.23221 
L 417.418358 216.232535 
L 418.300373 210.177239 
L 419.173947 217.587902 
L 420.039241 211.757905 
L 420.89641 218.578333 
L 421.745605 213.603421 
L 422.586973 219.874436 
L 423.420657 214.446355 
L 424.246797 221.561754 
L 425.065527 215.150521 
L 425.87698 222.562018 
L 427.478561 210.970113 
L 428.268937 216.815068 
L 429.052528 211.63102 
L 429.82945 217.774743 
L 430.599816 212.90794 
L 431.363735 220.481397 
L 432.121315 214.980829 
L 432.872659 223.033627 
L 433.617869 217.44126 
L 434.357046 223.870626 
L 435.817682 214.310493 
L 436.539329 219.896954 
L 437.255315 214.750107 
L 437.96573 220.854954 
L 438.670658 216.899209 
L 439.370185 222.761494 
L 440.064392 217.78684 
L 440.75336 224.237315 
L 441.437167 219.74057 
L 442.11589 225.411587 
L 443.458382 215.285582 
L 444.122296 221.489324 
L 444.781417 216.598325 
L 445.435813 222.003484 
L 446.085551 217.291182 
L 446.730697 224.417462 
L 447.371316 218.9191 
L 448.00747 225.952024 
L 448.639222 220.432004 
L 449.266632 226.646154 
L 449.88976 220.703824 
L 450.508662 227.603977 
L 451.73402 216.81559 
L 452.340586 222.861804 
L 452.943148 218.152998 
L 453.541759 224.438747 
L 454.13647 220.009882 
L 454.727331 224.313885 
L 455.314393 219.397633 
L 455.897704 224.722349 
L 456.477311 220.668049 
L 457.053261 226.186914 
L 458.194374 218.193443 
L 458.759625 223.211394 
L 459.321398 218.46247 
L 459.879735 223.615741 
L 460.434678 219.483861 
L 460.986267 224.967282 
L 461.534544 220.719295 
L 461.8 223.102238 
L 461.8 223.102238 
" style="fill:none;stroke:#e03d22;stroke-linecap:square;stroke-opacity:0.75;stroke-width:1.5;"/>
   </g>
   <g id="line2d_36">
    <path clip-path="url(#p02cca2387a)" d="M -1 135.72556 
L 57.6 240.693762 
L 94.61402 172.404129 
L 120.875886 133.656986 
L 141.246171 194.604813 
L 157.889906 159.851394 
L 171.961984 135.089371 
L 184.151772 179.898887 
L 194.903927 153.508064 
L 204.522057 192.377647 
L 213.222714 169.383392 
L 221.165792 151.401139 
L 228.472715 180.964944 
L 235.23787 162.709678 
L 241.536077 191.41407 
L 247.427658 173.222444 
L 252.961946 156.820767 
L 258.179813 182.323942 
L 263.115491 166.299339 
L 267.797943 188.454636 
L 272.25189 174.724195 
L 276.4986 162.864061 
L 280.556504 180.998787 
L 284.441678 168.090614 
L 288.168228 187.029313 
L 291.748601 175.125838 
L 295.193833 193.030867 
L 298.513755 180.435496 
L 301.717165 170.37767 
L 304.811963 186.597579 
L 307.805274 175.083663 
L 310.703543 190.654669 
L 313.512621 179.870569 
L 316.237832 171.148644 
L 318.884041 183.969194 
L 321.455698 174.70939 
L 323.956891 189.202549 
L 326.391376 179.003058 
L 328.762622 192.207906 
L 333.327963 172.983404 
L 335.527776 186.682378 
L 337.675823 177.233254 
L 339.774486 190.885511 
L 341.825984 181.691915 
L 343.83239 194.791832 
L 345.795644 186.097646 
L 347.717564 176.167729 
L 349.599853 189.24868 
L 351.444114 181.002587 
L 353.251853 192.261314 
L 355.024487 184.714135 
L 356.763355 195.930925 
L 358.469719 187.227438 
L 360.144771 180.060715 
L 361.789641 189.855176 
L 363.405397 182.602122 
L 364.993051 193.618256 
L 366.553564 186.047491 
L 368.087849 196.434369 
L 369.596773 189.809303 
L 371.08116 182.585321 
L 372.541796 192.067423 
L 373.979429 184.824808 
L 375.394772 195.147969 
L 376.788506 188.1807 
L 378.161281 196.901489 
L 379.513718 189.658583 
L 380.84641 199.75216 
L 383.454811 185.59349 
L 384.731584 194.271729 
L 385.990746 187.381833 
L 387.232776 196.978963 
L 388.458135 190.031024 
L 389.667262 198.918806 
L 392.038507 186.041037 
L 393.201425 194.434561 
L 394.349715 187.405357 
L 395.483739 196.161343 
L 396.603849 190.026964 
L 397.710381 199.111925 
L 398.803662 193.082427 
L 399.884003 200.586216 
L 402.007071 188.379391 
L 403.050372 196.556713 
L 404.081884 190.697157 
L 405.10187 198.307162 
L 406.110585 192.890467 
L 407.108276 199.669174 
L 408.095181 194.8724 
L 409.07153 189.027878 
L 410.037548 195.470764 
L 410.99345 190.635619 
L 411.939446 197.57293 
L 412.875739 192.043628 
L 413.802527 198.849582 
L 414.72 193.502694 
L 415.628344 200.941879 
L 417.418358 189.882907 
L 418.300373 196.992609 
L 419.173947 192.459207 
L 420.039241 199.824349 
L 420.89641 193.193636 
L 421.745605 199.996654 
L 422.586973 193.906272 
L 423.420657 201.679047 
L 425.065527 192.126525 
L 425.87698 197.879375 
L 426.681283 193.255522 
L 427.478561 199.181025 
L 428.268937 194.724921 
L 429.052528 201.607137 
L 430.599816 192.020264 
L 431.363735 198.256239 
L 432.121315 194.082131 
L 432.872659 200.667049 
L 433.617869 194.382 
L 434.357046 199.912161 
L 435.090285 195.256587 
L 435.817682 201.6338 
L 437.255315 192.123263 
L 437.96573 198.203709 
L 438.670658 194.356627 
L 439.370185 199.995375 
L 440.064392 195.65812 
L 440.75336 201.427417 
L 441.437167 196.381351 
L 442.11589 202.726201 
L 443.458382 193.290681 
L 444.122296 198.397321 
L 444.781417 194.32402 
L 445.435813 200.379599 
L 446.085551 196.316124 
L 446.730697 201.789308 
L 447.371316 196.887613 
L 448.00747 203.139446 
L 448.639222 198.650138 
L 449.266632 195.021283 
L 449.88976 199.63199 
L 450.508662 195.699011 
L 451.123397 201.40165 
L 451.73402 196.163152 
L 452.340586 202.321543 
L 452.943148 198.702436 
L 453.541759 204.387686 
L 454.13647 199.792131 
L 454.727331 204.675757 
L 455.314393 199.976086 
L 455.897704 197.134694 
L 456.477311 202.304277 
L 457.053261 197.064603 
L 457.6256 202.712081 
L 458.194374 198.586623 
L 458.759625 203.722325 
L 459.321398 200.260341 
L 459.879735 204.919564 
L 460.986267 196.963414 
L 461.534544 201.306388 
L 461.8 199.82713 
L 461.8 199.82713 
" style="fill:none;stroke:#cd2f3b;stroke-linecap:square;stroke-opacity:0.75;stroke-width:1.5;"/>
   </g>
   <g id="line2d_37">
    <path clip-path="url(#p02cca2387a)" d="M -1 123.630933 
L 57.6 78.686585 
L 94.61402 172.176701 
L 120.875886 133.376657 
L 141.246171 105.825512 
L 157.889906 159.828902 
L 171.961984 135.091571 
L 184.151772 179.890292 
L 194.903927 153.499008 
L 204.522057 135.489701 
L 213.222714 169.383956 
L 221.165792 151.401897 
L 228.472715 134.146783 
L 235.23787 162.697498 
L 241.536077 146.094926 
L 247.427658 173.234838 
L 252.961946 156.834396 
L 258.179813 144.489363 
L 263.115491 166.31242 
L 267.797943 154.896492 
L 272.25189 174.706865 
L 276.4986 162.863822 
L 280.556504 149.364809 
L 284.441678 168.084502 
L 288.168228 156.725359 
L 291.748601 175.107524 
L 295.193833 163.919838 
L 298.513755 154.601494 
L 301.717165 170.369478 
L 304.811963 159.185814 
L 307.805274 175.071249 
L 310.703543 163.348147 
L 313.512621 155.267886 
L 316.237832 171.150345 
L 318.884041 162.163213 
L 321.455698 174.722962 
L 323.956891 165.070365 
L 326.391376 157.025321 
L 328.762622 169.400942 
L 331.073829 160.109204 
L 333.327963 172.979752 
L 337.675823 155.327106 
L 339.774486 168.133657 
L 341.825984 160.720655 
L 343.83239 172.210288 
L 345.795644 164.436381 
L 347.717564 176.153658 
L 349.599853 168.296576 
L 351.444114 161.631518 
L 353.251853 173.017406 
L 355.024487 165.342086 
L 356.763355 176.859842 
L 358.469719 169.184308 
L 360.144771 162.449146 
L 361.789641 172.833898 
L 363.405397 166.874837 
L 364.993051 176.423318 
L 366.553564 170.732703 
L 368.087849 179.543771 
L 371.08116 165.539013 
L 372.541796 175.4248 
L 373.979429 168.63559 
L 375.394772 177.070485 
L 376.788506 170.874337 
L 378.161281 165.730404 
L 379.513718 174.242947 
L 380.84641 167.572058 
L 382.159927 176.34552 
L 383.454811 170.529717 
L 384.731584 179.87606 
L 385.990746 173.595823 
L 387.232776 168.06759 
L 388.458135 176.136348 
L 389.667262 170.658398 
L 390.860584 178.686521 
L 392.038507 172.063247 
L 393.201425 180.011271 
L 394.349715 175.408582 
L 395.483739 169.76792 
L 396.603849 177.174395 
L 397.710381 171.549669 
L 398.803662 179.529855 
L 399.884003 173.634833 
L 400.951709 181.445908 
L 402.007071 176.783157 
L 403.050372 171.575623 
L 404.081884 178.419279 
L 405.10187 173.303351 
L 406.110585 181.025819 
L 407.108276 175.557058 
L 408.095181 182.517098 
L 410.037548 173.41654 
L 410.99345 179.698482 
L 411.939446 174.373367 
L 412.875739 180.616697 
L 413.802527 175.523777 
L 414.72 182.229303 
L 415.628344 177.979869 
L 416.527738 172.821606 
L 417.418358 179.246426 
L 418.300373 174.958889 
L 419.173947 180.081961 
L 420.039241 175.747838 
L 420.89641 181.670155 
L 422.586973 174.768891 
L 423.420657 179.28897 
L 424.246797 175.541851 
L 425.065527 180.903784 
L 425.87698 176.130084 
L 426.681283 182.539084 
L 428.268937 172.849482 
L 429.052528 179.445923 
L 429.82945 174.787394 
L 430.599816 181.269317 
L 431.363735 176.457874 
L 432.121315 182.712599 
L 432.872659 178.480298 
L 433.617869 173.35202 
L 434.357046 179.513692 
L 435.090285 174.948277 
L 435.817682 181.264192 
L 436.539329 175.784016 
L 437.255315 180.865629 
L 438.670658 174.005141 
L 439.370185 178.660778 
L 440.064392 174.788546 
L 440.75336 180.23202 
L 441.437167 176.631993 
L 442.11589 182.317635 
L 442.789604 178.879994 
L 443.458382 173.594886 
L 444.122296 178.996252 
L 444.781417 174.777851 
L 445.435813 180.271013 
L 446.085551 176.131874 
L 446.730697 182.026727 
L 447.371316 177.475808 
L 448.00747 183.470909 
L 448.639222 179.139609 
L 449.266632 175.816121 
L 449.88976 179.918755 
L 450.508662 176.616475 
L 451.123397 180.970039 
L 451.73402 177.965305 
L 452.340586 182.856112 
L 453.541759 176.154874 
L 454.13647 180.487886 
L 454.727331 175.983376 
L 455.314393 181.097705 
L 455.897704 177.946706 
L 456.477311 182.637463 
L 457.053261 178.801066 
L 457.6256 183.548209 
L 458.194374 179.114879 
L 458.759625 176.182654 
L 459.321398 181.654682 
L 459.879735 177.401281 
L 460.434678 184.1047 
L 460.986267 179.982451 
L 461.534544 185.609714 
L 461.8 183.880472 
L 461.8 183.880472 
" style="fill:none;stroke:#b54773;stroke-linecap:square;stroke-opacity:0.75;stroke-width:1.5;"/>
   </g>
   <g id="line2d_38">
    <path clip-path="url(#p02cca2387a)" d="M -1 123.630933 
L 57.6 78.686585 
L 94.61402 172.176701 
L 120.875886 133.376657 
L 141.246171 105.825512 
L 157.889906 159.828902 
L 171.961984 135.091571 
L 184.151772 114.860639 
L 194.903927 153.499008 
L 204.522057 135.489701 
L 213.222714 118.131697 
L 221.165792 151.401897 
L 228.472715 134.146783 
L 235.23787 120.994322 
L 241.536077 146.094926 
L 247.427658 132.147336 
L 252.961946 156.834396 
L 258.179813 144.489363 
L 263.115491 132.335219 
L 267.797943 154.896492 
L 272.25189 142.175685 
L 276.4986 130.576762 
L 280.556504 149.364809 
L 284.441678 138.787552 
L 288.168228 156.725359 
L 291.748601 145.842747 
L 295.193833 136.925414 
L 298.513755 154.601494 
L 301.717165 143.497496 
L 304.811963 159.185814 
L 307.805274 149.586574 
L 310.703543 140.868111 
L 313.512621 155.267886 
L 316.237832 146.674228 
L 318.884041 137.060134 
L 321.455698 153.207823 
L 323.956891 144.539975 
L 326.391376 157.025321 
L 328.762622 148.458664 
L 331.073829 141.329691 
L 333.327963 152.267822 
L 335.527776 145.665479 
L 337.675823 155.327106 
L 341.825984 141.044595 
L 343.83239 153.17754 
L 345.795644 146.799814 
L 347.717564 156.923434 
L 349.599853 151.547726 
L 351.444114 144.559404 
L 353.251853 155.005953 
L 355.024487 148.863639 
L 356.763355 159.04499 
L 360.144771 146.28362 
L 361.789641 156.564172 
L 363.405397 149.588358 
L 364.993051 160.375532 
L 368.087849 147.303172 
L 369.596773 156.675598 
L 371.08116 150.202225 
L 372.541796 159.527329 
L 373.979429 153.654448 
L 375.394772 146.67404 
L 376.788506 156.573071 
L 378.161281 150.829317 
L 379.513718 159.028678 
L 380.84641 153.721307 
L 382.159927 162.241339 
L 384.731584 150.015637 
L 385.990746 158.451144 
L 387.232776 153.83647 
L 388.458135 162.30263 
L 390.860584 151.50403 
L 392.038507 159.396854 
L 393.201425 154.896718 
L 394.349715 162.319268 
L 395.483739 156.849545 
L 396.603849 152.489935 
L 397.710381 159.37087 
L 398.803662 155.151769 
L 399.884003 162.540627 
L 400.951709 157.524496 
L 402.007071 164.818596 
L 403.050372 160.493639 
L 404.081884 155.669282 
L 405.10187 162.205786 
L 406.110585 156.589517 
L 407.108276 163.766435 
L 409.07153 154.517753 
L 410.037548 161.66893 
L 410.99345 157.099157 
L 411.939446 163.948795 
L 412.875739 159.178369 
L 413.802527 164.913424 
L 414.72 159.83959 
L 415.628344 156.527235 
L 416.527738 162.153968 
L 417.418358 157.784358 
L 418.300373 162.731246 
L 420.039241 155.306864 
L 420.89641 161.613393 
L 421.745605 157.695428 
L 422.586973 163.151978 
L 423.420657 159.390576 
L 424.246797 165.968283 
L 425.87698 157.814255 
L 426.681283 163.529899 
L 427.478561 159.557527 
L 428.268937 163.782724 
L 429.052528 159.635263 
L 429.82945 156.209041 
L 430.599816 160.237057 
L 431.363735 157.145454 
L 432.121315 162.466351 
L 432.872659 158.595508 
L 433.617869 163.703472 
L 434.357046 158.930992 
L 435.090285 156.061778 
L 435.817682 160.924699 
L 436.539329 157.467449 
L 437.255315 162.808757 
L 437.96573 158.440512 
L 438.670658 164.672909 
L 439.370185 160.293003 
L 440.064392 156.957429 
L 440.75336 162.217986 
L 441.437167 158.605219 
L 442.11589 163.483368 
L 443.458382 156.50184 
L 444.122296 160.690444 
L 444.781417 156.797648 
L 445.435813 162.123615 
L 446.085551 158.597774 
L 446.730697 163.809905 
L 447.371316 160.41838 
L 448.00747 155.949813 
L 448.639222 161.65956 
L 449.266632 158.54517 
L 449.88976 162.792782 
L 450.508662 159.856501 
L 451.123397 164.73594 
L 451.73402 161.4957 
L 452.340586 156.981936 
L 452.943148 162.078745 
L 453.541759 158.380404 
L 454.13647 162.948201 
L 454.727331 159.624376 
L 455.314393 163.640093 
L 456.477311 157.330062 
L 457.053261 161.678795 
L 457.6256 158.692517 
L 458.194374 163.020455 
L 458.759625 159.411847 
L 459.321398 163.908571 
L 460.434678 156.652938 
L 460.986267 162.883601 
L 461.534544 158.286228 
L 461.8 160.872253 
L 461.8 160.872253 
" style="fill:none;stroke:#9c5fab;stroke-linecap:square;stroke-opacity:0.75;stroke-width:1.5;"/>
   </g>
   <g id="line2d_39">
    <path clip-path="url(#p02cca2387a)" d="M -1 123.876717 
L 57.6 78.755427 
L 94.61402 172.600428 
L 120.875886 133.726956 
L 141.246171 106.124249 
L 157.889906 85.874128 
L 171.961984 135.0215 
L 184.151772 114.801065 
L 194.903927 97.656091 
L 204.522057 135.516089 
L 213.222714 118.18799 
L 221.165792 104.20413 
L 228.472715 134.240846 
L 241.536077 108.737473 
L 247.427658 132.148478 
L 252.961946 119.526188 
L 258.179813 144.56768 
L 267.797943 120.872643 
L 272.25189 142.180082 
L 276.4986 130.580677 
L 280.556504 121.042426 
L 284.441678 138.808519 
L 288.168228 129.26126 
L 291.748601 120.468111 
L 295.193833 136.902906 
L 298.513755 127.486152 
L 301.717165 143.488467 
L 304.811963 134.176664 
L 307.805274 125.945101 
L 310.703543 140.852843 
L 316.237832 123.923599 
L 318.884041 137.008848 
L 321.455698 129.270446 
L 323.956891 122.152738 
L 326.391376 136.700624 
L 328.762622 129.818059 
L 331.073829 141.304686 
L 335.527776 126.227227 
L 337.675823 137.328943 
L 339.774486 130.529775 
L 341.825984 141.011678 
L 343.83239 134.666533 
L 345.795644 129.621749 
L 347.717564 140.11162 
L 349.599853 134.113615 
L 351.444114 127.402209 
L 353.251853 138.897021 
L 355.024487 131.702818 
L 356.763355 141.993079 
L 358.469719 135.1275 
L 360.144771 129.997089 
L 361.789641 139.925634 
L 363.405397 133.314161 
L 364.993051 144.216295 
L 368.087849 131.060326 
L 369.596773 141.154066 
L 371.08116 134.967464 
L 372.541796 143.740696 
L 373.979429 137.947931 
L 375.394772 133.143017 
L 376.788506 141.602914 
L 378.161281 136.360633 
L 379.513718 144.930794 
L 380.84641 139.784433 
L 382.159927 133.138491 
L 383.454811 141.85027 
L 384.731584 136.357172 
L 385.990746 145.604468 
L 387.232776 140.036087 
L 388.458135 135.324242 
L 389.667262 144.047248 
L 390.860584 139.160286 
L 392.038507 147.008047 
L 393.201425 141.940888 
L 394.349715 137.673542 
L 395.483739 144.713553 
L 396.603849 140.267768 
L 397.710381 147.659857 
L 398.803662 142.954658 
L 399.884003 138.906558 
L 400.951709 145.179782 
L 402.007071 139.951059 
L 403.050372 149.007431 
L 404.081884 143.339532 
L 405.10187 138.52808 
L 406.110585 145.470337 
L 407.108276 141.628678 
L 408.095181 148.318111 
L 409.07153 144.286035 
L 410.037548 139.379232 
L 410.99345 145.343863 
L 411.939446 141.328385 
L 412.875739 147.264761 
L 413.802527 144.329939 
L 414.72 139.792005 
L 415.628344 145.427083 
L 416.527738 140.856125 
L 417.418358 148.21386 
L 419.173947 140.064237 
L 420.039241 146.245706 
L 420.89641 142.09215 
L 421.745605 147.194024 
L 422.586973 143.357193 
L 423.420657 140.336031 
L 424.246797 145.997336 
L 425.065527 141.916641 
L 425.87698 147.378507 
L 426.681283 143.648646 
L 427.478561 139.080171 
L 428.268937 144.692451 
L 429.052528 141.009698 
L 429.82945 146.543119 
L 431.363735 138.557693 
L 432.121315 144.259591 
L 432.872659 141.018698 
L 433.617869 145.105171 
L 434.357046 142.30954 
L 435.090285 146.703714 
L 436.539329 140.751692 
L 437.255315 145.460611 
L 437.96573 142.327569 
L 438.670658 146.410398 
L 439.370185 143.188756 
L 440.064392 140.684477 
L 440.75336 145.547101 
L 441.437167 142.558384 
L 442.11589 146.576575 
L 443.458382 140.686468 
L 444.122296 144.926353 
L 444.781417 142.176697 
L 445.435813 145.13347 
L 446.085551 141.909575 
L 446.730697 145.834765 
L 448.00747 140.399963 
L 448.639222 145.224816 
L 449.266632 141.658727 
L 449.88976 145.692718 
L 451.123397 140.163785 
L 451.73402 145.168363 
L 452.340586 141.477338 
L 452.943148 147.11229 
L 453.541759 143.897933 
L 454.13647 147.782016 
L 454.727331 144.94483 
L 455.314393 141.463485 
L 455.897704 146.173325 
L 456.477311 143.902444 
L 457.053261 148.104242 
L 458.194374 142.548721 
L 458.759625 146.121574 
L 459.321398 144.519111 
L 459.879735 147.129076 
L 460.434678 145.414439 
L 460.986267 148.233852 
L 461.8 144.555162 
L 461.8 144.555162 
" style="fill:none;stroke:#766bbb;stroke-linecap:square;stroke-opacity:0.75;stroke-width:1.5;"/>
   </g>
   <g id="line2d_40">
    <path clip-path="url(#p02cca2387a)" d="M -1 123.734464 
L 57.6 78.702684 
L 94.61402 53.568 
L 120.875886 133.664489 
L 141.246171 106.064511 
L 157.889906 85.81243 
L 171.961984 135.014995 
L 184.151772 114.814778 
L 194.903927 97.604717 
L 204.522057 84.604911 
L 213.222714 118.104423 
L 221.165792 104.157757 
L 228.472715 92.671548 
L 235.23787 121.006929 
L 241.536077 108.737777 
L 247.427658 98.430653 
L 252.961946 119.446614 
L 258.179813 108.172878 
L 263.115491 98.247793 
L 267.797943 120.864352 
L 272.25189 111.11843 
L 276.4986 102.881502 
L 280.556504 120.963595 
L 284.441678 110.951397 
L 288.168228 103.247584 
L 291.748601 120.43816 
L 295.193833 111.45718 
L 298.513755 127.513953 
L 304.811963 111.438274 
L 307.805274 125.999302 
L 313.512621 110.055198 
L 316.237832 123.956455 
L 318.884041 115.096429 
L 321.455698 108.548009 
L 323.956891 122.184059 
L 328.762622 110.417957 
L 331.073829 121.923772 
L 333.327963 115.445248 
L 335.527776 126.248114 
L 337.675823 121.295077 
L 339.774486 115.384308 
L 341.825984 124.568344 
L 343.83239 118.817756 
L 345.795644 112.719013 
L 347.717564 122.785815 
L 349.599853 117.655329 
L 351.444114 127.424034 
L 353.251853 121.153489 
L 355.024487 116.431622 
L 356.763355 126.295582 
L 358.469719 120.46819 
L 360.144771 115.342193 
L 361.789641 124.609736 
L 363.405397 119.618191 
L 364.993051 128.50126 
L 366.553564 122.508313 
L 368.087849 118.224824 
L 369.596773 126.157873 
L 371.08116 120.300346 
L 372.541796 115.463392 
L 373.979429 124.512377 
L 375.394772 119.010523 
L 376.788506 126.88967 
L 378.161281 122.097725 
L 379.513718 117.910551 
L 380.84641 125.107541 
L 382.159927 121.221818 
L 383.454811 115.114076 
L 384.731584 123.606486 
L 385.990746 119.785725 
L 387.232776 127.133563 
L 388.458135 122.893884 
L 389.667262 119.333533 
L 390.860584 126.777778 
L 392.038507 122.283932 
L 393.201425 130.602779 
L 394.349715 125.855849 
L 395.483739 122.286346 
L 396.603849 128.728993 
L 397.710381 124.957913 
L 398.803662 131.900756 
L 400.951709 123.466651 
L 402.007071 129.962211 
L 404.081884 121.810732 
L 405.10187 127.901552 
L 406.110585 124.010375 
L 407.108276 130.888737 
L 409.07153 123.337536 
L 410.037548 128.5159 
L 410.99345 125.961267 
L 411.939446 131.373361 
L 413.802527 123.953761 
L 414.72 130.190673 
L 415.628344 126.425379 
L 416.527738 131.837314 
L 418.300373 124.945285 
L 419.173947 130.266859 
L 420.039241 127.176743 
L 420.89641 132.499801 
L 422.586973 126.085931 
L 423.420657 131.284267 
L 424.246797 127.265094 
L 425.065527 132.455719 
L 426.681283 125.2045 
L 427.478561 129.476266 
L 428.268937 126.402228 
L 429.052528 124.054996 
L 429.82945 129.574845 
L 430.599816 126.729772 
L 431.363735 130.946503 
L 432.872659 124.423551 
L 433.617869 128.857256 
L 434.357046 126.15209 
L 435.090285 132.124664 
L 436.539329 125.462527 
L 437.255315 129.110125 
L 437.96573 126.188384 
L 438.670658 131.186405 
L 439.370185 128.548244 
L 440.064392 124.837476 
L 440.75336 129.436984 
L 441.437167 127.104847 
L 442.11589 131.561938 
L 442.789604 128.30259 
L 443.458382 125.773163 
L 444.122296 130.311608 
L 444.781417 127.785583 
L 445.435813 131.258157 
L 446.730697 126.217565 
L 447.371316 129.895616 
L 448.00747 127.613487 
L 448.639222 131.535616 
L 449.266632 129.024126 
L 449.88976 133.713544 
L 450.508662 130.669438 
L 451.123397 128.584791 
L 451.73402 132.03505 
L 452.340586 129.695499 
L 452.943148 132.270835 
L 453.541759 130.879337 
L 454.13647 128.920244 
L 454.727331 131.913368 
L 455.314393 130.851741 
L 455.897704 133.802792 
L 457.053261 129.879104 
L 457.6256 132.731378 
L 458.194374 130.64378 
L 458.759625 133.606097 
L 459.321398 131.646087 
L 459.879735 129.200382 
L 460.434678 133.317996 
L 460.986267 130.458928 
L 461.534544 133.973522 
L 461.8 132.907767 
L 461.8 132.907767 
" style="fill:none;stroke:#4a71b7;stroke-linecap:square;stroke-opacity:0.75;stroke-width:1.5;"/>
   </g>
   <g id="patch_3">
    <path d="M 57.6 307.584 
L 57.6 41.472 
" style="fill:none;stroke:#000000;stroke-linecap:square;stroke-linejoin:miter;stroke-width:0.8;"/>
   </g>
   <g id="patch_4">
    <path d="M 414.72 307.584 
L 414.72 41.472 
" style="fill:none;stroke:#000000;stroke-linecap:square;stroke-linejoin:miter;stroke-width:0.8;"/>
   </g>
   <g id="patch_5">
    <path d="M 57.6 307.584 
L 414.72 307.584 
" style="fill:none;stroke:#000000;stroke-linecap:square;stroke-linejoin:miter;stroke-width:0.8;"/>
   </g>
   <g id="patch_6">
    <path d="M 57.6 41.472 
L 414.72 41.472 
" style="fill:none;stroke:#000000;stroke-linecap:square;stroke-linejoin:miter;stroke-width:0.8;"/>
   </g>
   <g id="legend_1">
    <g id="patch_7">
     <path d="M 369.62 152.218875 
L 407.72 152.218875 
Q 409.72 152.218875 409.72 150.218875 
L 409.72 48.472 
Q 409.72 46.472 407.72 46.472 
L 369.62 46.472 
Q 367.62 46.472 367.62 48.472 
L 367.62 150.218875 
Q 367.62 152.218875 369.62 152.218875 
z
" style="fill:none;opacity:0;"/>
    </g>
    <g id="line2d_41"/>
    <g id="text_7">
     <!-- $v=0.3$ -->
     <g style="fill:#ff7f0e;" transform="translate(371.62 58.070438)scale(0.1 -0.1)">
      <defs>
       <path d="M 10.59375 45.40625 
L 73.1875 45.40625 
L 73.1875 37.203125 
L 10.59375 37.203125 
z
M 10.59375 25.484375 
L 73.1875 25.484375 
L 73.1875 17.1875 
L 10.59375 17.1875 
z
" id="DejaVuSans-61"/>
       <path d="M 10.6875 12.40625 
L 21 12.40625 
L 21 0 
L 10.6875 0 
z
" id="DejaVuSans-46"/>
      </defs>
      <use transform="translate(0 0.78125)" xlink:href="#DejaVuSans-Oblique-118"/>
      <use transform="translate(78.662109 0.78125)" xlink:href="#DejaVuSans-61"/>
      <use transform="translate(181.933594 0.78125)" xlink:href="#DejaVuSans-48"/>
      <use transform="translate(245.556641 0.78125)" xlink:href="#DejaVuSans-46"/>
      <use transform="translate(277.34375 0.78125)" xlink:href="#DejaVuSans-51"/>
     </g>
    </g>
    <g id="line2d_42"/>
    <g id="text_8">
     <!-- $v=0.4$ -->
     <g style="fill:#f05e18;" transform="translate(371.62 72.748563)scale(0.1 -0.1)">
      <use transform="translate(0 0.78125)" xlink:href="#DejaVuSans-Oblique-118"/>
      <use transform="translate(78.662109 0.78125)" xlink:href="#DejaVuSans-61"/>
      <use transform="translate(181.933594 0.78125)" xlink:href="#DejaVuSans-48"/>
      <use transform="translate(245.556641 0.78125)" xlink:href="#DejaVuSans-46"/>
      <use transform="translate(277.34375 0.78125)" xlink:href="#DejaVuSans-52"/>
     </g>
    </g>
    <g id="line2d_43"/>
    <g id="text_9">
     <!-- $v=0.5$ -->
     <g style="fill:#e03d22;" transform="translate(371.62 87.426688)scale(0.1 -0.1)">
      <defs>
       <path d="M 10.796875 72.90625 
L 49.515625 72.90625 
L 49.515625 64.59375 
L 19.828125 64.59375 
L 19.828125 46.734375 
Q 21.96875 47.46875 24.109375 47.828125 
Q 26.265625 48.1875 28.421875 48.1875 
Q 40.625 48.1875 47.75 41.5 
Q 54.890625 34.8125 54.890625 23.390625 
Q 54.890625 11.625 47.5625 5.09375 
Q 40.234375 -1.421875 26.90625 -1.421875 
Q 22.3125 -1.421875 17.546875 -0.640625 
Q 12.796875 0.140625 7.71875 1.703125 
L 7.71875 11.625 
Q 12.109375 9.234375 16.796875 8.0625 
Q 21.484375 6.890625 26.703125 6.890625 
Q 35.15625 6.890625 40.078125 11.328125 
Q 45.015625 15.765625 45.015625 23.390625 
Q 45.015625 31 40.078125 35.4375 
Q 35.15625 39.890625 26.703125 39.890625 
Q 22.75 39.890625 18.8125 39.015625 
Q 14.890625 38.140625 10.796875 36.28125 
z
" id="DejaVuSans-53"/>
      </defs>
      <use transform="translate(0 0.78125)" xlink:href="#DejaVuSans-Oblique-118"/>
      <use transform="translate(78.662109 0.78125)" xlink:href="#DejaVuSans-61"/>
      <use transform="translate(181.933594 0.78125)" xlink:href="#DejaVuSans-48"/>
      <use transform="translate(245.556641 0.78125)" xlink:href="#DejaVuSans-46"/>
      <use transform="translate(277.34375 0.78125)" xlink:href="#DejaVuSans-53"/>
     </g>
    </g>
    <g id="line2d_44"/>
    <g id="text_10">
     <!-- $v=0.6$ -->
     <g style="fill:#cd2f3b;" transform="translate(371.62 102.104813)scale(0.1 -0.1)">
      <defs>
       <path d="M 33.015625 40.375 
Q 26.375 40.375 22.484375 35.828125 
Q 18.609375 31.296875 18.609375 23.390625 
Q 18.609375 15.53125 22.484375 10.953125 
Q 26.375 6.390625 33.015625 6.390625 
Q 39.65625 6.390625 43.53125 10.953125 
Q 47.40625 15.53125 47.40625 23.390625 
Q 47.40625 31.296875 43.53125 35.828125 
Q 39.65625 40.375 33.015625 40.375 
z
M 52.59375 71.296875 
L 52.59375 62.3125 
Q 48.875 64.0625 45.09375 64.984375 
Q 41.3125 65.921875 37.59375 65.921875 
Q 27.828125 65.921875 22.671875 59.328125 
Q 17.53125 52.734375 16.796875 39.40625 
Q 19.671875 43.65625 24.015625 45.921875 
Q 28.375 48.1875 33.59375 48.1875 
Q 44.578125 48.1875 50.953125 41.515625 
Q 57.328125 34.859375 57.328125 23.390625 
Q 57.328125 12.15625 50.6875 5.359375 
Q 44.046875 -1.421875 33.015625 -1.421875 
Q 20.359375 -1.421875 13.671875 8.265625 
Q 6.984375 17.96875 6.984375 36.375 
Q 6.984375 53.65625 15.1875 63.9375 
Q 23.390625 74.21875 37.203125 74.21875 
Q 40.921875 74.21875 44.703125 73.484375 
Q 48.484375 72.75 52.59375 71.296875 
z
" id="DejaVuSans-54"/>
      </defs>
      <use transform="translate(0 0.78125)" xlink:href="#DejaVuSans-Oblique-118"/>
      <use transform="translate(78.662109 0.78125)" xlink:href="#DejaVuSans-61"/>
      <use transform="translate(181.933594 0.78125)" xlink:href="#DejaVuSans-48"/>
      <use transform="translate(245.556641 0.78125)" xlink:href="#DejaVuSans-46"/>
      <use transform="translate(277.34375 0.78125)" xlink:href="#DejaVuSans-54"/>
     </g>
    </g>
    <g id="line2d_45"/>
    <g id="text_11">
     <!-- $v=0.7$ -->
     <g style="fill:#b54773;" transform="translate(371.62 116.782938)scale(0.1 -0.1)">
      <defs>
       <path d="M 8.203125 72.90625 
L 55.078125 72.90625 
L 55.078125 68.703125 
L 28.609375 0 
L 18.3125 0 
L 43.21875 64.59375 
L 8.203125 64.59375 
z
" id="DejaVuSans-55"/>
      </defs>
      <use transform="translate(0 0.78125)" xlink:href="#DejaVuSans-Oblique-118"/>
      <use transform="translate(78.662109 0.78125)" xlink:href="#DejaVuSans-61"/>
      <use transform="translate(181.933594 0.78125)" xlink:href="#DejaVuSans-48"/>
      <use transform="translate(245.556641 0.78125)" xlink:href="#DejaVuSans-46"/>
      <use transform="translate(269.59375 0.78125)" xlink:href="#DejaVuSans-55"/>
     </g>
    </g>
    <g id="line2d_46"/>
    <g id="text_12">
     <!-- $v=0.8$ -->
     <g style="fill:#9c5fab;" transform="translate(371.62 131.461063)scale(0.1 -0.1)">
      <defs>
       <path d="M 31.78125 34.625 
Q 24.75 34.625 20.71875 30.859375 
Q 16.703125 27.09375 16.703125 20.515625 
Q 16.703125 13.921875 20.71875 10.15625 
Q 24.75 6.390625 31.78125 6.390625 
Q 38.8125 6.390625 42.859375 10.171875 
Q 46.921875 13.96875 46.921875 20.515625 
Q 46.921875 27.09375 42.890625 30.859375 
Q 38.875 34.625 31.78125 34.625 
z
M 21.921875 38.8125 
Q 15.578125 40.375 12.03125 44.71875 
Q 8.5 49.078125 8.5 55.328125 
Q 8.5 64.0625 14.71875 69.140625 
Q 20.953125 74.21875 31.78125 74.21875 
Q 42.671875 74.21875 48.875 69.140625 
Q 55.078125 64.0625 55.078125 55.328125 
Q 55.078125 49.078125 51.53125 44.71875 
Q 48 40.375 41.703125 38.8125 
Q 48.828125 37.15625 52.796875 32.3125 
Q 56.78125 27.484375 56.78125 20.515625 
Q 56.78125 9.90625 50.3125 4.234375 
Q 43.84375 -1.421875 31.78125 -1.421875 
Q 19.734375 -1.421875 13.25 4.234375 
Q 6.78125 9.90625 6.78125 20.515625 
Q 6.78125 27.484375 10.78125 32.3125 
Q 14.796875 37.15625 21.921875 38.8125 
z
M 18.3125 54.390625 
Q 18.3125 48.734375 21.84375 45.5625 
Q 25.390625 42.390625 31.78125 42.390625 
Q 38.140625 42.390625 41.71875 45.5625 
Q 45.3125 48.734375 45.3125 54.390625 
Q 45.3125 60.0625 41.71875 63.234375 
Q 38.140625 66.40625 31.78125 66.40625 
Q 25.390625 66.40625 21.84375 63.234375 
Q 18.3125 60.0625 18.3125 54.390625 
z
" id="DejaVuSans-56"/>
      </defs>
      <use transform="translate(0 0.78125)" xlink:href="#DejaVuSans-Oblique-118"/>
      <use transform="translate(78.662109 0.78125)" xlink:href="#DejaVuSans-61"/>
      <use transform="translate(181.933594 0.78125)" xlink:href="#DejaVuSans-48"/>
      <use transform="translate(245.556641 0.78125)" xlink:href="#DejaVuSans-46"/>
      <use transform="translate(274.71875 0.78125)" xlink:href="#DejaVuSans-56"/>
     </g>
    </g>
    <g id="line2d_47"/>
    <g id="text_13">
     <!-- $v=0.9$ -->
     <g style="fill:#766bbb;" transform="translate(371.62 146.139188)scale(0.1 -0.1)">
      <defs>
       <path d="M 10.984375 1.515625 
L 10.984375 10.5 
Q 14.703125 8.734375 18.5 7.8125 
Q 22.3125 6.890625 25.984375 6.890625 
Q 35.75 6.890625 40.890625 13.453125 
Q 46.046875 20.015625 46.78125 33.40625 
Q 43.953125 29.203125 39.59375 26.953125 
Q 35.25 24.703125 29.984375 24.703125 
Q 19.046875 24.703125 12.671875 31.3125 
Q 6.296875 37.9375 6.296875 49.421875 
Q 6.296875 60.640625 12.9375 67.421875 
Q 19.578125 74.21875 30.609375 74.21875 
Q 43.265625 74.21875 49.921875 64.515625 
Q 56.59375 54.828125 56.59375 36.375 
Q 56.59375 19.140625 48.40625 8.859375 
Q 40.234375 -1.421875 26.421875 -1.421875 
Q 22.703125 -1.421875 18.890625 -0.6875 
Q 15.09375 0.046875 10.984375 1.515625 
z
M 30.609375 32.421875 
Q 37.25 32.421875 41.125 36.953125 
Q 45.015625 41.5 45.015625 49.421875 
Q 45.015625 57.28125 41.125 61.84375 
Q 37.25 66.40625 30.609375 66.40625 
Q 23.96875 66.40625 20.09375 61.84375 
Q 16.21875 57.28125 16.21875 49.421875 
Q 16.21875 41.5 20.09375 36.953125 
Q 23.96875 32.421875 30.609375 32.421875 
z
" id="DejaVuSans-57"/>
      </defs>
      <use transform="translate(0 0.78125)" xlink:href="#DejaVuSans-Oblique-118"/>
      <use transform="translate(78.662109 0.78125)" xlink:href="#DejaVuSans-61"/>
      <use transform="translate(181.933594 0.78125)" xlink:href="#DejaVuSans-48"/>
      <use transform="translate(245.556641 0.78125)" xlink:href="#DejaVuSans-46"/>
      <use transform="translate(277.34375 0.78125)" xlink:href="#DejaVuSans-57"/>
     </g>
    </g>
   </g>
  </g>
 </g>
 <defs>
  <clipPath id="p02cca2387a">
   <rect height="266.112" width="357.12" x="57.6" y="41.472"/>
  </clipPath>
 </defs>
</svg>
